<svg width="81" height="82" viewBox="0 0 81 82" fill="none" xmlns="http://www.w3.org/2000/svg">
<path d="M43.8748 24.0548C45.665 24.0548 47.3819 24.766 48.6477 26.0318C49.9136 27.2977 50.6248 29.0146 50.6248 30.8048V71.3048L33.7498 61.1798L16.8748 71.3048V30.8048C16.8748 29.0146 17.5859 27.2977 18.8518 26.0318C20.1177 24.766 21.8345 24.0548 23.6248 24.0548H43.8748Z" stroke="#303844" stroke-width="2.75" stroke-linecap="round" stroke-linejoin="round"/>
<path d="M31.2694 13.9297C31.8627 12.9021 32.7164 12.0491 33.7444 11.4565C34.7724 10.864 35.9385 10.5529 37.125 10.5547H57.375C59.1652 10.5547 60.8821 11.2659 62.148 12.5317C63.4139 13.7976 64.125 15.5145 64.125 17.3047V57.8047L60.75 55.7797" stroke="#303844" stroke-width="2.75" stroke-linecap="round" stroke-linejoin="round"/>
</svg>