<svg width="20" height="21" viewBox="0 0 20 21" fill="none" xmlns="http://www.w3.org/2000/svg">
<path d="M10 20.1714C4.47715 20.1714 0 15.6942 0 10.1714C0 4.64854 4.47715 0.171387 10 0.171387C15.5228 0.171387 20 4.64854 20 10.1714C19.9939 15.6917 15.5203 20.1653 10 20.1714ZM2 10.3434C2.04732 14.7446 5.64111 18.2809 10.0425 18.2574C14.444 18.2336 17.9995 14.6589 17.9995 10.2574C17.9995 5.85589 14.444 2.28116 10.0425 2.25738C5.64111 2.23384 2.04732 5.77015 2 10.1714V10.3434ZM11 15.1714H9V11.1714H5V9.17139H9V5.17139H11V9.17139H15V11.1714H11V15.1714Z" fill="#91BF29"/>
</svg>
