<svg width="204" height="60" viewBox="0 0 204 60" fill="none" xmlns="http://www.w3.org/2000/svg">
<g clip-path="url(#clip0_1623_603)">
<path d="M196.187 0.758789H7.67214C3.854 0.758789 0.758789 3.854 0.758789 7.67214V52.3372C0.758789 56.1554 3.854 59.2506 7.67214 59.2506H196.187C200.005 59.2506 203.101 56.1554 203.101 52.3372V7.67214C203.101 3.854 200.005 0.758789 196.187 0.758789Z" fill="black"/>
<path d="M196.178 59.9999H7.67213C5.63736 59.9999 3.68592 59.1916 2.24712 57.7528C0.808312 56.314 0 54.3626 0 52.3278V7.68141C0 5.64663 0.808312 3.6952 2.24712 2.25639C3.68592 0.817589 5.63736 0.00927734 7.67213 0.00927734H196.178C198.213 0.00927734 200.164 0.817589 201.603 2.25639C203.042 3.6952 203.85 5.64663 203.85 7.68141V52.3278C203.85 54.3626 203.042 56.314 201.603 57.7528C200.164 59.1916 198.213 59.9999 196.178 59.9999V59.9999ZM7.67213 1.50811C6.0365 1.51059 4.4687 2.16208 3.313 3.31953C2.15731 4.47698 1.5082 6.04577 1.5082 7.68141V52.3278C1.51067 53.9618 2.16088 55.5282 3.31631 56.6836C4.47173 57.839 6.03812 58.4892 7.67213 58.4917H196.178C197.812 58.4892 199.378 57.839 200.534 56.6836C201.689 55.5282 202.339 53.9618 202.342 52.3278V7.68141C202.339 6.04739 201.689 4.48101 200.534 3.32559C199.378 2.17016 197.812 1.51995 196.178 1.51747L7.67213 1.50811Z" fill="#A7A9AC"/>
<path d="M45.4708 29.4145C45.4917 27.9337 45.8866 26.4823 46.6187 25.1951C47.3507 23.9078 48.3963 22.8265 49.6581 22.0515C48.8561 20.9076 47.7984 19.9666 46.569 19.3031C45.3397 18.6396 43.9725 18.272 42.5762 18.2294C39.5972 17.9109 36.712 20.0093 35.1944 20.0093C33.6769 20.0093 31.3068 18.2575 28.7963 18.3044C27.1686 18.3597 25.5827 18.8346 24.1926 19.6831C22.8024 20.5317 21.6551 21.725 20.8619 23.1475C17.4333 29.0866 19.9907 37.8079 23.2787 42.6135C24.9274 44.9554 26.8478 47.5878 29.3584 47.4941C31.8689 47.4004 32.7307 45.9203 35.7003 45.9203C38.6698 45.9203 39.5129 47.4941 42.0703 47.4285C44.6277 47.3629 46.3701 45.0678 47.9532 42.6978C49.1365 41.0252 50.0471 39.1755 50.6511 37.2177C49.1172 36.5688 47.8082 35.483 46.887 34.0954C45.9659 32.7078 45.4733 31.0799 45.4708 29.4145" fill="white"/>
<path d="M40.6464 15.0727C42.1025 13.3519 42.8257 11.1287 42.6605 8.88062C40.4624 9.11028 38.4318 10.1607 36.9743 11.8221C36.2608 12.6326 35.7147 13.5763 35.3674 14.5989C35.0201 15.6214 34.8786 16.7025 34.9509 17.7799C36.0489 17.791 37.1351 17.5531 38.1281 17.0842C39.121 16.6153 39.9948 15.9276 40.6839 15.0727" fill="white"/>
<path d="M81.068 39.6067H77.6394L75.7658 33.705H69.2085L67.4099 39.6067H64.0844L70.5574 19.5317H74.5106L81.068 39.6067ZM75.2038 31.232L73.5082 25.9861C73.3209 25.4521 72.9836 24.1968 72.4872 22.239H72.431C72.2342 23.0915 71.9157 24.3467 71.4942 25.9861L69.8267 31.232H75.2038Z" fill="white"/>
<path d="M97.6675 32.1873C97.7841 34.3206 97.0688 36.416 95.6722 38.0327C95.1063 38.6408 94.418 39.1221 93.6527 39.4451C92.8874 39.768 92.0623 39.9252 91.2319 39.9063C90.4245 39.972 89.6145 39.8155 88.8896 39.4539C88.1647 39.0923 87.5526 38.5393 87.1195 37.8547H87.0633V45.48H83.8782V29.8922C83.8782 28.3466 83.8782 26.7634 83.7565 25.1241H86.5668L86.7541 27.4192H86.8103C87.2996 26.6746 87.9556 26.0544 88.7263 25.6076C89.497 25.1608 90.3613 24.8998 91.2505 24.8452C92.1397 24.7907 93.0293 24.9441 93.8489 25.2933C94.6685 25.6426 95.3954 26.178 95.9719 26.8571C97.169 28.3681 97.7781 30.2617 97.6862 32.1873H97.6675ZM94.4075 32.3091C94.4649 31.0784 94.1374 29.8604 93.4708 28.8243C93.1987 28.4422 92.8508 28.1203 92.4487 27.8788C92.0466 27.6373 91.599 27.4813 91.1339 27.4206C90.6688 27.36 90.1962 27.3959 89.7456 27.5262C89.295 27.6565 88.8762 27.8784 88.5152 28.1779C87.869 28.7067 87.4228 29.4405 87.2506 30.2576C87.1635 30.5627 87.1132 30.8772 87.1007 31.1943V33.6112C87.0666 34.5872 87.401 35.5403 88.0375 36.281C88.3517 36.6364 88.7404 36.9181 89.176 37.1059C89.6116 37.2938 90.0833 37.3831 90.5574 37.3676C91.1059 37.3866 91.6504 37.2679 92.1413 37.0225C92.6321 36.777 93.0538 36.4126 93.3677 35.9625C94.0886 34.871 94.443 33.5782 94.3794 32.2716" fill="white"/>
<path d="M114.323 32.1873C114.441 34.3224 113.722 36.4194 112.319 38.0327C111.755 38.6415 111.069 39.1234 110.305 39.4465C109.541 39.7695 108.717 39.9262 107.888 39.9063C107.08 39.972 106.27 39.8155 105.545 39.4539C104.821 39.0923 104.208 38.5393 103.775 37.8547H103.719V45.48H100.497V29.8922C100.497 28.3466 100.497 26.7634 100.375 25.1241H103.185L103.372 27.4192H103.429C103.918 26.6746 104.574 26.0544 105.345 25.6076C106.115 25.1608 106.98 24.8998 107.869 24.8452C108.758 24.7907 109.648 24.9441 110.467 25.2933C111.287 25.6426 112.014 26.178 112.59 26.8571C113.787 28.3681 114.396 30.2617 114.304 32.1873H114.323ZM111.026 32.3091C111.083 31.0784 110.756 29.8604 110.089 28.8243C109.817 28.4422 109.469 28.1203 109.067 27.8788C108.665 27.6373 108.217 27.4813 107.752 27.4206C107.287 27.36 106.814 27.3959 106.364 27.5262C105.913 27.6565 105.494 27.8784 105.134 28.1779C104.487 28.7067 104.041 29.4405 103.869 30.2576C103.782 30.5627 103.731 30.8772 103.719 31.1943V33.6112C103.685 34.5872 104.019 35.5403 104.656 36.281C104.97 36.6364 105.359 36.9181 105.794 37.1059C106.23 37.2938 106.702 37.3831 107.176 37.3676C107.724 37.3866 108.269 37.2679 108.76 37.0225C109.25 36.777 109.672 36.4126 109.986 35.9625C110.716 34.887 111.086 33.6081 111.045 32.3091" fill="white"/>
<path d="M132.946 33.9764C132.972 34.7599 132.825 35.5394 132.515 36.2598C132.206 36.9802 131.742 37.6238 131.157 38.145C129.621 39.4008 127.667 40.0299 125.686 39.9062C123.866 39.9888 122.06 39.5536 120.478 38.6509L121.227 35.9717C122.638 36.8283 124.261 37.2728 125.911 37.2551C126.915 37.3137 127.908 37.0224 128.721 36.4308C129.05 36.1705 129.313 35.8365 129.489 35.4556C129.665 35.0748 129.748 34.6579 129.733 34.2387C129.742 33.8566 129.672 33.4767 129.529 33.1223C129.385 32.768 129.171 32.4466 128.899 32.1778C128.08 31.4738 127.123 30.9475 126.089 30.6322C122.579 29.3144 120.821 27.3941 120.815 24.871C120.799 24.0971 120.96 23.3298 121.285 22.6271C121.609 21.9244 122.089 21.3047 122.689 20.8148C124.08 19.705 125.829 19.142 127.607 19.2317C129.18 19.175 130.745 19.4962 132.169 20.1685L131.363 22.7914C130.182 22.1616 128.861 21.8395 127.522 21.8546C126.566 21.7928 125.62 22.0901 124.871 22.6884C124.61 22.9202 124.403 23.2063 124.263 23.5267C124.124 23.8471 124.057 24.194 124.066 24.5432C124.06 24.9209 124.142 25.2948 124.305 25.636C124.467 25.9771 124.706 26.2763 125.002 26.5104C125.882 27.1745 126.862 27.6932 127.906 28.0467C129.351 28.5524 130.657 29.3898 131.719 30.4916C132.547 31.4602 132.985 32.7026 132.946 33.9764" fill="white"/>
<path d="M143.578 27.5411H140.084V34.5762C140.084 36.356 140.703 37.2553 141.958 37.2553C142.437 37.2673 142.916 37.217 143.382 37.1055L143.475 39.5504C142.668 39.8119 141.822 39.9324 140.974 39.9064C140.423 39.9387 139.872 39.8517 139.358 39.6512C138.844 39.4507 138.379 39.1415 137.995 38.7448C137.157 37.6266 136.758 36.2405 136.871 34.8479V27.5411H134.763V25.1242H136.871V22.4731L140.037 21.5364V25.1429H143.578V27.5411Z" fill="white"/>
<path d="M159.578 32.253C159.662 34.2498 158.994 36.2054 157.705 37.7331C157.034 38.4634 156.213 39.0387 155.297 39.4189C154.381 39.7991 153.393 39.975 152.403 39.9345C151.451 39.9782 150.502 39.811 149.623 39.445C148.743 39.0791 147.956 38.5232 147.316 37.8174C146.036 36.3436 145.366 34.4375 145.443 32.4872C145.358 30.4686 146.056 28.4954 147.391 26.979C148.06 26.2602 148.878 25.696 149.787 25.3255C150.696 24.955 151.675 24.7872 152.656 24.8338C153.611 24.7955 154.564 24.964 155.448 25.3278C156.332 25.6916 157.128 26.242 157.78 26.9415C159.059 28.408 159.73 30.3083 159.653 32.253H159.578ZM156.319 32.356C156.353 31.1514 156.051 29.961 155.447 28.9181C155.178 28.3872 154.764 27.943 154.254 27.6365C153.744 27.3299 153.157 27.1735 152.562 27.1851C151.957 27.1688 151.36 27.3226 150.838 27.629C150.317 27.9353 149.892 28.382 149.611 28.9181C149.01 29.9822 148.712 31.1906 148.749 32.4122C148.716 33.6156 149.014 34.805 149.611 35.8502C149.891 36.3805 150.312 36.8231 150.828 37.129C151.344 37.4348 151.934 37.592 152.534 37.5832C153.122 37.5694 153.695 37.3944 154.191 37.0773C154.686 36.7601 155.085 36.313 155.344 35.7846C155.976 34.7401 156.3 33.5389 156.281 32.3185" fill="white"/>
<path d="M170.061 27.9532C169.727 27.8956 169.388 27.8674 169.049 27.8689C168.54 27.8476 168.033 27.9538 167.575 28.1779C167.117 28.402 166.722 28.7369 166.426 29.1522C165.874 29.9834 165.593 30.9651 165.621 31.9625V39.5597H162.379V29.6393C162.379 27.9719 162.379 26.4543 162.267 25.0773H165.077L165.19 27.8876H165.274C165.586 26.9869 166.144 26.1918 166.885 25.5925C167.561 25.0941 168.378 24.825 169.218 24.8244C169.484 24.8224 169.75 24.8412 170.014 24.8806L170.061 27.9532Z" fill="white"/>
<path d="M184.422 31.6815C184.429 32.171 184.391 32.6601 184.309 33.1428H174.66C174.64 33.7581 174.754 34.3705 174.995 34.9369C175.236 35.5033 175.598 36.0101 176.056 36.4215C176.954 37.1247 178.074 37.4836 179.213 37.4332C180.547 37.4509 181.871 37.219 183.119 36.7494L183.625 38.9789C182.087 39.6236 180.431 39.9426 178.764 39.9157C177.793 39.9685 176.823 39.8192 175.913 39.4774C175.004 39.1355 174.175 38.6085 173.48 37.9297C172.822 37.2153 172.313 36.3766 171.983 35.4629C171.654 34.5492 171.51 33.5789 171.56 32.6089C171.487 30.6363 172.121 28.7025 173.349 27.1569C173.95 26.3994 174.722 25.7943 175.601 25.3907C176.48 24.9871 177.441 24.7962 178.408 24.8337C179.332 24.7735 180.256 24.9521 181.091 25.3524C181.926 25.7527 182.644 26.3613 183.176 27.1194C184.061 28.4724 184.505 30.0658 184.45 31.6815H184.422ZM181.386 30.8477C181.429 29.9792 181.211 29.1177 180.759 28.3747C180.493 27.9395 180.113 27.5849 179.661 27.3489C179.209 27.1129 178.701 27.0044 178.192 27.0351C177.691 27.0279 177.196 27.1436 176.75 27.3723C176.304 27.6009 175.921 27.9355 175.635 28.3466C175.09 29.0738 174.765 29.9417 174.698 30.8477H181.386Z" fill="white"/>
</g>
<defs>
<clipPath id="clip0_1623_603">
<rect width="203.85" height="60" fill="white"/>
</clipPath>
</defs>
</svg>
