<svg width="80" height="69" viewBox="0 0 80 69" fill="none" xmlns="http://www.w3.org/2000/svg">
<path d="M79.4694 28.9218L30.7965 0.780178C27.9646 -0.812753 24.2474 0.0722953 22.4775 3.08116L16.8143 12.8157L13.0973 19.3644C11.5043 22.1962 12.3889 25.913 15.3978 27.6829L32.0349 37.2408L29.38 41.6656C28.6721 42.9045 27.4333 43.6122 26.0173 43.6122H16.2828V36.1786C16.2828 35.6477 15.7516 35.1165 15.2206 35.1165H9.20308V33.7009C9.20308 31.046 7.07969 28.9218 4.42481 28.9218H1.06126C0.530285 28.9218 0 29.4529 0 29.9839V66.9751C0 67.5061 0.530285 68.0372 1.06126 68.0372H4.42481C7.07969 68.0372 9.20308 65.9134 9.20308 63.2585V59.7187H15.2206C15.7516 59.7187 16.2828 59.1875 16.2828 58.6566V53.3468H26.0173C30.7961 53.3468 35.2211 50.8688 37.699 46.621L40.3539 42.1962L49.5578 47.506C50.4428 48.0369 51.5042 48.3909 52.5662 48.3909C53.0972 48.3909 53.628 48.3912 54.159 48.2142C55.2209 48.0372 56.1059 47.5061 56.8138 46.7982C58.0528 47.3292 59.2921 47.6831 60.708 47.6831C61.593 47.6831 62.3008 47.5062 63.1857 47.3292C65.1326 46.7983 66.9031 45.5591 68.142 43.9661L70.4426 45.2054C70.9736 45.5594 71.6812 45.3821 71.8582 44.8511L80 30.8689C80 29.8069 79.8234 29.2758 79.4694 28.9218ZM7.07969 63.0814C7.07969 64.4973 5.84075 65.7363 4.42481 65.7363H2.30055V30.8689H4.42481C5.84075 30.8689 7.07969 32.1078 7.07969 33.5238V63.0814ZM14.1594 57.4177H9.38025V37.0636H14.1594V57.4177ZM35.7519 45.3821C33.628 48.922 29.911 51.0458 25.8402 51.0458H16.1056V45.736H25.8402C27.9641 45.736 29.911 44.6742 31.15 42.7273L33.8048 38.3025L38.4068 40.9573L35.7519 45.3821ZM50.6191 45.3821L16.4599 25.5591C14.513 24.4971 13.9824 22.0193 15.0443 20.2493L18.2299 14.7624L49.5578 32.816L59.1153 38.3025L55.9289 43.7894C55.9289 43.9664 55.7524 44.1433 55.5754 44.1433C54.5135 45.9132 52.212 46.2671 50.6191 45.3821ZM62.4779 44.8511C61.062 45.2051 59.4692 45.2053 58.2303 44.6744L61.0623 39.5413L66.1949 42.3734C65.133 43.6123 63.8939 44.4971 62.4779 44.8511ZM70.2654 42.3734L63.1857 38.3025L61.0623 37.0636L36.9912 23.0814L19.1148 12.8157L24.2474 3.96613C25.3094 2.01921 27.7873 1.48815 29.5572 2.5501L77.3451 30.1611L70.2654 42.3734Z" fill="white"/>
<path d="M65.6634 36.5328C66.3714 36.8867 67.0797 37.0638 67.7877 37.0638C68.1417 37.0638 68.4958 37.0636 68.8498 36.8867C71.1507 36.3557 72.3892 34.055 71.8582 31.7541C71.3272 29.4532 69.0265 28.2143 66.7256 28.7453C64.4247 29.2762 63.1862 31.577 63.7172 33.8779C64.0712 34.9398 64.7785 35.8248 65.6634 36.5328ZM66.0178 31.7541C66.3718 31.2231 66.7261 30.8691 67.2571 30.8691C67.4341 30.8691 67.6107 30.8691 67.7877 30.8691C68.8497 30.8691 69.7348 31.7542 69.7348 32.8162C69.7348 33.8781 68.8497 34.7628 67.7877 34.7628C66.7257 34.7628 65.8406 33.8781 65.8406 32.8162C65.8406 32.4622 65.8408 32.108 66.0178 31.7541Z" fill="white"/>
<path d="M28.4951 25.3822L19.4692 20.2496C18.9382 19.8956 18.2297 20.0725 18.0527 20.6035C17.6987 21.1345 17.8761 21.8425 18.407 22.0195L27.4338 27.1521C27.9648 27.5061 28.6724 27.1525 28.8494 26.6215C29.0264 26.2675 28.8491 25.7362 28.4951 25.3822Z" fill="white"/>
</svg>