<svg width="75" height="79" viewBox="0 0 75 79" fill="none" xmlns="http://www.w3.org/2000/svg">
<path d="M72.9956 6.50103H51.283L47.7102 4.1243C47.4955 3.98629 47.2502 3.90962 46.9895 3.90962H44.3828C44.3828 1.7629 42.6347 0.0148444 40.488 0.0148444C39.522 0.0148444 38.6019 0.367521 37.8813 1.01154C36.4092 -0.322499 34.1551 -0.322499 32.6831 1.01154C31.0731 -0.445169 28.6043 -0.307165 27.1783 1.28755C26.5343 2.00824 26.1816 2.92826 26.1816 3.89429V32.2158L24.6329 32.5225C23.9275 32.6605 23.4675 33.3505 23.6055 34.0558C23.6055 34.0865 23.6208 34.1172 23.6362 34.1632L24.8322 38.38C25.1695 39.576 25.7982 40.6954 26.6416 41.6154C26.2122 41.9834 25.8596 42.4281 25.5682 42.9188C23.0688 42.8881 20.9988 44.8968 20.9681 47.3962C20.9681 47.6722 20.9834 47.9329 21.0294 48.1936C17.426 49.5429 14.2366 51.797 11.7832 54.7564C8.99241 54.0817 6.18633 55.7838 5.49631 58.5745C5.02096 60.5066 5.69565 62.546 7.24436 63.8187C6.95302 65.0607 6.76901 66.3334 6.69235 67.6061H1.46353C0.74284 67.6061 0.160156 68.1888 0.160156 68.9095C0.160156 73.939 4.23894 78.0024 9.26842 78.0178H61.2959C66.3254 78.0178 70.3889 73.939 70.4042 68.9095C70.4042 68.1888 69.8215 67.6061 69.1008 67.6061H63.8567C63.7953 66.5788 63.6573 65.5361 63.458 64.524C63.4427 64.4474 63.4273 64.3707 63.412 64.294C63.0133 62.3927 62.354 60.5679 61.4799 58.8352C61.4493 58.7586 61.4186 58.6972 61.3726 58.6359C59.7932 55.6151 57.5392 53.0084 54.7791 51.015C54.7791 50.9077 54.7944 50.8003 54.7944 50.693C54.7944 47.8256 52.4637 45.4948 49.5963 45.4948C49.4583 45.4948 49.3049 45.4948 49.1669 45.5102C48.4156 43.9001 46.7748 42.8728 44.9961 42.8881C44.8888 42.7194 44.7815 42.5507 44.6588 42.3821C45.0421 41.9987 45.3795 41.5694 45.6708 41.1094L48.1089 37.0459C48.4769 36.4326 48.2776 35.6352 47.6642 35.2672C47.5262 35.1905 47.3729 35.1292 47.2042 35.0985L44.3828 34.6232V16.9127H46.9895C47.2502 16.9127 47.4955 16.836 47.7102 16.698L51.283 14.3213H72.9956C73.7163 14.3213 74.299 13.7386 74.299 13.0179V7.8044C74.299 7.08372 73.7163 6.50103 72.9956 6.50103ZM35.2745 2.60625C35.9952 2.60625 36.5779 3.18894 36.5779 3.90962V35.3132C36.2252 35.5739 35.9032 35.8499 35.6119 36.1719C35.1825 35.3745 34.6305 34.6692 33.9711 34.0558V3.89429C33.9711 3.18894 34.5538 2.60625 35.2745 2.60625ZM30.0764 2.60625C30.797 2.60625 31.3797 3.18894 31.3797 3.90962V32.4611C30.5517 32.1391 29.6623 31.9704 28.773 31.9398V3.89429C28.773 3.18894 29.3557 2.60625 30.0764 2.60625ZM27.3316 37.6746L26.5189 34.8225L27.4696 34.6385C30.4137 34.0558 33.2965 35.9572 33.8791 38.9166C33.9558 39.2693 33.9865 39.622 33.9865 39.99V40.5114C33.5265 40.634 33.0971 40.8027 32.6831 41.048C31.8857 40.588 30.9964 40.358 30.0764 40.358C29.7544 40.358 29.4477 40.3887 29.141 40.45C28.267 39.6987 27.6383 38.748 27.3316 37.6746ZM44.6894 52.4717C43.7081 52.7784 42.5581 53.0084 40.7487 53.0084C38.2493 53.0084 37.0226 52.5637 35.7192 52.1037C34.2778 51.5823 32.7751 51.0457 29.8157 51.0457C26.8563 51.0457 25.3689 51.5823 23.9122 52.1037C22.6241 52.5637 21.3974 53.0084 18.8827 53.0084C18.392 53.0084 17.9473 52.993 17.564 52.9624C19.2047 51.797 21.0294 50.9077 22.9615 50.3096C23.0228 50.2943 23.0995 50.279 23.1608 50.2483C24.9855 49.7116 26.8716 49.4356 28.773 49.4356H41.776C42.6807 49.4356 43.6008 49.4969 44.5054 49.6196C44.2908 50.5703 44.3521 51.5517 44.6894 52.4717ZM18.8827 60.8133C21.8421 60.8133 23.3295 60.2766 24.7862 59.7552C26.0742 59.2952 27.3009 58.8506 29.8157 58.8506C32.3304 58.8506 33.5418 59.2952 34.8452 59.7552C36.2865 60.2766 37.7893 60.8133 40.7487 60.8133C43.7081 60.8133 45.1955 60.2766 46.6522 59.7552C47.9402 59.2952 49.1669 58.8506 51.6817 58.8506C54.1964 58.8506 55.4078 59.2952 56.7111 59.7552C57.5852 60.0926 58.4899 60.3533 59.4099 60.5373C59.8392 61.4266 60.1919 62.3313 60.4679 63.282C59.4865 63.1287 58.5052 62.8833 57.5852 62.5153C56.1438 61.994 54.6411 61.4573 51.6817 61.4573C48.7222 61.4573 47.2349 61.994 45.7781 62.5153C44.4901 62.9753 43.2634 63.42 40.7487 63.42C40.3347 63.42 39.936 63.4047 39.568 63.3894C38.4486 62.6073 37.0686 62.3007 35.7192 62.5307C34.2778 62.0093 32.7751 61.488 29.8157 61.488C26.8563 61.488 25.3689 62.0246 23.9122 62.546C22.6241 63.006 21.3974 63.4507 18.8827 63.4507C16.9813 63.4507 15.8159 63.2053 14.8039 62.8833C15.2946 62.2087 15.6013 61.4113 15.7086 60.5833C16.7666 60.7213 17.8247 60.8133 18.8827 60.8133ZM33.9711 67.6368C33.9711 66.1954 35.1365 65.0301 36.5779 65.0301C38.0193 65.0301 39.1846 66.1954 39.1846 67.6368H33.9711ZM10.5718 57.2252C12.0132 57.2252 13.1785 58.3905 13.1785 59.8166C13.1785 61.2426 12.0132 62.4233 10.5871 62.4233C10.2038 62.4233 9.83577 62.3467 9.48309 62.178C9.40643 62.1166 9.31442 62.0706 9.22242 62.04C7.99572 61.304 7.59704 59.7092 8.33306 58.4672C8.80841 57.7005 9.65177 57.2252 10.5718 57.2252ZM9.6671 64.9534C10.5565 65.1067 11.4765 65.0301 12.3198 64.7234C12.5345 64.8001 12.7645 64.8767 12.9792 64.9534C14.4206 65.4747 15.9233 66.0114 18.8827 66.0114C21.8421 66.0114 23.3295 65.4747 24.7862 64.9534C26.0742 64.4934 27.3009 64.0487 29.8157 64.0487C30.751 64.0334 31.6711 64.11 32.5911 64.294C31.8091 65.2294 31.3797 66.4101 31.3797 67.6368H9.31442C9.36042 66.7321 9.48309 65.8428 9.6671 64.9534ZM61.2959 75.4417H9.26842C6.18633 75.4417 3.51825 73.2643 2.88957 70.2436H67.6595C67.0461 73.2643 64.378 75.4417 61.2959 75.4417ZM41.776 67.6368C41.776 67.0848 41.684 66.5328 41.5154 65.9961C43.9688 65.9041 45.3335 65.4287 46.6368 64.9534C47.9249 64.4934 49.1516 64.0487 51.6663 64.0487C54.1811 64.0487 55.3924 64.4934 56.6958 64.9534C57.8152 65.3521 59.0572 65.7968 61.0659 65.9501C61.1579 66.5021 61.2193 67.0695 61.2499 67.6368H41.776ZM57.4012 57.2405C56.0058 56.7498 54.5184 56.2438 51.6663 56.2438C48.7069 56.2438 47.2195 56.7805 45.7628 57.3018C44.4748 57.7619 43.2481 58.2065 40.7333 58.2065C38.2186 58.2065 37.0072 57.7619 35.7039 57.3018C34.2625 56.7805 32.7598 56.2438 29.8004 56.2438C26.8409 56.2438 25.3536 56.7805 23.8968 57.3018C22.6088 57.7619 21.3821 58.2065 18.8674 58.2065C17.1653 58.2065 16.092 57.9919 15.3253 57.7925C15.0493 57.1332 14.6199 56.5352 14.0986 56.0445C14.3592 55.7378 14.6352 55.4465 14.9113 55.1704C16.1993 55.4771 17.5333 55.6305 18.852 55.5998C21.8115 55.5998 23.2988 55.0631 24.7555 54.5418C26.0436 54.0817 27.2703 53.6371 29.785 53.6371C32.2998 53.6371 33.5111 54.0817 34.8145 54.5418C36.2559 55.0631 37.7586 55.5998 40.718 55.5998C43.4014 55.5998 44.8735 55.1551 46.2075 54.6951C48.4002 56.5505 51.6817 56.2745 53.5217 54.0971C53.6444 53.9591 53.7517 53.8057 53.8591 53.6524C55.2084 54.6798 56.3891 55.8911 57.4012 57.2405ZM52.1877 50.7236C52.1877 52.165 51.0223 53.3304 49.5809 53.3304C48.1395 53.3304 46.9742 52.165 46.9742 50.7236C46.9742 49.2823 48.1395 48.1169 49.5809 48.1169C51.0223 48.1322 52.1877 49.2976 52.1877 50.7236ZM45.0268 45.5255C45.6861 45.5255 46.2995 45.8628 46.6675 46.4149C46.3455 46.6295 46.0388 46.8902 45.7781 47.1815C44.4594 46.9362 43.1254 46.8135 41.776 46.8135H28.773C27.0249 46.8135 25.2769 47.0129 23.5748 47.4269C23.5902 46.3535 24.4642 45.4948 25.5376 45.5102C25.7062 45.5102 25.8596 45.5408 26.0282 45.5715C26.7029 45.7555 27.3929 45.3722 27.6076 44.7128C28.0523 43.3481 29.509 42.5967 30.8737 43.0261C31.2264 43.1334 31.5484 43.3174 31.8091 43.5628C32.2998 44.0075 33.0511 44.0075 33.5418 43.5628C34.5232 42.6734 36.0259 42.6734 37.0072 43.5628C37.4979 44.0075 38.2493 44.0075 38.7399 43.5628C39.8133 42.6121 41.454 42.7041 42.4201 43.7621C42.6654 44.0381 42.8494 44.3601 42.9567 44.6975C43.1714 45.3568 43.8614 45.7402 44.5361 45.5562C44.6894 45.5408 44.8581 45.5255 45.0268 45.5255ZM43.4321 39.806C43.2174 40.174 42.9261 40.496 42.6041 40.772C41.086 40.0973 39.3226 40.1893 37.8813 41.0174C37.4672 40.7874 37.0379 40.6034 36.5779 40.4807V40.404C36.5779 38.334 38.2493 36.6626 40.3193 36.6626C40.5187 36.6626 40.7333 36.6779 40.9327 36.7086L44.8888 37.3679L43.4321 39.806ZM41.362 34.1632C40.6413 34.0405 39.9053 34.0558 39.1846 34.1785V3.89429C39.1846 3.1736 39.7673 2.59092 40.488 2.59092C41.2087 2.59092 41.7914 3.1736 41.7914 3.89429V34.2245L41.362 34.1632ZM71.6922 11.6992H50.8843C50.6236 11.6992 50.3783 11.7759 50.1636 11.9139L46.5908 14.2906H44.3828V6.50103H46.5908L50.1636 8.8931C50.3783 9.03111 50.6236 9.10778 50.8843 9.10778H71.6922V11.6992Z" fill="white"/>
</svg>
