<svg width="73" height="73" viewBox="0 0 73 73" fill="none" xmlns="http://www.w3.org/2000/svg">
<path d="M13.2178 18.7327C17.3218 18.7327 20.9305 16.5675 22.4589 13.256C28.4735 13.8786 34.5305 14.2466 40.5874 14.374L39.5968 16.1995L36.4127 17.9402C35.8749 18.2374 35.6768 18.9167 35.9739 19.4545C36.073 19.6384 36.2287 19.7941 36.4127 19.8932L39.5968 21.6339L41.3375 24.818C41.6347 25.3558 42.314 25.5539 42.8517 25.2567C43.0357 25.1577 43.1914 25.002 43.2905 24.818L45.0311 21.6339L48.2153 19.8932C48.7531 19.596 48.9512 18.9167 48.654 18.3789C48.5549 18.195 48.3993 18.0393 48.2153 17.9402L45.0311 16.1995L44.0688 14.4306C47.1539 14.4447 50.2249 14.4023 53.2958 14.289C58.5037 14.1051 63.754 13.723 68.9478 13.1711C69.5138 13.1144 69.9384 12.6333 69.9384 12.0672V8.72737C69.9384 8.16129 69.5138 7.68013 68.9478 7.62352C63.7682 7.0716 58.5037 6.6895 53.2958 6.50553C43.1065 6.15173 32.903 6.49137 22.7703 7.53861C21.0862 3.56194 17.3501 0.943848 13.2178 0.943848C7.69854 0.943848 3.2124 4.93467 3.2124 9.84536C3.2124 14.7561 7.71269 18.7327 13.2178 18.7327ZM45.3708 18.9167L43.6726 19.8366C43.4886 19.9356 43.3329 20.0913 43.2338 20.2753L42.314 21.9735L41.3941 20.2753C41.295 20.0913 41.1394 19.9356 40.9554 19.8366L39.2572 18.9167L40.9554 17.9968C41.1394 17.8978 41.295 17.7421 41.3941 17.5581L42.314 15.8599L43.2338 17.5581C43.3329 17.7421 43.4886 17.8978 43.6726 17.9968L45.3708 18.9167ZM13.2178 3.16569C16.6708 3.16569 19.7842 5.5432 20.973 9.08116C21.1428 9.57648 21.624 9.88782 22.1476 9.83121C32.4643 8.72737 42.8517 8.35942 53.2109 8.72737C58.0225 8.89719 62.9049 9.23683 67.7024 9.73215V11.0624C62.8908 11.5577 58.0225 11.8974 53.2109 12.0672C42.7527 12.4352 32.2803 12.0672 21.8645 10.9634C21.3409 10.9068 20.8598 11.2181 20.6899 11.7134C19.7276 14.5438 16.6567 16.525 13.2178 16.525C8.92975 16.525 5.43424 13.539 5.43424 9.85952C5.43424 6.18003 8.92975 3.16569 13.2178 3.16569Z" fill="white"/>
<path d="M27.6812 58.7684C29.1105 60.1978 31.2616 60.9903 33.6533 60.9903C33.7948 60.9903 33.9363 60.9903 34.092 60.9761C39.5263 60.8204 43.8992 56.4475 44.0549 51.0132C44.1115 49.8386 43.9558 48.664 43.5879 47.546L47.4655 43.6825C49.1212 44.4751 51.1166 43.7816 51.9091 42.1117C52.7017 40.4418 52.0082 38.4605 50.3383 37.668C49.942 37.484 49.5175 37.3708 49.0788 37.3425C48.9797 35.5028 47.4089 34.0876 45.5691 34.2008C43.7294 34.2999 42.3142 35.8707 42.4274 37.7105C42.4557 38.1492 42.5548 38.5737 42.7529 38.97L38.8894 42.8476C37.7714 42.4938 36.5968 42.3381 35.4222 42.3947C29.9879 42.5504 25.615 46.9233 25.4593 52.3576C25.3603 54.9333 26.1669 57.2683 27.6812 58.7684ZM44.9747 39.904C45.4134 39.4653 45.3993 38.7719 44.9747 38.3331C44.536 37.8944 44.536 37.201 44.9747 36.7623C45.4134 36.3236 46.1069 36.3236 46.5456 36.7623C46.9843 37.201 46.9843 37.8944 46.5456 38.3331C46.121 38.7719 46.121 39.4794 46.5597 39.904C46.9985 40.3286 47.6919 40.3286 48.1165 39.904C48.5552 39.4653 49.2486 39.4653 49.6873 39.904C50.126 40.3427 50.126 41.0362 49.6873 41.4749C49.2486 41.9136 48.5552 41.9136 48.1165 41.4749C47.6777 41.0362 46.9843 41.0362 46.5456 41.4749L42.5265 45.4657C42.1019 44.8571 41.5783 44.3335 40.9839 43.9231L44.9747 39.904ZM30.0304 46.9799C32.5211 44.4892 37.6441 43.5835 40.248 46.1874C42.8661 48.8055 41.9604 53.9143 39.4555 56.4051C37.9837 57.8486 36.0308 58.6835 33.9787 58.7543C32.0682 58.825 30.2993 58.2448 29.2379 57.1976C26.6339 54.5795 27.5397 49.4707 30.0304 46.9799Z" fill="white"/>
<path d="M16.0057 41.9418L23.7893 46.3855C24.327 46.6969 25.0063 46.4987 25.3035 45.9751C25.4026 45.8053 25.445 45.6213 25.445 45.4232V36.5217C25.445 35.9132 24.9497 35.4037 24.327 35.4037C24.1289 35.4037 23.9449 35.4603 23.7751 35.5452L15.9916 39.9889C15.4538 40.3002 15.2698 40.9795 15.5812 41.5031C15.6944 41.7013 15.8359 41.8428 16.0057 41.9418ZM23.2373 38.4463V43.5127L18.8078 40.9795L23.2373 38.4463Z" fill="white"/>
<path d="M52.8147 60.0987L48.371 56.7589C47.8898 56.4051 47.2105 56.49 46.8426 56.957L42.3989 62.5187C42.0168 62.9998 42.0876 63.6933 42.5687 64.0754C42.5829 64.0895 42.5829 64.0895 42.597 64.1037L47.0407 67.4435C47.5219 67.7973 48.2012 67.7124 48.5691 67.2454L53.0128 61.6837C53.3949 61.2026 53.3241 60.5091 52.843 60.127C52.8288 60.1129 52.8147 60.1129 52.8147 60.0987ZM47.4936 65.0094L44.833 63.014L47.8898 59.193L50.5504 61.1884L47.4936 65.0094Z" fill="white"/>
<path d="M22.6711 58.7684C20.52 58.7684 18.7793 60.5091 18.7793 62.6602C18.7793 64.8113 20.52 66.552 22.6711 66.552C24.8221 66.552 26.5628 64.8113 26.5628 62.6602C26.5628 60.5091 24.8221 58.7684 22.6711 58.7684ZM22.6711 64.3301C21.7512 64.3301 21.0011 63.5801 21.0011 62.6602C21.0011 61.7403 21.7512 60.9903 22.6711 60.9903C23.5909 60.9903 24.341 61.7403 24.341 62.6602C24.341 63.5801 23.5909 64.3301 22.6711 64.3301Z" fill="white"/>
<path d="M33.7946 40.9796C35.9457 40.9796 37.6864 39.2389 37.6864 37.0878C37.6864 34.9367 35.9457 33.196 33.7946 33.196C31.6435 33.196 29.9028 34.9367 29.9028 37.0878C29.9028 39.2389 31.6435 40.9796 33.7946 40.9796ZM33.7946 35.4179C34.7145 35.4179 35.4645 36.1679 35.4645 37.0878C35.4645 38.0077 34.7145 38.7577 33.7946 38.7577C32.8747 38.7577 32.1247 38.0077 32.1247 37.0878C32.1247 36.1679 32.8747 35.4179 33.7946 35.4179Z" fill="white"/>
<path d="M47.6917 51.5369C47.6917 53.688 49.4323 55.4287 51.5834 55.4287C53.7345 55.4287 55.4752 53.688 55.4752 51.5369C55.4752 49.3858 53.7345 47.6451 51.5834 47.6451C49.4323 47.6451 47.6917 49.3858 47.6917 51.5369ZM53.2533 51.5369C53.2533 52.4568 52.5033 53.2068 51.5834 53.2068C50.6635 53.2068 49.9135 52.4568 49.9135 51.5369C49.9135 50.617 50.6635 49.867 51.5834 49.867C52.5033 49.867 53.2533 50.617 53.2533 51.5369Z" fill="white"/>
<path d="M71.0422 26.5162H2.10847C1.49995 26.5162 0.990479 27.0116 0.990479 27.6342V30.9741C0.990479 31.5826 1.48579 32.0921 2.10847 32.0921H10.0335L14.6046 65.1933C15.1848 69.1558 18.5812 72.0994 22.5862 72.1135H49.6163C53.5505 72.1135 56.9045 69.2831 57.5696 65.4055L63.103 32.0779H71.0422C71.6507 32.0779 72.1602 31.5826 72.1602 30.9599V27.6201C72.1602 27.0257 71.6507 26.5162 71.0422 26.5162ZM55.3761 65.0376C54.8949 67.8396 52.4608 69.8917 49.6163 69.8917H22.5862C19.6851 69.8775 17.2368 67.7547 16.8123 64.8819L12.2837 32.0779H60.8387L55.3761 65.0376ZM69.9242 29.8561H3.21232V28.7381H69.9242V29.8561V29.8561Z" fill="white"/>
<path d="M17.6614 48.9329L19.8691 48.6216L20.9729 56.4051L18.7652 56.7164L17.6614 48.9329Z" fill="white"/>
<path d="M30.2141 51.3103L32.436 49.0885L34.0068 50.6594L31.785 52.8812L30.2141 51.3103Z" fill="white"/>
<path d="M13.3732 14.2466C14.4488 14.091 15.4536 13.5957 16.2178 12.8315L14.6611 11.2465C14.2224 11.671 13.6704 11.954 13.0619 12.0531C11.7741 12.2371 10.8259 11.4021 10.6419 11.2323L9.12769 12.8456C9.50979 13.2136 10.8259 14.3033 12.694 14.3033C12.9204 14.2891 13.1468 14.2749 13.3732 14.2466Z" fill="white"/>
<path d="M25.4592 19.8508H27.6811V22.0727H25.4592V19.8508Z" fill="white"/>
<path d="M64.3765 46.5413H66.5983V48.7631H64.3765V46.5413Z" fill="white"/>
<path d="M5.43433 42.0834H7.65617V44.3052H5.43433V42.0834Z" fill="white"/>
</svg>
