<svg width="78" height="78" viewBox="0 0 78 78" fill="none" xmlns="http://www.w3.org/2000/svg">
<path d="M72.2787 52.0348L62.0664 19.1285C61.8057 15.5098 56.6383 12.5043 48.3734 11.1396C47.346 8.65556 44.6166 7.33685 42.0252 8.07287C42.5465 6.06415 43.9112 4.3621 45.7666 3.42674C48.2967 2.24604 51.2561 2.47604 53.5562 4.05542C54.1389 4.46943 54.9362 4.34676 55.3502 3.76408C55.7642 3.1814 55.6416 2.38404 55.0589 1.97003C52.4061 0.0379717 49.002 -0.468043 45.9046 0.589988C42.8225 1.66335 40.4458 4.16276 39.5411 7.30618C35.723 4.22409 31.3989 6.61616 30.2182 11.0016C23.2106 12.0597 16.0804 14.6817 15.7737 19.0979L5.54611 52.0348C2.11134 54.5649 0.286621 57.5243 0.286621 60.5911C0.301955 69.96 17.2611 77.3202 38.9124 77.3202C60.5637 77.3202 77.5229 69.96 77.5229 60.5757C77.5229 57.509 75.6982 54.5649 72.2787 52.0348ZM14.0564 33.2969C15.1604 34.1863 15.8044 35.5203 15.8197 36.931C15.8657 39.6451 14.4704 42.4052 14.087 45.4106C13.8877 46.898 13.995 50.1948 15.7737 52.0042C17.5065 53.7675 20.6345 53.6755 22.3519 50.5628C23.41 48.6154 23.548 46.2693 24.7593 44.8893C25.1427 44.3986 25.7407 44.1379 26.354 44.2146C26.9674 44.2913 27.5041 44.6593 27.7648 45.2113C29.3748 48.0787 25.618 51.9121 26.0014 56.1289C26.1087 57.8617 27.0747 59.4104 28.5928 60.2537C30.1108 61.0971 31.9509 61.0971 33.4689 60.2537C39.2344 57.371 36.3517 49.5967 38.2991 48.8607C38.7591 48.7227 39.2498 48.7841 39.6484 49.0294C42.4852 50.5781 40.7065 55.9909 44.4786 58.8737C45.8893 59.901 47.714 60.1924 49.3854 59.671C51.0568 59.1497 52.3755 57.8617 52.9582 56.2209C54.1389 52.6328 51.3021 49.4434 50.9648 46.6987C50.7654 45.656 51.2101 44.5826 52.0841 43.9846C52.7741 43.8159 53.4948 43.9846 54.0469 44.4446C55.6569 45.5946 56.4849 48.186 59.107 49.6734C60.4104 50.4861 62.0664 50.4554 63.3545 49.6274C64.6425 48.7994 65.3325 47.2967 65.1332 45.7786C65.0105 43.4479 63.3238 41.4852 63.1705 39.8138C63.0938 38.8018 63.4925 37.8051 64.2438 37.1304C64.4278 36.9924 64.6118 36.8697 64.8112 36.7624L71.0673 56.911C70.7453 61.7411 57.6196 67.0312 38.8817 67.0312C20.1439 67.0312 7.01815 61.7411 6.71147 56.911L14.0564 33.2969ZM60.5024 22.7933L64.0598 34.2323C61.7904 35.1983 60.395 37.5291 60.625 39.9978C60.8397 42.3745 62.4804 44.1226 62.5724 45.8706C62.6338 47.2047 61.6677 48.14 60.395 47.404C58.3863 46.2693 57.6196 43.7852 55.5802 42.3285C54.3382 41.3318 52.6668 41.0405 51.1488 41.5618C49.1554 42.5739 48.036 44.7666 48.4194 46.9747C48.8027 50.1488 51.3174 53.0008 50.5201 55.3776C50.1981 56.2363 49.508 56.911 48.634 57.187C47.76 57.463 46.8093 57.325 46.058 56.7883C43.2825 54.6722 45.1379 49.0447 40.9058 46.7293C39.8324 46.116 38.5444 46.0086 37.379 46.4227C32.8402 48.14 36.8577 55.6536 32.3342 57.923C31.3989 58.429 30.2488 58.3217 29.4055 57.6776C27.2127 55.6689 29.9115 51.5288 30.5402 48.6614C31.9509 42.2365 25.9094 39.6911 22.8426 43.1719C21.9226 44.3219 21.2786 45.6713 20.9412 47.1127C20.6039 48.232 19.9752 50.4094 18.7332 50.5474C18.3345 50.6241 17.9205 50.4861 17.6445 50.1948C16.7704 48.8914 16.4178 47.2967 16.6631 45.748C17.0311 42.8806 18.4725 40.1665 18.4111 36.885C18.3958 34.3703 17.0464 32.0396 14.8537 30.8129L17.3378 22.7933C24.56 30.1688 53.1575 30.2915 60.5024 22.7933ZM36.4437 8.53289C37.5937 8.85489 38.5444 9.62158 39.0964 10.6796C39.2498 11.0323 39.5718 11.3083 39.9551 11.4003C40.3384 11.5076 40.7371 11.4156 41.0591 11.1856C42.0558 10.5263 43.2672 10.3116 44.4326 10.6029C46.2113 11.063 46.6253 13.4244 46.1653 15.2031C45.4753 17.5185 43.8346 19.4352 41.6572 20.4932C39.7404 20.6619 37.8237 20.7079 35.907 20.6312C29.8808 15.2797 32.9322 7.64353 36.4437 8.53289ZM29.9268 13.6544C29.9421 16.0618 30.7242 18.4078 32.1502 20.3552C31.4909 20.3706 30.9695 20.8919 30.9235 21.5513C30.8775 22.2106 31.3375 22.778 31.9815 22.9006C37.3637 23.5753 42.8225 23.33 48.1127 22.1646C48.5727 22.0726 48.9407 21.7506 49.094 21.3059C49.2474 20.8612 49.14 20.3706 48.818 20.0332C48.496 19.6959 48.0207 19.5425 47.576 19.6499C47.2387 19.7265 46.9013 19.7879 46.564 19.8492C48.0207 18.1778 48.8334 16.0618 48.8947 13.8537C55.8716 15.1571 59.5057 17.5645 59.5057 19.4199C59.5057 22.1033 51.6701 25.8601 38.9124 25.8601C26.1547 25.8601 18.3191 22.1186 18.3191 19.4199C18.3191 17.4571 22.3673 14.8811 29.9268 13.6544ZM38.9124 74.7441C19.3772 74.7441 2.8627 68.258 2.8627 60.5911C2.9087 59.2724 3.35338 57.9997 4.16607 56.957C4.48808 65.1759 22.2139 69.6073 38.9124 69.6073C55.6109 69.6073 73.3214 65.1759 73.6588 56.957C74.4714 57.9997 74.9161 59.2724 74.9621 60.5911C74.9621 68.258 58.4476 74.7441 38.9124 74.7441Z" fill="#303844"/>
</svg>
