<svg width="78" height="78" viewBox="0 0 78 78" fill="none" xmlns="http://www.w3.org/2000/svg">
<path d="M17.242 29.6249C17.7173 29.2109 17.748 28.4902 17.334 28.0148C16.92 27.5395 16.1993 27.5088 15.7239 27.9228C15.2486 28.3368 15.2179 29.0575 15.6319 29.5329C16.0613 30.0082 16.782 30.0542 17.242 29.6249ZM11.4918 34.3017C11.6758 33.7037 11.3385 33.0596 10.7405 32.8756C10.1424 32.6916 9.49843 33.029 9.31442 33.627C9.13042 34.225 9.46776 34.869 10.0658 35.053C10.6791 35.237 11.3078 34.8997 11.4918 34.3017ZM54.3497 31.2502C53.7364 31.3729 53.3224 31.9709 53.445 32.5843C53.5677 33.1976 54.1657 33.6116 54.7791 33.489C55.3924 33.3663 55.8064 32.7683 55.6838 32.1549C55.5611 31.5416 54.9631 31.1276 54.3497 31.2502ZM21.1214 29.1649C21.5968 28.7508 21.6274 28.0302 21.2134 27.5548C20.7994 27.0795 20.0787 27.0488 19.6034 27.4628C19.128 27.8768 19.0974 28.5975 19.5114 29.0728C19.9254 29.5482 20.6461 29.5789 21.1214 29.1649ZM23.3908 24.166C23.8662 23.752 23.8969 23.0313 23.4828 22.556C23.0688 22.0806 22.3481 22.05 21.8728 22.464C21.3974 22.878 21.3668 23.5987 21.7808 24.074C22.1948 24.5494 22.9155 24.5954 23.3908 24.166ZM18.346 24.7181C18.8214 24.304 18.852 23.5834 18.438 23.108C18.024 22.6327 17.3033 22.602 16.828 23.016C16.3526 23.43 16.322 24.1507 16.736 24.6261C17.15 25.0861 17.8707 25.1321 18.346 24.7181ZM59.3332 53.1315C58.8885 53.5762 58.8885 54.2969 59.3332 54.7416C59.7779 55.1863 60.4986 55.1863 60.9433 54.7416C61.3879 54.2969 61.3879 53.5762 60.9433 53.1315C60.4986 52.6869 59.7779 52.6869 59.3332 53.1315ZM64.93 38.4265C65.0834 37.8131 64.7 37.1998 64.0867 37.0464C63.4733 36.8931 62.86 37.2764 62.7066 37.8898C62.5533 38.5031 62.9367 39.1165 63.55 39.2698C64.1634 39.4078 64.7767 39.0398 64.93 38.4265ZM62.1393 45.0353C61.5259 44.882 60.9126 45.2653 60.7593 45.8787C60.6059 46.492 60.9893 47.1054 61.6026 47.2587C62.216 47.4121 62.8293 47.0287 62.9827 46.4154C63.136 45.802 62.7526 45.1887 62.1393 45.0353ZM65.9727 41.7692C65.3594 41.6159 64.746 41.9992 64.5927 42.6126C64.4394 43.2259 64.8227 43.8393 65.4361 43.9926C66.0494 44.146 66.6628 43.7626 66.8161 43.1493C66.9541 42.5359 66.5861 41.9072 65.9727 41.7692ZM66.5401 11.3777C59.1952 4.03278 49.4276 0 39.0466 0C28.6657 0 18.898 4.03278 11.5532 11.3777C4.20827 18.7225 0.160156 28.4902 0.160156 38.8711C0.160156 49.2521 4.20827 59.0197 11.5532 66.3646C18.898 73.7095 28.6657 77.7576 39.0466 77.7576C49.4276 77.7576 59.1952 73.7095 66.5401 66.3646C73.885 59.0197 77.9331 49.2521 77.9331 38.8711C77.9331 28.4902 73.885 18.7225 66.5401 11.3777ZM64.93 64.7546C58.0145 71.6701 48.8296 75.4729 39.0466 75.4729C29.2637 75.4729 20.0787 71.6701 13.1632 64.7546C6.24767 57.839 2.44489 48.6541 2.44489 38.8711C2.44489 29.0882 6.24767 19.9032 13.1632 12.9877C20.0787 6.07218 29.2637 2.2694 39.0466 2.2694C48.8296 2.2694 58.0145 6.07218 64.93 12.9877C71.8456 19.9032 75.6484 29.0882 75.6484 38.8711C75.6484 48.6541 71.8456 57.839 64.93 64.7546ZM69.7449 37.1538C69.1162 36.1264 68.3188 35.237 67.3835 34.5317C66.3714 27.9075 63.0593 21.82 57.9838 17.3578C52.755 12.7424 46.0235 10.197 39.0313 10.197C31.8857 10.197 25.0776 12.819 19.8027 17.6032C17.6253 17.6798 15.5706 18.5079 13.9299 19.9799C11.9672 21.728 10.9091 24.12 10.7865 26.5581C8.14906 27.6008 6.10966 29.7935 5.2663 32.5383C3.8096 37.2764 6.27834 42.2906 10.8325 44.0693C11.3845 47.1207 12.4425 50.0495 13.9452 52.7635C13.2092 56.9803 14.4206 61.3505 17.61 64.5399C21.7501 68.68 28.0216 69.554 33.0971 66.9473C35.0445 67.3613 37.0379 67.576 39.0466 67.576C40.1507 67.576 41.27 67.5146 42.3741 67.392C43.0027 67.3153 43.4474 66.7479 43.3707 66.1346C43.2941 65.5059 42.7267 65.0612 42.1134 65.1379C41.1013 65.2606 40.074 65.3066 39.0466 65.3066C37.9579 65.3066 36.8692 65.2452 35.7959 65.1072C36.1485 64.7699 36.3632 64.2945 36.3785 63.7885C36.3939 63.2672 36.1945 62.7612 35.8265 62.3778L19.7721 46.308C19.4041 45.94 18.8827 45.7407 18.3614 45.756C17.84 45.7713 17.334 46.0167 16.9966 46.4C16.138 47.3814 15.4326 48.4701 14.9113 49.6201C14.2059 48.0254 13.6539 46.3694 13.2705 44.6673C13.6079 44.698 13.9452 44.7286 14.2826 44.7286C17.2573 44.7286 20.0941 43.3179 21.8881 40.8339L23.5288 41.2632L25.9056 48.5774C26.1356 49.2828 26.7643 49.7735 27.5003 49.8195C28.2363 49.8655 28.9263 49.4668 29.2483 48.7921L32.4838 41.9686C33.9865 41.7386 35.4432 41.3399 36.8232 40.7725C36.3172 42.7352 36.1179 44.7746 36.2559 46.814L30.2757 51.4295C29.693 51.8895 29.4477 52.6409 29.647 53.3462C29.8464 54.0669 30.4597 54.5729 31.2111 54.6496L38.8626 55.4163L42.3741 62.2551C42.6807 62.8685 43.3094 63.2365 43.9841 63.2365C44.7815 63.2365 45.5021 62.6998 45.7168 61.9331L47.8175 54.6803C48.0015 54.6189 48.1702 54.5576 48.3542 54.4963C48.8296 55.7383 49.5503 56.873 50.501 57.8084C51.6817 58.9891 53.1077 59.7864 54.6104 60.2158C52.3257 61.8871 49.7956 63.1752 47.0662 64.0492C46.4682 64.2332 46.1308 64.8772 46.3302 65.4752C46.5295 66.0886 47.1735 66.3953 47.7562 66.2113C51.4823 65.0306 54.8864 63.1138 57.8458 60.5378C60.0232 60.3844 62.1546 59.4797 63.8107 57.8084C65.8347 55.7843 66.8161 52.9629 66.5094 50.1415C68.7022 48.8381 70.2509 46.7527 70.8489 44.284C71.4469 41.8306 71.0636 39.3005 69.7449 37.1538ZM33.9251 63.6812C32.3918 64.9232 30.613 65.6899 28.773 65.9813L28.2976 58.0537L33.9251 63.6812ZM26.5036 66.1193C24.2035 66.0119 21.9341 65.1992 20.0634 63.6812L26.0129 57.7317L26.5036 66.1193ZM18.4534 48.2094L24.0655 53.8216L16.138 53.3462C16.4446 51.5062 17.2113 49.7275 18.4534 48.2094ZM24.4029 56.1216L18.4534 62.0711C16.9353 60.2004 16.1226 57.931 16.0153 55.631L24.4029 56.1216ZM39.0466 12.4817C45.4715 12.4817 51.6817 14.8278 56.4965 19.0752C60.7133 22.8013 63.6267 27.7388 64.8227 33.167C63.5653 32.7376 62.216 32.5536 60.9126 32.6763C60.5906 30.9129 60.0079 29.1802 59.1799 27.5241C58.8425 26.8341 58.1525 26.3741 57.3858 26.2974C54.3037 26.0214 51.1756 26.4968 48.3236 27.6468C49.2129 24.1814 49.1516 20.4706 48.0322 16.9438C47.8022 16.2078 47.1889 15.6405 46.4528 15.4411C39.5833 13.6931 32.2691 15.9011 27.4543 21.0226C26.2583 19.5659 24.6789 18.5232 22.9002 18.0019C27.5003 14.4138 33.1585 12.4817 39.0466 12.4817ZM58.6585 39.4385C56.3125 39.3312 53.7364 38.4265 51.467 36.8931C49.4123 35.4824 47.7409 33.673 46.7442 31.7256C46.9282 31.3729 47.0969 31.0202 47.2502 30.6676C50.2403 28.9962 53.7364 28.2448 57.1558 28.5515C58.8732 31.9709 59.3485 35.8044 58.6585 39.4385ZM15.4633 21.6666C18.576 18.8912 23.4828 19.3972 25.9669 22.786C23.9122 25.5767 22.6701 28.8428 22.3328 32.3389L19.174 34.0563C17.5027 33.811 15.9846 32.9983 14.8653 31.7256C12.2432 28.8122 12.5192 24.2887 15.4633 21.6666ZM12.1665 42.1219C8.40973 40.9565 6.29367 36.9544 7.4437 33.1976C8.01105 31.3422 9.29909 29.8395 10.9858 28.9655C11.3078 30.5142 12.0285 32.0016 13.1479 33.2743C14.0526 34.2863 15.1413 35.0837 16.3526 35.6204C15.4326 35.973 14.6352 36.7397 14.7732 37.7824C14.8653 38.5185 15.3866 39.1165 16.1073 39.3158L19.4807 40.2052C17.656 42.1526 14.8346 42.9346 12.1665 42.1219ZM32.1311 39.6992C31.3951 39.8065 30.751 40.2818 30.4444 40.9565L27.715 46.722L25.6296 40.2972C25.4456 39.7145 24.9702 39.2698 24.3722 39.1165L17.84 37.3991L23.4368 34.3477C24.0962 33.995 24.5255 33.3356 24.6022 32.5843C24.9702 28.7662 26.5496 25.2701 29.2023 22.464C30.291 21.314 31.5177 20.3326 32.8364 19.5506C33.1585 20.6086 33.6338 21.6666 34.2318 22.7093C34.5538 23.2613 35.2592 23.43 35.7959 23.1233C36.3325 22.8013 36.5166 22.1113 36.2099 21.5593C35.6272 20.5626 35.1825 19.5046 34.9065 18.4925C38.3106 17.0358 42.1594 16.6985 45.8702 17.6338C47.0202 21.2833 46.8975 25.1474 45.6248 28.6282C43.4781 28.1988 41.2854 27.0488 39.3533 25.3621C38.878 24.9481 38.1573 24.9941 37.7433 25.4694C37.3292 25.9448 37.3752 26.6654 37.8506 27.0795C39.9207 28.9042 42.3127 30.1769 44.6895 30.7596C43.9688 32.1243 43.0641 33.397 41.9754 34.547C39.338 37.3378 35.9492 39.1165 32.1311 39.6992ZM47.0969 52.5029C46.3915 52.7329 45.8395 53.3002 45.6248 54.0209L43.8461 60.1391L40.764 54.1282C40.488 53.5762 39.9513 53.2236 39.338 53.1622L32.6218 52.4875L37.6666 48.5928C38.2646 48.1327 38.5866 47.412 38.5406 46.676C38.3873 44.1766 38.7859 41.6465 39.6906 39.3311C41.132 38.4418 42.4507 37.3684 43.6468 36.1111C44.2908 35.421 44.8888 34.7003 45.4101 33.9337C46.5908 35.7584 48.2316 37.4298 50.1943 38.7638C52.6937 40.4659 55.4384 41.4779 58.0758 41.6772C57.5852 43.1339 56.8951 44.5446 56.0058 45.848C53.8284 49.0374 50.7463 51.3375 47.0969 52.5029ZM62.2006 56.1983C59.4099 58.9891 54.8864 58.9891 52.111 56.1983C51.375 55.4623 50.8076 54.5729 50.455 53.6069C52.5404 52.5795 54.3957 51.1995 55.9904 49.5128C58.3212 51.3068 61.4799 51.9202 64.3014 51.0922C64.3014 52.9935 63.5653 54.8336 62.2006 56.1983ZM68.6408 43.7319C68.1961 45.5873 67.0461 47.1514 65.4054 48.1327C62.9367 49.6354 59.7166 49.4668 57.4318 47.7494C58.9499 45.6947 60.0386 43.3639 60.6519 40.9719C61.1119 39.1165 61.3266 36.7857 61.2039 34.915C63.8567 34.7157 66.4174 36.0497 67.8128 38.3344C68.7942 39.9598 69.0855 41.8766 68.6408 43.7319ZM48.5076 46.7527L43.9688 43.2413C43.4781 42.8579 42.7574 42.9499 42.3741 43.4406C41.9907 43.9313 42.0827 44.652 42.5734 45.0353L47.1122 48.5467C47.6029 48.9301 48.3236 48.8381 48.7069 48.3474C49.0902 47.8567 48.9982 47.136 48.5076 46.7527ZM30.015 30.4529C29.5703 30.0082 28.8497 30.0082 28.405 30.4529C27.9603 30.8976 27.9603 31.6183 28.405 32.0629L32.4531 36.1264C32.8978 36.5711 33.6185 36.5711 34.0631 36.1264C34.5078 35.6817 34.5078 34.961 34.0631 34.5163L30.015 30.4529ZM42.7267 22.142C43.3554 22.1266 43.8461 21.6053 43.8308 20.9766C43.8154 20.3479 43.2941 19.8572 42.6654 19.8726C42.0367 19.8879 41.546 20.4093 41.5614 21.0379C41.5767 21.6666 42.098 22.1573 42.7267 22.142ZM54.3497 53.9442C53.9051 54.3889 53.9051 55.1096 54.3497 55.5543C54.7944 55.999 55.5151 55.999 55.9598 55.5543C56.4045 55.1096 56.4045 54.3889 55.9598 53.9442C55.5304 53.4996 54.7944 53.4996 54.3497 53.9442ZM33.1585 27.3248C32.7138 26.8801 31.9931 26.8801 31.5484 27.3248C31.1037 27.7695 31.1037 28.4902 31.5484 28.9348L35.5965 32.9983C36.0412 33.443 36.7619 33.443 37.2066 32.9983C37.6513 32.5536 37.6513 31.8329 37.2066 31.3883L33.1585 27.3248ZM12.3505 37.6444C11.7525 37.4604 11.1085 37.7978 10.9245 38.3958C10.7405 38.9938 11.0778 39.6378 11.6758 39.8218C12.2738 40.0058 12.9179 39.6685 13.1019 39.0705C13.3012 38.4725 12.9639 37.8284 12.3505 37.6444ZM51.2216 43.2413L46.6828 39.7298C46.1922 39.3465 45.4715 39.4385 45.0881 39.9292C44.7048 40.4198 44.7968 41.1405 45.2875 41.5239L49.8263 45.0353C50.317 45.4187 51.0376 45.3267 51.421 44.836C51.8043 44.3453 51.7123 43.6246 51.2216 43.2413Z" fill="white"/>
</svg>
