<svg width="537" height="428" viewBox="0 0 537 428" fill="none" xmlns="http://www.w3.org/2000/svg">
<path d="M270.324 426.475C218.541 421.336 168.485 401.511 121.881 369.938C25.2209 304.59 -36.0551 183.439 23.4946 90.189C75.2769 10.89 194.376 -14.8088 302.256 7.95298C492.125 48.3367 631.074 267.143 458.466 378.749C397.191 418.399 332.462 433.084 270.324 426.475Z" fill="#D7F0FF"/>
<path d="M209.758 167.526L209.764 167.521L209.77 167.515C215.092 162.434 221.86 158.069 228.904 155.091L228.911 155.088C261.048 140.933 298.866 145.728 331.506 153.061L331.511 153.062C342.09 155.314 352.726 158.571 362.773 161.666C396.405 172.572 430.165 188.464 447.993 217.994C461.887 241.517 464.289 271.088 456.294 297.818L456.293 297.822C450.197 318.83 437.989 338.154 421.293 352.292C400.373 369.863 373.108 378.158 345.734 381.832C314.351 385.719 281.681 383.632 253.061 370.493C219.499 355.008 194.184 325.017 183.452 289.825C177.587 270.442 175.622 248.843 178.547 228.599C182.37 206.286 192.366 183.083 209.758 167.526Z" stroke="white"/>
</svg>