<svg width="296" height="295" viewBox="0 0 296 295" fill="none" xmlns="http://www.w3.org/2000/svg">
<path d="M200.57 293.029C192.666 295 183.775 295.493 175.377 294.507C136.846 290.566 103.255 265.442 76.0862 240.81C67.1945 232.928 58.7968 224.061 50.8931 215.686C24.712 187.113 1.00077 153.614 0.012806 115.681C-0.481177 85.6304 13.3504 56.0724 35.5796 34.8891C52.869 18.1395 75.0983 6.31626 98.8095 1.88255C128.448 -3.53642 159.075 3.36045 187.232 14.691C219.341 27.9922 249.474 47.6975 269.728 75.7777C293.439 108.784 301.343 151.151 292.451 190.562C287.511 212.237 277.631 233.913 263.8 251.648C247.992 270.861 225.763 287.61 200.57 293.029Z" fill="#8DC63F"/>
</svg>