<svg width="261" height="265" viewBox="0 0 261 265" fill="none" xmlns="http://www.w3.org/2000/svg">
<path d="M1.97333 134.201C3.45332 125.322 5.42665 116.936 8.38663 109.043C20.7199 74.5123 41.9331 41.4614 73.0128 20.7429C98.1727 3.47752 130.732 -4.41522 160.332 2.49094C180.559 7.42391 199.305 19.263 213.612 34.062C227.918 48.8609 238.278 67.1128 246.665 86.3514C255.052 106.577 260.972 128.282 260.972 150.48C261.465 172.678 255.545 194.877 243.212 213.129C231.372 230.394 214.105 243.713 194.372 252.099C175.132 260.485 153.426 263.938 132.212 264.925C64.1329 266.898 4.9333 229.901 0 160.346C0.49333 151.467 0.986667 142.587 1.97333 134.201Z" fill="#FDB814"/>
</svg>