<svg width="86" height="86" viewBox="0 0 86 86" fill="none" xmlns="http://www.w3.org/2000/svg">
<path d="M53.75 10.7495V25.0828C53.75 26.0332 54.1275 26.9446 54.7995 27.6166C55.4715 28.2887 56.383 28.6662 57.3333 28.6662H71.6667" stroke="#303844" stroke-width="3" stroke-linecap="round" stroke-linejoin="round"/>
<path d="M64.5 60.9162H39.4167C37.5159 60.9162 35.6931 60.1611 34.3491 58.8171C33.0051 57.4731 32.25 55.6502 32.25 53.7495V17.9162C32.25 16.0155 33.0051 14.1926 34.3491 12.8486C35.6931 11.5046 37.5159 10.7495 39.4167 10.7495H53.75L71.6667 28.6662V53.7495C71.6667 55.6502 70.9116 57.4731 69.5676 58.8171C68.2236 60.1611 66.4007 60.9162 64.5 60.9162Z" stroke="#303844" stroke-width="3" stroke-linecap="round" stroke-linejoin="round"/>
<path d="M57.3332 60.9162V68.0829C57.3332 69.9836 56.5781 71.8065 55.2341 73.1505C53.8901 74.4945 52.0672 75.2496 50.1665 75.2496H25.0832C23.1825 75.2496 21.3596 74.4945 20.0156 73.1505C18.6716 71.8065 17.9165 69.9836 17.9165 68.0829V32.2496C17.9165 30.3488 18.6716 28.526 20.0156 27.182C21.3596 25.8379 23.1825 25.0829 25.0832 25.0829H32.2498" stroke="#303844" stroke-width="3" stroke-linecap="round" stroke-linejoin="round"/>
</svg>