<svg width="21" height="21" viewBox="0 0 21 21" fill="none" xmlns="http://www.w3.org/2000/svg">
<path d="M1.88659 1H19.1134C19.3043 1.06855 19.4772 1.18092 19.6191 1.32852C19.761 1.47611 19.868 1.65501 19.932 1.8515C19.996 2.048 20.0151 2.25688 19.9881 2.46214C19.9611 2.6674 19.8885 2.86361 19.776 3.03571L13.1503 10.5V20L7.84972 15.9286V10.5L1.22402 3.03571C1.1115 2.86361 1.03894 2.6674 1.0119 2.46214C0.984858 2.25688 1.00405 2.048 1.068 1.8515C1.13196 1.65501 1.23898 1.47611 1.38086 1.32852C1.52275 1.18092 1.69574 1.06855 1.88659 1Z" stroke="#303844" stroke-width="1.5" stroke-linecap="round" stroke-linejoin="round"/>
</svg>