<svg width="205" height="60" viewBox="0 0 205 60" fill="none" xmlns="http://www.w3.org/2000/svg">
<g clip-path="url(#clip0_1624_630)">
<path d="M197.037 0.758789H8.52223C4.7041 0.758789 1.60889 3.854 1.60889 7.67214V52.3372C1.60889 56.1554 4.7041 59.2506 8.52223 59.2506H197.037C200.856 59.2506 203.951 56.1554 203.951 52.3372V7.67214C203.951 3.854 200.856 0.758789 197.037 0.758789Z" fill="black"/>
<path d="M197.028 60H8.52223C6.48746 60 4.53602 59.1917 3.09721 57.7529C1.65841 56.3141 0.850098 54.3626 0.850098 52.3279V7.67213C0.850098 5.63736 1.65841 3.68592 3.09721 2.24712C4.53602 0.808312 6.48746 0 8.52223 0H197.028C199.063 0 201.014 0.808312 202.453 2.24712C203.892 3.68592 204.7 5.63736 204.7 7.67213V52.3279C204.7 54.3626 203.892 56.3141 202.453 57.7529C201.014 59.1917 199.063 60 197.028 60ZM8.52223 1.5082C6.88821 1.51067 5.32183 2.16088 4.16641 3.31631C3.01098 4.47174 2.36077 6.03812 2.35829 7.67213V52.3279C2.36818 53.957 3.02166 55.5162 4.17628 56.6656C5.33091 57.8149 6.89306 58.4613 8.52223 58.4637H197.028C198.662 58.4612 200.228 57.811 201.384 56.6556C202.539 55.5002 203.19 53.9338 203.192 52.2998V7.67213C203.19 6.03812 202.539 4.47174 201.384 3.31631C200.228 2.16088 198.662 1.51067 197.028 1.5082H8.52223Z" fill="#A7A9AC"/>
<path d="M103.688 27.1943C102.422 27.198 101.185 27.5769 100.134 28.2832C99.0825 28.9895 98.2642 29.9915 97.7821 31.1627C97.3 32.3338 97.1758 33.6215 97.4251 34.8632C97.6745 36.1049 98.2862 37.2449 99.183 38.1391C100.08 39.0333 101.222 39.6417 102.464 39.8875C103.706 40.1332 104.994 40.0052 106.164 39.5197C107.333 39.0342 108.333 38.2129 109.036 37.1596C109.739 36.1063 110.115 34.8682 110.115 33.6018C110.127 32.7552 109.97 31.9148 109.651 31.1304C109.332 30.346 108.859 29.6338 108.26 29.036C107.66 28.4382 106.946 27.9671 106.161 27.6507C105.376 27.3343 104.535 27.1791 103.688 27.1943ZM103.688 37.4987C102.907 37.5552 102.127 37.375 101.45 36.9817C100.773 36.5884 100.23 36.0003 99.8922 35.2939C99.5542 34.5875 99.4368 33.7956 99.5555 33.0216C99.6741 32.2475 100.023 31.5272 100.557 30.9544C101.091 30.3816 101.785 29.9831 102.549 29.8106C103.313 29.6382 104.111 29.6998 104.84 29.9876C105.568 30.2754 106.193 30.7759 106.632 31.4239C107.072 32.0719 107.306 32.8374 107.304 33.6205C107.335 34.6113 106.971 35.5737 106.294 36.297C105.616 37.0204 104.679 37.4458 103.688 37.48V37.4987ZM89.6369 27.1943C88.3705 27.198 87.1335 27.5769 86.0823 28.2832C85.031 28.9895 84.2127 29.9915 83.7306 31.1627C83.2485 32.3338 83.1243 33.6215 83.3736 34.8632C83.6229 36.1049 84.2347 37.2449 85.1315 38.1391C86.0284 39.0333 87.1701 39.6417 88.4125 39.8875C89.6549 40.1332 90.9423 40.0052 92.112 39.5197C93.2818 39.0342 94.2814 38.2129 94.9846 37.1596C95.6878 36.1063 96.0632 34.8682 96.0632 33.6018C96.0758 32.7568 95.9187 31.9179 95.6012 31.1348C95.2836 30.3517 94.8121 29.6404 94.2146 29.0428C93.6171 28.4453 92.9057 27.9738 92.1226 27.6563C91.3395 27.3387 90.5006 27.1816 89.6557 27.1943H89.6369ZM89.6369 37.4987C88.8559 37.5552 88.0759 37.375 87.3988 36.9817C86.7216 36.5884 86.1786 36.0003 85.8406 35.2939C85.5026 34.5875 85.3853 33.7956 85.5039 33.0216C85.6226 32.2475 85.9716 31.5272 86.5057 30.9544C87.0397 30.3816 87.7339 29.9831 88.4977 29.8106C89.2616 29.6382 90.0597 29.6998 90.788 29.9876C91.5163 30.2754 92.141 30.7759 92.5807 31.4239C93.0204 32.0719 93.2546 32.8374 93.2529 33.6205C93.2833 34.6081 92.9224 35.5678 92.2487 36.2906C91.575 37.0135 90.643 37.4409 89.6557 37.48L89.6369 37.4987ZM72.9437 29.1802V31.8968H79.4449C79.3503 33.1706 78.8288 34.3753 77.9648 35.316C77.3137 35.9809 76.5305 36.502 75.6657 36.8457C74.8009 37.1894 73.8736 37.348 72.9437 37.3114C71.0695 37.2439 69.2946 36.452 67.9926 35.1022C66.6905 33.7525 65.9629 31.9502 65.9629 30.0748C65.9629 28.1994 66.6905 26.3972 67.9926 25.0474C69.2946 23.6977 71.0695 22.9057 72.9437 22.8383C74.7701 22.8151 76.5315 23.5156 77.843 24.7868L79.7166 22.9132C78.8198 22.0247 77.7547 21.3243 76.5836 20.8529C75.4125 20.3816 74.1591 20.1489 72.8969 20.1685C71.5641 20.1276 70.2367 20.3548 68.9934 20.8366C67.7501 21.3184 66.6163 22.045 65.6591 22.9732C64.7019 23.9015 63.9409 25.0126 63.4212 26.2405C62.9015 27.4685 62.6337 28.7883 62.6337 30.1217C62.6337 31.455 62.9015 32.7749 63.4212 34.0028C63.9409 35.2307 64.7019 36.3418 65.6591 37.2701C66.6163 38.1984 67.7501 38.9249 68.9934 39.4067C70.2367 39.8885 71.5641 40.1157 72.8969 40.0748C74.187 40.1247 75.4729 39.9 76.6696 39.4155C77.8662 38.931 78.9463 38.1978 79.8383 37.2645C81.4238 35.5334 82.2679 33.25 82.1896 30.9039C82.1954 30.3355 82.1483 29.7679 82.0491 29.2083L72.9437 29.1802ZM141.225 31.2973C140.839 30.1367 140.105 29.1231 139.123 28.3941C138.141 27.6651 136.958 27.256 135.735 27.2224C134.912 27.2276 134.099 27.3996 133.344 27.7282C132.589 28.0567 131.909 28.5349 131.344 29.1338C130.779 29.7327 130.342 30.44 130.058 31.2127C129.774 31.9855 129.65 32.8078 129.693 33.6299C129.675 34.4722 129.828 35.3095 130.14 36.0918C130.453 36.8741 130.92 37.5854 131.514 38.1833C132.107 38.7813 132.815 39.2536 133.595 39.5721C134.375 39.8906 135.211 40.0489 136.054 40.0374C137.107 40.0467 138.146 39.795 139.077 39.3045C140.009 38.8141 140.805 38.1003 141.393 37.227L139.211 35.7657C138.883 36.309 138.42 36.7578 137.866 37.0681C137.313 37.3785 136.688 37.5398 136.054 37.5362C135.401 37.5633 134.754 37.3927 134.199 37.0467C133.645 36.7008 133.207 36.1956 132.944 35.5971L141.515 32.0561L141.225 31.2973ZM132.503 33.405C132.472 32.9375 132.534 32.4684 132.686 32.0253C132.839 31.5821 133.078 31.174 133.391 30.8248C133.703 30.4757 134.082 30.1925 134.506 29.9922C134.93 29.7918 135.389 29.6781 135.857 29.658C136.343 29.6271 136.827 29.7393 137.25 29.9807C137.673 30.2221 138.016 30.5821 138.236 31.0163L132.503 33.405ZM125.534 39.6158H128.344V20.7868H125.534V39.6158ZM120.925 28.6275H120.831C120.404 28.1619 119.882 27.7931 119.3 27.5459C118.719 27.2987 118.091 27.1788 117.459 27.1943C115.819 27.2829 114.276 27.9967 113.147 29.1886C112.018 30.3805 111.389 31.9599 111.389 33.6018C111.389 35.2436 112.018 36.823 113.147 38.0149C114.276 39.2068 115.819 39.9206 117.459 40.0093C118.093 40.0249 118.724 39.9023 119.306 39.6499C119.888 39.3976 120.409 39.0215 120.831 38.5479H120.925V39.4847C120.925 41.939 119.614 43.2317 117.506 43.2317C116.801 43.2134 116.118 42.9864 115.543 42.5795C114.968 42.1726 114.526 41.6041 114.274 40.946L111.82 41.9671C112.29 43.0841 113.082 44.0364 114.094 44.7034C115.106 45.3705 116.294 45.7222 117.506 45.7142C120.803 45.7142 123.595 43.7751 123.595 39.035V27.5502H120.925V28.6275ZM117.703 37.48C116.73 37.3971 115.823 36.9522 115.163 36.2331C114.503 35.5141 114.136 34.5734 114.136 33.5971C114.136 32.6208 114.503 31.68 115.163 30.961C115.823 30.242 116.73 29.797 117.703 29.7142C119.576 29.7142 121.122 31.3629 121.122 33.6205C121.16 34.1019 121.1 34.5861 120.947 35.0438C120.793 35.5016 120.548 35.9235 120.227 36.2841C119.905 36.6447 119.514 36.9365 119.077 37.1421C118.64 37.3476 118.166 37.4625 117.684 37.48H117.703ZM154.433 20.7868H147.679V39.6158H150.489V32.487H154.414C155.202 32.5185 155.989 32.3906 156.726 32.1108C157.463 31.831 158.136 31.4052 158.705 30.8588C159.274 30.3125 159.726 29.6569 160.035 28.9314C160.344 28.2059 160.503 27.4255 160.503 26.6369C160.503 25.8483 160.344 25.0679 160.035 24.3424C159.726 23.6169 159.274 22.9613 158.705 22.4149C158.136 21.8686 157.463 21.4428 156.726 21.163C155.989 20.8832 155.202 20.7552 154.414 20.7868H154.433ZM154.508 29.8641H150.489V23.4097H154.489C154.928 23.3861 155.366 23.452 155.779 23.6035C156.191 23.7551 156.568 23.9889 156.886 24.2909C157.205 24.5929 157.459 24.9567 157.632 25.36C157.806 25.7634 157.895 26.1978 157.895 26.6369C157.895 27.0759 157.806 27.5104 157.632 27.9137C157.459 28.3171 157.205 28.6808 156.886 28.9828C156.568 29.2848 156.191 29.5187 155.779 29.6702C155.366 29.8217 154.928 29.8877 154.489 29.8641H154.508ZM171.848 27.1568C170.822 27.0973 169.801 27.3387 168.911 27.8513C168.021 28.3638 167.3 29.1253 166.836 30.042L169.328 31.0819C169.577 30.6269 169.953 30.2543 170.411 30.0098C170.868 29.7652 171.387 29.6592 171.904 29.7048C173.356 29.7048 174.836 30.576 174.855 32.1217V32.3184C173.952 31.8371 172.945 31.5862 171.923 31.5877C169.234 31.5877 166.499 33.0678 166.499 35.8313C166.499 38.3512 168.7 39.9811 171.183 39.9811C171.894 40.0191 172.602 39.8653 173.233 39.5357C173.864 39.2061 174.395 38.7128 174.77 38.1076H174.864V39.5596H177.581V32.3371C177.581 29.021 175.08 27.1568 171.848 27.1568ZM171.51 37.4612C170.574 37.4612 169.309 37.0022 169.309 35.8594C169.309 34.4074 170.911 33.8547 172.288 33.8547C173.185 33.8287 174.071 34.0455 174.855 34.4823C174.755 35.3007 174.362 36.0553 173.749 36.6064C173.136 37.1576 172.344 37.4679 171.52 37.48L171.51 37.4612ZM187.436 27.5502L184.213 35.7189H184.119L180.803 27.5502H177.777L182.789 38.9601L179.932 45.3488H182.864L190.583 27.5502H187.436ZM162.143 39.5971H164.953V20.768H162.143V39.5971Z" fill="white"/>
<path d="M16.747 11.4099C16.2534 12.0008 16.0053 12.7586 16.0538 13.527V46.8198C16.0053 47.5882 16.2534 48.3459 16.747 48.9369L16.8594 49.0493L35.5105 30.3607V29.9205L16.8594 11.3069L16.747 11.4099Z" fill="#5BC9F4"/>
<path d="M41.7213 36.6089L35.5105 30.3606V29.9203L41.7306 23.7002L41.8712 23.7751L49.2342 27.9625C51.3419 29.1616 51.3419 31.11 49.2342 32.3091L41.8712 36.4965L41.7213 36.6089Z" fill="url(#paint0_linear_1624_630)"/>
<path d="M41.8712 36.534L35.5105 30.1733L16.7751 48.9087C17.4684 49.6394 18.6487 49.733 19.904 49.0024L41.8993 36.5059" fill="url(#paint1_linear_1624_630)"/>
<path d="M41.8712 23.8033L19.8759 11.3162C18.5831 10.5855 17.4403 10.6792 16.7471 11.4098L35.4824 30.1452L41.8712 23.8033Z" fill="url(#paint2_linear_1624_630)"/>
</g>
<defs>
<linearGradient id="paint0_linear_1624_630" x1="47.8665" y1="30.1733" x2="11.4356" y2="30.1733" gradientUnits="userSpaceOnUse">
<stop stop-color="#FEE000"/>
<stop offset="0.42" stop-color="#FBBC0E"/>
<stop offset="0.78" stop-color="#FAA418"/>
<stop offset="1" stop-color="#F99B1C"/>
</linearGradient>
<linearGradient id="paint1_linear_1624_630" x1="38.4145" y1="33.63" x2="4.14752" y2="67.8876" gradientUnits="userSpaceOnUse">
<stop stop-color="#EF4547"/>
<stop offset="1" stop-color="#C6186D"/>
</linearGradient>
<linearGradient id="paint2_linear_1624_630" x1="3.99766" y1="-7.69086" x2="31.9695" y2="20.281" gradientUnits="userSpaceOnUse">
<stop stop-color="#279E6F"/>
<stop offset="0.04" stop-color="#2BA06F"/>
<stop offset="0.46" stop-color="#53B26C"/>
<stop offset="0.8" stop-color="#6BBD6A"/>
<stop offset="1" stop-color="#74C169"/>
</linearGradient>
<clipPath id="clip0_1624_630">
<rect width="203.85" height="60" fill="white" transform="translate(0.850098)"/>
</clipPath>
</defs>
</svg>