<svg width="65" height="65" viewBox="0 0 65 65" fill="none" xmlns="http://www.w3.org/2000/svg">
<g clip-path="url(#clip0_1032_2663)">
<path d="M46.432 26.6547L45.5898 13.3505C45.2812 8.47463 41.2366 4.6781 36.3511 4.6781H28.6493C23.7638 4.6781 19.7192 8.47476 19.4106 13.3505L18.5684 26.6547C18.3763 29.69 20.7862 32.2574 23.8275 32.2574H41.1729C44.2142 32.2573 46.6242 29.6899 46.432 26.6547Z" fill="#FFB125"/>
<path d="M46.4322 26.6547L45.59 13.3505C45.2814 8.47463 41.2368 4.6781 36.3512 4.6781H34.9102C37.0147 4.6781 38.7568 6.31351 38.8898 8.41382L40.3991 32.2574H41.173C44.2143 32.2573 46.6244 29.6899 46.4322 26.6547Z" fill="#FF901D"/>
<path d="M29.9109 57.2399C30.9848 59.3616 34.0148 59.3616 35.0887 57.2399L43.6299 40.3653L40.8779 39.6971C39.6017 39.4406 38.6835 37.9602 38.6835 36.6584V30.8576H32.4997H26.3161V36.6584C26.3161 37.9601 25.398 39.4406 24.1217 39.6971L21.3696 40.3653L29.9109 57.2399Z" fill="#FFF56D"/>
<path d="M44.114 19.0424H43.3727C43.3727 18.6307 43.0573 18.2879 42.6473 18.251C32.7685 17.3621 29.5213 14.5939 26.8265 11.7985C26.347 11.3011 21.702 13.2621 21.6275 17.8215V19.0424H20.8862C19.7994 19.0424 18.9185 19.9235 18.9185 21.0102V23.1909C18.9185 24.2776 19.7995 25.1587 20.8862 25.1587H21.6304C21.6918 28.0146 23.7093 30.7634 25.8774 32.6302C27.6229 34.1332 29.2591 35.445 32.5002 35.4812C35.7413 35.445 37.3775 34.1332 39.1229 32.6302C41.291 30.7634 43.3086 28.0146 43.3699 25.1587H44.1141C45.201 25.1587 46.0819 24.2776 46.0819 23.1909V21.0102C46.0818 19.9234 45.2007 19.0424 44.114 19.0424Z" fill="#FFF56D"/>
<path d="M43.3728 19.0424C43.3728 18.6307 43.0574 18.2879 42.6473 18.2509C40.4398 18.0523 38.5643 17.7596 36.9513 17.394L36.9495 25.1586C36.8882 28.0145 34.8706 30.7633 32.7025 32.6301C31.6506 33.536 30.6378 34.3718 29.29 34.9013C30.1786 35.2505 31.2125 35.4668 32.5002 35.4811C35.7413 35.4449 37.3774 34.1331 39.1229 32.6301C41.291 30.7633 43.3086 28.0145 43.3699 25.1586L43.3728 19.0424Z" fill="#FDB814"/>
<path d="M40.755 1.39217L35.1437 0.252765C33.4834 -0.0842956 31.7723 -0.0842956 30.112 0.252765L24.5007 1.39217C23.6207 1.57092 23.1117 2.49704 23.4326 3.33569L24.8449 7.02597C25.1942 7.93901 26.0706 8.54191 27.0481 8.54191H38.2073C39.1849 8.54191 40.0612 7.93901 40.4106 7.02597L41.8228 3.33569C42.144 2.49704 41.6351 1.57092 40.755 1.39217Z" fill="#FF8718"/>
<path d="M40.7548 1.39223L37.8726 0.806976L34.8388 7.95978C34.7046 8.31042 34.3681 8.54198 33.9927 8.54198H38.2073C39.1848 8.54198 40.0612 7.93908 40.4105 7.02603L41.8228 3.33576C42.1438 2.4971 41.6349 1.57098 40.7548 1.39223Z" fill="black"/>
<path d="M60.1698 62.7978L57.3124 46.0696C57.067 44.6328 56.0299 43.4587 54.6345 43.0376L41.8076 39.1674C41.27 39.0051 40.6934 39.2521 40.4398 39.7532L34.3155 51.8527C33.5625 53.3403 31.4378 53.3403 30.6849 51.8527L24.5605 39.7532C24.3069 39.2521 23.7304 39.0051 23.1927 39.1674L10.3659 43.0376C8.97044 43.4585 7.93336 44.6328 7.68796 46.0696L4.83063 62.7978C4.63397 63.949 5.52074 65.0001 6.68858 65.0001H58.3118C59.4796 65.0001 60.3664 63.949 60.1698 62.7978Z" fill="#FF8718"/>
<path d="M60.1699 62.7978L57.3126 46.0696C57.0672 44.6328 56.0301 43.4585 54.6346 43.0376L41.8078 39.1674C41.2701 39.0051 40.6935 39.2521 40.44 39.7532L39.0737 42.4523L49.3313 45.5473C50.0422 45.7618 50.5707 46.3602 50.6958 47.0922L53.7546 65.0001H58.312C59.4798 65.0001 60.3666 63.9489 60.1699 62.7978Z" fill="black"/>
<path d="M14.5844 65.0001L16.2708 55.1273C16.3617 54.595 16.004 54.0899 15.4717 53.999C14.9396 53.908 14.4342 54.2658 14.3433 54.798L12.6066 64.9657C12.6047 64.9771 12.6041 64.9885 12.6025 64.9999H14.5844V65.0001Z" fill="black"/>
<path d="M52.3937 64.9658L50.657 54.7982C50.5661 54.2658 50.0613 53.9077 49.5286 53.9991C48.9963 54.09 48.6385 54.5952 48.7294 55.1275L50.4158 65.0001H52.3978C52.3962 64.9887 52.3956 64.9773 52.3937 64.9658Z" fill="black"/>
<path d="M34.2217 3.23023H33.4775V2.48603C33.4775 1.94597 33.0398 1.50836 32.4998 1.50836C31.9599 1.50836 31.5222 1.9461 31.5222 2.48603V3.23023H30.778C30.238 3.23023 29.8003 3.66796 29.8003 4.20789C29.8003 4.74782 30.238 5.18556 30.778 5.18556H31.5222V5.92963C31.5222 6.46969 31.9599 6.9073 32.4998 6.9073C33.0398 6.9073 33.4775 6.46956 33.4775 5.92963V5.18556H34.2217C34.7616 5.18556 35.1994 4.74782 35.1994 4.20789C35.1994 3.66796 34.7616 3.23023 34.2217 3.23023Z" fill="white"/>
<path d="M40.5382 39.5935C39.4427 39.1676 38.6838 37.8408 38.6838 36.6582V33.0043C37.5646 33.9459 36.4301 34.7702 34.8252 35.1889V38.8913C34.8252 40.2 35.7483 41.6884 37.0313 41.9462L39.0781 42.4432L40.4398 39.7531C40.4685 39.6965 40.5018 39.6435 40.5382 39.5935Z" fill="#FDB814"/>
<path d="M30.6847 51.8526C31.4376 53.3403 33.5623 53.3403 34.3153 51.8526L39.0942 42.4112H25.9058L30.6847 51.8526Z" fill="#FDB814"/>
</g>
<defs>
<clipPath id="clip0_1032_2663">
<rect width="65" height="65" fill="white"/>
</clipPath>
</defs>
</svg>