<svg width="65" height="65" viewBox="0 0 65 65" fill="none" xmlns="http://www.w3.org/2000/svg">
<path d="M49.3034 62.6549C52.9974 62.6549 55.9921 59.6603 55.9921 55.9663C55.9921 52.2722 52.9974 49.2776 49.3034 49.2776C45.6094 49.2776 42.6147 52.2722 42.6147 55.9663C42.6147 59.6603 45.6094 62.6549 49.3034 62.6549Z" fill="url(#paint0_linear_1032_2546)"/>
<path d="M63.2327 62.1727C63.2327 63.1712 63.0437 64.1243 62.6989 65H48.3198C47.975 64.1243 47.7861 63.1712 47.7861 62.1727C47.7861 61.2004 47.9655 60.271 48.2937 59.4144C49.4039 56.51 52.216 54.4494 55.5093 54.4494C58.8026 54.4494 61.6149 56.5097 62.725 59.4144C63.0535 60.271 63.2327 61.2004 63.2327 62.1727Z" fill="url(#paint1_linear_1032_2546)"/>
<path d="M51.7628 2.09615H13.2383V64.9996H51.7628V2.09615Z" fill="url(#paint2_linear_1032_2546)"/>
<path d="M51.7625 2.09615V13.9255H22.172L13.2383 4.99207V2.09615H51.7625Z" fill="url(#paint3_linear_1032_2546)"/>
<path d="M51.7625 21.9928V33.8223H22.172L13.2383 24.8886V21.9928H51.7625Z" fill="url(#paint4_linear_1032_2546)"/>
<path d="M51.7625 41.8894V53.7187H22.172L13.2383 44.7852V41.8894H51.7625Z" fill="url(#paint5_linear_1032_2546)"/>
<path d="M52.7581 0.847412V3.99636C52.7581 4.46431 52.3787 4.84377 51.9107 4.84377H13.0896C12.6217 4.84377 12.2422 4.46431 12.2422 3.99636V0.847412C12.2422 0.379463 12.6217 0 13.0896 0H51.9107C52.3787 0 52.7581 0.379463 52.7581 0.847412Z" fill="url(#paint6_linear_1032_2546)"/>
<path d="M38.9386 22.1806H22.2943L17.415 17.3013C17.4137 17.3013 17.4137 17.3 17.4123 17.2986C17.3872 17.2827 17.362 17.2656 17.3383 17.2483C17.3356 17.247 17.3331 17.2444 17.3304 17.243C17.3092 17.2257 17.2881 17.2086 17.2683 17.1927C17.2432 17.1728 17.2209 17.1517 17.1983 17.1292C17.1771 17.1093 17.1574 17.0896 17.1375 17.0684C17.1162 17.0472 17.0978 17.0249 17.0779 17.0024C17.058 16.9799 17.0396 16.9562 17.0223 16.9311C17.005 16.9072 16.9879 16.8821 16.972 16.857C16.939 16.8068 16.91 16.754 16.8834 16.6998C16.8583 16.6455 16.8344 16.5888 16.816 16.5306C16.8055 16.5016 16.7975 16.4725 16.7896 16.4434C16.7751 16.3919 16.7645 16.3403 16.7579 16.2874C16.7539 16.2649 16.75 16.2425 16.7486 16.2187C16.7459 16.1989 16.7447 16.1778 16.7434 16.1566C16.7421 16.1288 16.7407 16.1012 16.7407 16.0734V8.70691C16.7407 7.89936 17.3976 7.24263 18.205 7.24263H23.5125C23.5416 7.24263 23.5707 7.2439 23.5997 7.2453C23.6209 7.24657 23.642 7.24796 23.6618 7.25063C23.6843 7.2519 23.7054 7.25456 23.7278 7.2585C23.7542 7.26243 23.7808 7.26637 23.8071 7.27297C23.8335 7.2783 23.86 7.28351 23.885 7.29151C23.9155 7.29938 23.9445 7.30725 23.9736 7.31791C24.0318 7.33645 24.0886 7.36019 24.1427 7.38533C24.1969 7.41173 24.2497 7.4408 24.3 7.47394C24.3264 7.48968 24.3503 7.50695 24.3753 7.52548C24.3978 7.54122 24.4202 7.55989 24.4427 7.57702C24.4705 7.5995 24.4969 7.62324 24.5219 7.64837C24.5405 7.66564 24.5589 7.68405 24.5761 7.70258C24.5961 7.72251 24.6145 7.74359 24.633 7.76466C24.6357 7.7686 24.6382 7.77253 24.6423 7.77647C24.678 7.82001 24.711 7.86508 24.74 7.91129C24.74 7.91129 24.7427 7.91256 24.7427 7.91396L24.7031 7.9457L27.9013 11.1439L28.7788 12.0214L29.5837 12.8263L30.7124 13.955L34.1155 17.3581L34.9944 18.237L38.9386 22.1806Z" fill="url(#paint7_linear_1032_2546)"/>
<path d="M23.5133 16.6758H18.2048C17.8701 16.6758 17.5986 16.4045 17.5986 16.0696V8.70699C17.5986 8.37221 17.8699 8.10078 18.2048 8.10078H23.5133C23.848 8.10078 24.1195 8.37208 24.1195 8.70699V16.0698C24.1195 16.4044 23.848 16.6758 23.5133 16.6758Z" fill="#503837"/>
<path d="M24.8354 8.07743C24.8085 8.02081 24.7774 7.96571 24.7433 7.91328L24.7405 7.91189C24.7108 7.86517 24.6782 7.81984 24.6429 7.77605C24.6387 7.77325 24.6358 7.76894 24.633 7.76475C24.6146 7.74355 24.5962 7.72235 24.5764 7.70241C24.5594 7.68388 24.541 7.6656 24.5226 7.64859C24.497 7.62307 24.4701 7.59895 24.4433 7.57648C24.4206 7.55946 24.3981 7.54106 24.3754 7.52544C24.3499 7.50691 24.3272 7.49002 24.3004 7.47301C24.2508 7.44051 24.1971 7.4122 24.1432 7.38528C24.0894 7.35977 24.0315 7.33565 23.9734 7.31736C23.9451 7.30746 23.9153 7.29883 23.8855 7.29185C23.86 7.28334 23.8331 7.27776 23.8077 7.27344C23.7808 7.26633 23.7539 7.26214 23.7285 7.25795C23.7057 7.25376 23.6847 7.25236 23.6619 7.25084C23.6421 7.24805 23.6209 7.24665 23.5996 7.24526C23.5713 7.24386 23.5416 7.24246 23.5118 7.24246H18.2042C17.3975 7.24246 16.7407 7.89919 16.7407 8.70737V16.0742C16.7407 16.1011 16.7421 16.1294 16.7435 16.1563C16.7449 16.1776 16.7463 16.1988 16.7477 16.2187C16.7491 16.2428 16.7533 16.2654 16.7576 16.288C16.7647 16.3404 16.7746 16.3927 16.7887 16.4438C16.7972 16.4735 16.8057 16.5018 16.8156 16.5315C16.834 16.5895 16.858 16.6463 16.8835 16.7C16.9091 16.7538 16.9388 16.8075 16.9714 16.8571C16.9869 16.8826 17.0054 16.9082 17.0224 16.9322C17.0394 16.9563 17.0579 16.9803 17.0777 17.0029C17.0975 17.0256 17.1159 17.0481 17.1371 17.0694C17.1569 17.0907 17.1767 17.1104 17.1979 17.1303C17.2206 17.1517 17.2431 17.1727 17.2672 17.1927C17.287 17.2097 17.3082 17.2267 17.3295 17.2437C17.3323 17.2451 17.3351 17.2479 17.338 17.2493C17.3622 17.2663 17.3862 17.2833 17.4115 17.2989C17.4129 17.3003 17.4129 17.3017 17.4143 17.3017C17.6422 17.4504 17.9125 17.5338 18.2041 17.5338H23.5116C24.3198 17.5338 24.9765 16.8771 24.9765 16.0703V8.70725C24.9768 8.48216 24.9258 8.2685 24.8354 8.07743ZM23.2614 15.818H18.4564V8.95925H23.2614V15.818Z" fill="white"/>
<path d="M50.7725 22.1806H34.1283L29.249 17.3013C29.2477 17.3013 29.2477 17.3 29.2463 17.2986C29.2212 17.2827 29.196 17.2656 29.1723 17.2483C29.1696 17.247 29.1671 17.2444 29.1644 17.243C29.1432 17.2257 29.1221 17.2086 29.1023 17.1927C29.0772 17.1728 29.0548 17.1517 29.0322 17.1292C29.011 17.1093 28.9914 17.0896 28.9714 17.0684C28.9502 17.0472 28.9318 17.0249 28.9119 17.0024C28.892 16.9799 28.8736 16.9562 28.8563 16.9311C28.839 16.9072 28.8219 16.8821 28.806 16.857C28.773 16.8068 28.7439 16.754 28.7174 16.6998C28.6923 16.6455 28.6684 16.5888 28.65 16.5306C28.6395 16.5016 28.6315 16.4725 28.6236 16.4434C28.6091 16.3919 28.5984 16.3403 28.5918 16.2874C28.5879 16.2649 28.584 16.2425 28.5826 16.2187C28.5799 16.1989 28.5786 16.1778 28.5774 16.1566C28.5761 16.1288 28.5747 16.1012 28.5747 16.0734V8.70691C28.5747 7.89936 29.2316 7.24263 30.039 7.24263H35.3465C35.3756 7.24263 35.4047 7.2439 35.4337 7.2453C35.4549 7.24657 35.476 7.24796 35.4958 7.25063C35.5183 7.2519 35.5394 7.25456 35.5618 7.2585C35.5882 7.26243 35.6148 7.26637 35.641 7.27297C35.6675 7.2783 35.694 7.28351 35.719 7.29151C35.7495 7.29938 35.7785 7.30725 35.8076 7.31791C35.8658 7.33645 35.9226 7.36019 35.9767 7.38533C36.0309 7.41173 36.0837 7.4408 36.134 7.47394C36.1604 7.48968 36.1843 7.50695 36.2093 7.52548C36.2318 7.54122 36.2542 7.55989 36.2767 7.57702C36.3045 7.5995 36.3309 7.62324 36.3559 7.64837C36.3745 7.66564 36.3929 7.68405 36.4101 7.70258C36.4299 7.72251 36.4485 7.74359 36.467 7.76466C36.4697 7.7686 36.4722 7.77253 36.4763 7.77647C36.5119 7.82001 36.545 7.86508 36.574 7.91129C36.574 7.91129 36.5767 7.91256 36.5767 7.91396L36.5371 7.9457L39.7353 11.1439L40.6128 12.0214L41.4177 12.8263L42.5464 13.955L45.9495 17.3581L46.8284 18.237L50.7725 22.1806Z" fill="url(#paint8_linear_1032_2546)"/>
<path d="M35.3472 16.6758H30.0388C29.704 16.6758 29.4326 16.4045 29.4326 16.0696V8.70699C29.4326 8.37221 29.7039 8.10078 30.0388 8.10078H35.3472C35.682 8.10078 35.9534 8.37208 35.9534 8.70699V16.0698C35.9534 16.4044 35.682 16.6758 35.3472 16.6758Z" fill="#503837"/>
<path d="M36.6719 8.08039C36.6719 8.079 36.6705 8.079 36.6705 8.0776C36.6422 8.02098 36.6111 7.96588 36.577 7.91345L36.5743 7.91205C36.5459 7.86533 36.5119 7.82001 36.4766 7.77621C36.4724 7.77342 36.471 7.7691 36.4681 7.76491C36.4497 7.74371 36.4313 7.72251 36.4115 7.70258C36.3931 7.68405 36.3747 7.66576 36.3563 7.64875C36.3321 7.62324 36.3052 7.59911 36.2771 7.57664C36.2543 7.55963 36.2319 7.54122 36.2105 7.52561C36.185 7.50707 36.1609 7.49019 36.1341 7.47318C36.0845 7.44068 36.0323 7.41237 35.9769 7.38545C35.9231 7.35993 35.8666 7.33581 35.8086 7.31753C35.7789 7.30763 35.7506 7.299 35.7193 7.29201C35.6938 7.28351 35.6683 7.27792 35.6415 7.27361C35.6146 7.2665 35.5891 7.26231 35.5623 7.25812C35.5396 7.25393 35.5185 7.25253 35.4958 7.25101C35.476 7.24822 35.4548 7.24682 35.4335 7.24542C35.4051 7.24403 35.3754 7.24263 35.3471 7.24263H30.0396C29.2314 7.24263 28.5747 7.89936 28.5747 8.70754V16.0744C28.5747 16.1013 28.5761 16.1296 28.5775 16.1565C28.5789 16.1777 28.5803 16.1989 28.5831 16.2189C28.5845 16.243 28.5887 16.2656 28.5916 16.2882C28.5987 16.3406 28.61 16.3929 28.6241 16.4439C28.6312 16.4736 28.6396 16.502 28.6496 16.5317C28.6694 16.5897 28.692 16.6464 28.7175 16.7001C28.7444 16.754 28.7728 16.8077 28.8068 16.8573C28.8223 16.8828 28.8393 16.9083 28.8564 16.9323C28.8734 16.9564 28.8918 16.9804 28.9116 17.003C28.9314 17.0258 28.9499 17.0482 28.9711 17.0696C28.9909 17.0909 29.0107 17.1106 29.032 17.1305C29.0547 17.1518 29.0772 17.1729 29.1027 17.1928C29.1225 17.2098 29.1437 17.2269 29.165 17.2439C29.1678 17.2453 29.1692 17.2481 29.1721 17.2495C29.1963 17.2665 29.2218 17.2835 29.2472 17.2991C29.2486 17.3005 29.2486 17.3019 29.2486 17.3019C29.4765 17.4506 29.7467 17.534 30.0397 17.534H35.3473C36.154 17.534 36.8108 16.8772 36.8108 16.0704V8.70729C36.8106 8.48372 36.7597 8.26993 36.6719 8.08039ZM35.0952 15.8181H30.2901V8.95929H35.0951V15.8181H35.0952Z" fill="white"/>
<path d="M51.7626 11.3369V22.1799H45.9626L41.0839 17.3012C41.0825 17.3012 41.0825 17.2998 41.0811 17.2984C41.0556 17.2829 41.0301 17.2658 41.0076 17.2487C41.0048 17.2473 41.002 17.2445 40.9991 17.2432C40.9778 17.2261 40.9567 17.2091 40.9368 17.1921C40.9112 17.1722 40.8902 17.1511 40.8674 17.1298C40.8461 17.11 40.8264 17.0902 40.8065 17.0688C40.7852 17.0476 40.7669 17.025 40.7471 17.0023C40.7273 16.9796 40.7089 16.9556 40.6919 16.9316C40.6735 16.9075 40.6564 16.882 40.6408 16.8566C40.6083 16.8069 40.5785 16.7532 40.5516 16.6994C40.5275 16.6456 40.5035 16.5891 40.4851 16.5309C40.4738 16.5012 40.4667 16.4729 40.4581 16.4432C40.4441 16.3922 40.4326 16.3399 40.427 16.2874C40.4229 16.2647 40.4185 16.2423 40.4171 16.2181C40.4143 16.1983 40.413 16.1771 40.4116 16.1558C40.4116 16.1289 40.4102 16.1006 40.4102 16.0737V8.70721C40.4102 7.89902 41.0669 7.24229 41.8737 7.24229H47.1812C47.2109 7.24229 47.2392 7.24369 47.2691 7.24509C47.2903 7.24648 47.3115 7.24788 47.3314 7.25067C47.3541 7.25207 47.3752 7.25347 47.3965 7.25778C47.4234 7.26197 47.4503 7.26629 47.4757 7.27327C47.5026 7.27746 47.5296 7.28317 47.555 7.29168C47.5847 7.29866 47.6144 7.30717 47.6427 7.3172C47.7007 7.3356 47.7574 7.3596 47.8125 7.38512C47.8664 7.41203 47.9187 7.44034 47.9697 7.47284C47.9952 7.48985 48.0193 7.50686 48.0447 7.52527C48.0675 7.54076 48.0899 7.5593 48.1127 7.57631C48.1396 7.59903 48.1665 7.6229 48.1919 7.64842C48.2103 7.66543 48.2287 7.68384 48.2457 7.70225C48.2656 7.72205 48.2839 7.74325 48.3023 7.76458C48.3051 7.76877 48.3079 7.77309 48.3122 7.77588C48.3476 7.81968 48.3801 7.865 48.4099 7.91172L48.4126 7.91311L48.373 7.94561L48.5047 8.07726L51.5702 11.1443L51.7626 11.3369Z" fill="url(#paint9_linear_1032_2546)"/>
<path d="M47.1812 16.6758H41.8728C41.538 16.6758 41.2666 16.4045 41.2666 16.0696V8.70699C41.2666 8.37221 41.5379 8.10078 41.8728 8.10078H47.1812C47.516 8.10078 47.7874 8.37208 47.7874 8.70699V16.0698C47.7874 16.4044 47.5161 16.6758 47.1812 16.6758Z" fill="#503837"/>
<path d="M48.5043 8.07743C48.476 8.02081 48.4463 7.96571 48.4123 7.91328L48.4095 7.91189C48.3798 7.86517 48.3472 7.81984 48.3119 7.77605C48.3077 7.77325 48.3049 7.76894 48.302 7.76475C48.2834 7.74355 48.2652 7.72235 48.2454 7.70241C48.2283 7.68388 48.2099 7.6656 48.1915 7.64859C48.166 7.62307 48.1391 7.59895 48.1123 7.57648C48.0896 7.55946 48.0671 7.54106 48.0444 7.52544C48.0189 7.50691 47.9947 7.49002 47.9694 7.47301C47.9183 7.44051 47.866 7.4122 47.8122 7.38528C47.757 7.35977 47.7005 7.33565 47.6423 7.31736C47.614 7.30746 47.5843 7.29883 47.5546 7.29185C47.5291 7.28334 47.5022 7.27776 47.4754 7.27344C47.4499 7.26633 47.423 7.26214 47.3962 7.25795C47.375 7.25376 47.3538 7.25236 47.331 7.25084C47.3112 7.24805 47.29 7.24665 47.2687 7.24526C47.239 7.24386 47.2107 7.24246 47.1809 7.24246H41.8732C41.0664 7.24246 40.4097 7.89919 40.4097 8.70737V16.0742C40.4097 16.1011 40.4111 16.1294 40.4111 16.1563C40.4125 16.1776 40.4139 16.1988 40.4166 16.2187C40.418 16.2428 40.4222 16.2654 40.4266 16.288C40.4321 16.3404 40.4436 16.3927 40.4577 16.4438C40.4662 16.4735 40.4731 16.5018 40.4846 16.5315C40.503 16.5895 40.527 16.6463 40.5511 16.7C40.578 16.7538 40.6077 16.8075 40.6403 16.8571C40.6558 16.8826 40.6728 16.9082 40.6914 16.9322C40.7084 16.9563 40.7268 16.9803 40.7466 17.0029C40.7664 17.0256 40.7848 17.0481 40.806 17.0694C40.8258 17.0907 40.8456 17.1104 40.867 17.1303C40.8897 17.1517 40.9108 17.1727 40.9363 17.1927C40.9561 17.2097 40.9773 17.2267 40.9986 17.2437C41.0014 17.2451 41.0042 17.2479 41.0071 17.2493C41.0298 17.2663 41.0552 17.2833 41.0806 17.2989C41.082 17.3003 41.082 17.3017 41.0834 17.3017C41.3099 17.4504 41.5816 17.5338 41.8732 17.5338H47.1807C47.9889 17.5338 48.6456 16.8771 48.6456 16.0703V8.70725C48.6459 8.48216 48.5936 8.2685 48.5043 8.07743ZM46.9305 15.818H42.1254V8.95925H46.9306L46.9305 15.818Z" fill="white"/>
<path d="M52.7581 20.923V24.0719C52.7581 24.5399 52.3787 24.9193 51.9107 24.9193H13.0896C12.6217 24.9193 12.2422 24.5399 12.2422 24.0719V20.923C12.2422 20.455 12.6217 20.0756 13.0896 20.0756H51.9107C52.3787 20.0756 52.7581 20.4549 52.7581 20.923Z" fill="url(#paint10_linear_1032_2546)"/>
<path d="M38.9386 42.2561H22.2943L17.415 37.3768C17.4137 37.3768 17.4137 37.3755 17.4123 37.3741C17.3872 37.3582 17.362 37.3411 17.3383 37.3238C17.3356 37.3226 17.3331 37.3199 17.3304 37.3185C17.3092 37.3012 17.2881 37.2841 17.2683 37.2682C17.2432 37.2483 17.2209 37.2272 17.1983 37.2048C17.1771 37.1848 17.1574 37.1651 17.1375 37.1439C17.1162 37.1227 17.0978 37.1004 17.0779 37.0779C17.058 37.0555 17.0396 37.0317 17.0223 37.0066C17.005 36.9827 16.9879 36.9577 16.972 36.9326C16.939 36.8823 16.91 36.8295 16.8834 36.7753C16.8583 36.7211 16.8344 36.6643 16.816 36.6062C16.8055 36.5771 16.7975 36.548 16.7896 36.519C16.7751 36.4674 16.7645 36.4159 16.7579 36.3629C16.7539 36.3405 16.75 36.318 16.7486 36.2942C16.7459 36.2744 16.7447 36.2534 16.7434 36.2322C16.7421 36.2044 16.7407 36.1767 16.7407 36.1489V28.7823C16.7407 27.9748 17.3976 27.318 18.205 27.318H23.5125C23.5416 27.318 23.5707 27.3193 23.5997 27.3207C23.6209 27.322 23.642 27.3234 23.6618 27.326C23.6843 27.3273 23.7054 27.33 23.7278 27.3339C23.7542 27.3378 23.7808 27.3418 23.8071 27.3484C23.8335 27.3537 23.86 27.3589 23.885 27.3669C23.9155 27.3748 23.9445 27.3826 23.9736 27.3933C24.0318 27.4118 24.0886 27.4356 24.1427 27.4607C24.1969 27.4871 24.2497 27.5162 24.3 27.5493C24.3264 27.5651 24.3503 27.5823 24.3753 27.6009C24.3978 27.6166 24.4202 27.6353 24.4427 27.6524C24.4705 27.6749 24.4969 27.6986 24.5219 27.7238C24.5405 27.741 24.5589 27.7594 24.5761 27.778C24.5961 27.7979 24.6145 27.819 24.633 27.8401C24.6357 27.844 24.6382 27.8479 24.6423 27.8519C24.678 27.8954 24.711 27.9405 24.74 27.9867C24.74 27.9867 24.7427 27.988 24.7427 27.9894L24.7031 28.0211L27.9013 31.2193L28.7788 32.0968L29.5837 32.9017L30.7124 34.0304L34.1155 37.4335L34.9944 38.3124L38.9386 42.2561Z" fill="url(#paint11_linear_1032_2546)"/>
<path d="M23.5133 36.7515H18.2048C17.8701 36.7515 17.5986 36.4802 17.5986 36.1453V28.7826C17.5986 28.4478 17.8699 28.1764 18.2048 28.1764H23.5133C23.848 28.1764 24.1195 28.4477 24.1195 28.7826V36.1453C24.1195 36.4802 23.848 36.7515 23.5133 36.7515Z" fill="#503837"/>
<path d="M24.8354 28.153C24.8085 28.0964 24.7774 28.0413 24.7433 27.9888L24.7405 27.9874C24.7108 27.9407 24.6782 27.8954 24.6429 27.8516C24.6387 27.8488 24.6358 27.8445 24.633 27.8403C24.6146 27.8191 24.5962 27.7979 24.5764 27.778C24.5594 27.7594 24.541 27.7412 24.5226 27.7241C24.497 27.6986 24.4701 27.6745 24.4433 27.652C24.4206 27.635 24.3981 27.6166 24.3754 27.601C24.3499 27.5825 24.3272 27.5656 24.3004 27.5486C24.2508 27.5161 24.1971 27.4878 24.1432 27.4608C24.0894 27.4353 24.0315 27.4112 23.9734 27.3929C23.9451 27.383 23.9153 27.3744 23.8855 27.3674C23.86 27.3589 23.8331 27.3533 23.8077 27.349C23.7808 27.3419 23.7539 27.3377 23.7285 27.3335C23.7057 27.3293 23.6847 27.3279 23.6619 27.3264C23.6421 27.3236 23.6209 27.3222 23.5996 27.3208C23.5713 27.3194 23.5416 27.318 23.5118 27.318H18.2042C17.3975 27.318 16.7407 27.9748 16.7407 28.7829V36.1498C16.7407 36.1767 16.7421 36.205 16.7435 36.2319C16.7449 36.2531 16.7463 36.2743 16.7477 36.2942C16.7491 36.3184 16.7533 36.341 16.7576 36.3636C16.7647 36.416 16.7746 36.4683 16.7887 36.5193C16.7972 36.549 16.8057 36.5774 16.8156 36.6071C16.834 36.6651 16.858 36.7218 16.8835 36.7755C16.9091 36.8294 16.9388 36.8831 16.9714 36.9327C16.9869 36.9582 17.0054 36.9837 17.0224 37.0077C17.0394 37.0318 17.0579 37.0558 17.0777 37.0784C17.0975 37.1012 17.1159 37.1236 17.1371 37.145C17.1569 37.1663 17.1767 37.186 17.1979 37.2059C17.2206 37.2272 17.2431 37.2483 17.2672 37.2682C17.287 37.2852 17.3082 37.3023 17.3295 37.3193C17.3323 37.3207 17.3351 37.3235 17.338 37.3249C17.3622 37.3419 17.3862 37.3589 17.4115 37.3745C17.4129 37.3759 17.4129 37.3773 17.4143 37.3773C17.6422 37.5259 17.9125 37.6094 18.2041 37.6094H23.5116C24.3198 37.6094 24.9765 36.9526 24.9765 36.1458V28.7832C24.9768 28.5578 24.9258 28.3441 24.8354 28.153ZM23.2614 35.8935H18.4564V29.0347H23.2614V35.8935Z" fill="white"/>
<path d="M50.7725 42.2561H34.1283L29.249 37.3768C29.2477 37.3768 29.2477 37.3755 29.2463 37.3741C29.2212 37.3582 29.196 37.3411 29.1723 37.3238C29.1696 37.3226 29.1671 37.3199 29.1644 37.3185C29.1432 37.3012 29.1221 37.2841 29.1023 37.2682C29.0772 37.2483 29.0548 37.2272 29.0322 37.2048C29.011 37.1848 28.9914 37.1651 28.9714 37.1439C28.9502 37.1227 28.9318 37.1004 28.9119 37.0779C28.892 37.0555 28.8736 37.0317 28.8563 37.0066C28.839 36.9827 28.8219 36.9577 28.806 36.9326C28.773 36.8823 28.7439 36.8295 28.7174 36.7753C28.6923 36.7211 28.6684 36.6643 28.65 36.6062C28.6395 36.5771 28.6315 36.548 28.6236 36.519C28.6091 36.4674 28.5984 36.4159 28.5918 36.3629C28.5879 36.3405 28.584 36.318 28.5826 36.2942C28.5799 36.2744 28.5786 36.2534 28.5774 36.2322C28.5761 36.2044 28.5747 36.1767 28.5747 36.1489V28.7823C28.5747 27.9748 29.2316 27.318 30.039 27.318H35.3465C35.3756 27.318 35.4047 27.3193 35.4337 27.3207C35.4549 27.322 35.476 27.3234 35.4958 27.326C35.5183 27.3273 35.5394 27.33 35.5618 27.3339C35.5882 27.3378 35.6148 27.3418 35.641 27.3484C35.6675 27.3537 35.694 27.3589 35.719 27.3669C35.7495 27.3748 35.7785 27.3826 35.8076 27.3933C35.8658 27.4118 35.9226 27.4356 35.9767 27.4607C36.0309 27.4871 36.0837 27.5162 36.134 27.5493C36.1604 27.5651 36.1843 27.5823 36.2093 27.6009C36.2318 27.6166 36.2542 27.6353 36.2767 27.6524C36.3045 27.6749 36.3309 27.6986 36.3559 27.7238C36.3745 27.741 36.3929 27.7594 36.4101 27.778C36.4299 27.7979 36.4485 27.819 36.467 27.8401C36.4697 27.844 36.4722 27.8479 36.4763 27.8519C36.5119 27.8954 36.545 27.9405 36.574 27.9867C36.574 27.9867 36.5767 27.988 36.5767 27.9894L36.5371 28.0211L39.7353 31.2193L40.6128 32.0968L41.4177 32.9017L42.5464 34.0304L45.9495 37.4335L46.8284 38.3124L50.7725 42.2561Z" fill="url(#paint12_linear_1032_2546)"/>
<path d="M35.3472 36.7515H30.0388C29.704 36.7515 29.4326 36.4802 29.4326 36.1453V28.7826C29.4326 28.4478 29.7039 28.1764 30.0388 28.1764H35.3472C35.682 28.1764 35.9534 28.4477 35.9534 28.7826V36.1453C35.9534 36.4802 35.682 36.7515 35.3472 36.7515Z" fill="#503837"/>
<path d="M36.6719 28.1558C36.6719 28.1544 36.6705 28.1544 36.6705 28.153C36.6422 28.0964 36.6111 28.0413 36.577 27.9888L36.5743 27.9874C36.5459 27.9407 36.5119 27.8954 36.4766 27.8516C36.4724 27.8488 36.471 27.8445 36.4681 27.8403C36.4497 27.8191 36.4313 27.7979 36.4115 27.778C36.3931 27.7594 36.3747 27.7412 36.3563 27.7241C36.3321 27.6986 36.3052 27.6745 36.2771 27.652C36.2543 27.635 36.2319 27.6166 36.2105 27.601C36.185 27.5825 36.1609 27.5656 36.1341 27.5486C36.0845 27.5161 36.0323 27.4878 35.9769 27.4608C35.9231 27.4353 35.8666 27.4112 35.8086 27.3929C35.7789 27.383 35.7506 27.3744 35.7193 27.3674C35.6938 27.3589 35.6683 27.3533 35.6415 27.349C35.6146 27.3419 35.5891 27.3377 35.5623 27.3335C35.5396 27.3293 35.5185 27.3279 35.4958 27.3264C35.476 27.3236 35.4548 27.3222 35.4335 27.3208C35.4051 27.3194 35.3754 27.318 35.3471 27.318H30.0396C29.2314 27.318 28.5747 27.9748 28.5747 28.7829V36.1498C28.5747 36.1767 28.5761 36.205 28.5775 36.2319C28.5789 36.2531 28.5803 36.2743 28.5831 36.2942C28.5845 36.3184 28.5887 36.341 28.5916 36.3636C28.5987 36.416 28.61 36.4683 28.6241 36.5193C28.6312 36.549 28.6396 36.5774 28.6496 36.6071C28.6694 36.6651 28.692 36.7218 28.7175 36.7755C28.7444 36.8294 28.7728 36.8831 28.8068 36.9327C28.8223 36.9582 28.8393 36.9837 28.8564 37.0077C28.8734 37.0318 28.8918 37.0558 28.9116 37.0784C28.9314 37.1012 28.9499 37.1236 28.9711 37.145C28.9909 37.1663 29.0107 37.186 29.032 37.2059C29.0547 37.2272 29.0772 37.2483 29.1027 37.2682C29.1225 37.2852 29.1437 37.3023 29.165 37.3193C29.1678 37.3207 29.1692 37.3235 29.1721 37.3249C29.1963 37.3419 29.2218 37.3589 29.2472 37.3745C29.2486 37.3759 29.2486 37.3773 29.2486 37.3773C29.4765 37.5259 29.7467 37.6094 30.0397 37.6094H35.3473C36.154 37.6094 36.8108 36.9526 36.8108 36.1458V28.7832C36.8106 28.5592 36.7597 28.3455 36.6719 28.1558ZM35.0952 35.8935H30.2901V29.0347H35.0951V35.8935H35.0952Z" fill="white"/>
<path d="M51.7626 31.4126V42.2556H45.9626L41.0839 37.3769C41.0825 37.3769 41.0825 37.3755 41.0811 37.3741C41.0556 37.3586 41.0301 37.3415 41.0076 37.3245C41.0048 37.3231 41.002 37.3203 40.9991 37.3189C40.9778 37.3019 40.9567 37.2849 40.9368 37.2678C40.9112 37.2479 40.8902 37.2268 40.8674 37.2055C40.8461 37.1857 40.8264 37.1659 40.8065 37.1446C40.7852 37.1234 40.7669 37.1008 40.7471 37.0781C40.7273 37.0553 40.7089 37.0313 40.6919 37.0073C40.6735 36.9832 40.6564 36.9577 40.6408 36.9323C40.6083 36.8827 40.5785 36.829 40.5516 36.7751C40.5275 36.7213 40.5035 36.6648 40.4851 36.6067C40.4738 36.577 40.4667 36.5487 40.4581 36.519C40.4441 36.4679 40.4326 36.4156 40.427 36.3632C40.4229 36.3405 40.4185 36.318 40.4171 36.2939C40.4143 36.2741 40.413 36.2529 40.4116 36.2315C40.4116 36.2046 40.4102 36.1763 40.4102 36.1494V28.7825C40.4102 27.9744 41.0669 27.3176 41.8737 27.3176H47.1812C47.2109 27.3176 47.2392 27.319 47.2691 27.3204C47.2903 27.3218 47.3115 27.3232 47.3314 27.326C47.3541 27.3274 47.3752 27.3288 47.3965 27.3331C47.4234 27.3373 47.4503 27.3416 47.4757 27.3486C47.5026 27.3528 47.5296 27.3585 47.555 27.367C47.5847 27.374 47.6144 27.3825 47.6427 27.3925C47.7007 27.4109 47.7574 27.4349 47.8125 27.4604C47.8664 27.4874 47.9187 27.5157 47.9697 27.5482C47.9952 27.5652 48.0193 27.5822 48.0447 27.6006C48.0675 27.6161 48.0899 27.6346 48.1127 27.6516C48.1396 27.6744 48.1665 27.6982 48.1919 27.7238C48.2103 27.7408 48.2287 27.7592 48.2457 27.7776C48.2656 27.7974 48.2839 27.8186 48.3023 27.8399C48.3051 27.8441 48.3079 27.8484 48.3122 27.8512C48.3476 27.895 48.3801 27.9403 48.4099 27.9871L48.4126 27.9884L48.373 28.0209L48.5047 28.1526L51.5702 31.2197L51.7626 31.4126Z" fill="url(#paint13_linear_1032_2546)"/>
<path d="M47.1812 36.7515H41.8728C41.538 36.7515 41.2666 36.4802 41.2666 36.1453V28.7826C41.2666 28.4478 41.5379 28.1764 41.8728 28.1764H47.1812C47.516 28.1764 47.7874 28.4477 47.7874 28.7826V36.1453C47.7874 36.4802 47.5161 36.7515 47.1812 36.7515Z" fill="#503837"/>
<path d="M48.5043 28.153C48.476 28.0964 48.4463 28.0413 48.4123 27.9888L48.4095 27.9874C48.3798 27.9407 48.3472 27.8954 48.3119 27.8516C48.3077 27.8488 48.3049 27.8445 48.302 27.8403C48.2834 27.8191 48.2652 27.7979 48.2454 27.778C48.2283 27.7594 48.2099 27.7412 48.1915 27.7241C48.166 27.6986 48.1391 27.6745 48.1123 27.652C48.0896 27.635 48.0671 27.6166 48.0444 27.601C48.0189 27.5825 47.9947 27.5656 47.9694 27.5486C47.9183 27.5161 47.866 27.4878 47.8122 27.4608C47.757 27.4353 47.7005 27.4112 47.6423 27.3929C47.614 27.383 47.5843 27.3744 47.5546 27.3674C47.5291 27.3589 47.5022 27.3533 47.4754 27.349C47.4499 27.3419 47.423 27.3377 47.3962 27.3335C47.375 27.3293 47.3538 27.3279 47.331 27.3264C47.3112 27.3236 47.29 27.3222 47.2687 27.3208C47.239 27.3194 47.2107 27.318 47.1809 27.318H41.8732C41.0664 27.318 40.4097 27.9748 40.4097 28.7829V36.1498C40.4097 36.1767 40.4111 36.205 40.4111 36.2319C40.4125 36.2531 40.4139 36.2743 40.4166 36.2942C40.418 36.3184 40.4222 36.341 40.4266 36.3636C40.4321 36.416 40.4436 36.4683 40.4577 36.5193C40.4662 36.549 40.4731 36.5774 40.4846 36.6071C40.503 36.6651 40.527 36.7218 40.5511 36.7755C40.578 36.8294 40.6077 36.8831 40.6403 36.9327C40.6558 36.9582 40.6728 36.9837 40.6914 37.0077C40.7084 37.0318 40.7268 37.0558 40.7466 37.0784C40.7664 37.1012 40.7848 37.1236 40.806 37.145C40.8258 37.1663 40.8456 37.186 40.867 37.2059C40.8897 37.2272 40.9108 37.2483 40.9363 37.2682C40.9561 37.2852 40.9773 37.3023 40.9986 37.3193C41.0014 37.3207 41.0042 37.3235 41.0071 37.3249C41.0298 37.3419 41.0552 37.3589 41.0806 37.3745C41.082 37.3759 41.082 37.3773 41.0834 37.3773C41.3099 37.5259 41.5816 37.6094 41.8732 37.6094H47.1807C47.9889 37.6094 48.6456 36.9526 48.6456 36.1458V28.7832C48.6459 28.5578 48.5936 28.3441 48.5043 28.153ZM46.9305 35.8935H42.1254V29.0347H46.9306L46.9305 35.8935Z" fill="white"/>
<path d="M52.7581 40.9987V44.1476C52.7581 44.6156 52.3787 44.9951 51.9107 44.9951H13.0896C12.6217 44.9951 12.2422 44.6156 12.2422 44.1476V40.9987C12.2422 40.5308 12.6217 40.1513 13.0896 40.1513H51.9107C52.3787 40.1512 52.7581 40.5306 52.7581 40.9987Z" fill="url(#paint14_linear_1032_2546)"/>
<path d="M38.9386 62.3318H22.2943L17.415 57.4525C17.4137 57.4525 17.4137 57.4512 17.4123 57.4498C17.3872 57.4339 17.362 57.4168 17.3383 57.3995C17.3356 57.3982 17.3331 57.3956 17.3304 57.3942C17.3092 57.3769 17.2881 57.3598 17.2683 57.3439C17.2432 57.324 17.2209 57.3029 17.1983 57.2804C17.1771 57.2605 17.1574 57.2408 17.1375 57.2196C17.1162 57.1984 17.0978 57.1761 17.0779 57.1536C17.058 57.1311 17.0396 57.1074 17.0223 57.0823C17.005 57.0584 16.9879 57.0334 16.972 57.0082C16.939 56.958 16.91 56.9052 16.8834 56.851C16.8583 56.7967 16.8344 56.74 16.816 56.6819C16.8055 56.6528 16.7975 56.6237 16.7896 56.5946C16.7751 56.5431 16.7645 56.4915 16.7579 56.4386C16.7539 56.4161 16.75 56.3937 16.7486 56.3699C16.7459 56.3501 16.7447 56.329 16.7434 56.3078C16.7421 56.28 16.7407 56.2524 16.7407 56.2246V48.858C16.7407 48.0504 17.3976 47.3937 18.205 47.3937H23.5125C23.5416 47.3937 23.5707 47.395 23.5997 47.3964C23.6209 47.3976 23.642 47.399 23.6618 47.4017C23.6843 47.403 23.7054 47.4056 23.7278 47.4096C23.7542 47.4135 23.7808 47.4174 23.8071 47.4241C23.8335 47.4294 23.86 47.4346 23.885 47.4426C23.9155 47.4505 23.9445 47.4583 23.9736 47.469C24.0318 47.4875 24.0886 47.5113 24.1427 47.5364C24.1969 47.5628 24.2497 47.5919 24.3 47.625C24.3264 47.6408 24.3503 47.658 24.3753 47.6766C24.3978 47.6923 24.4202 47.711 24.4427 47.7281C24.4705 47.7506 24.4969 47.7743 24.5219 47.7995C24.5405 47.8167 24.5589 47.8351 24.5761 47.8537C24.5961 47.8736 24.6145 47.8947 24.633 47.9157C24.6357 47.9197 24.6382 47.9236 24.6423 47.9275C24.678 47.9711 24.711 48.0162 24.74 48.0624C24.74 48.0624 24.7427 48.0636 24.7427 48.065L24.7031 48.0968L27.9013 51.295L28.7788 52.1725L29.5837 52.9774L30.7124 54.1061L34.1155 57.5092L34.9944 58.3881L38.9386 62.3318Z" fill="url(#paint15_linear_1032_2546)"/>
<path d="M23.5133 56.8273H18.2048C17.8701 56.8273 17.5986 56.556 17.5986 56.2211V48.8583C17.5986 48.5235 17.8699 48.2521 18.2048 48.2521H23.5133C23.848 48.2521 24.1195 48.5234 24.1195 48.8583V56.2211C24.1195 56.5557 23.848 56.8273 23.5133 56.8273Z" fill="#503837"/>
<path d="M24.8354 48.2286C24.8085 48.1719 24.7774 48.1168 24.7433 48.0644L24.7405 48.063C24.7108 48.0163 24.6782 47.971 24.6429 47.9272C24.6387 47.9244 24.6358 47.9201 24.633 47.9159C24.6146 47.8947 24.5962 47.8735 24.5764 47.8535C24.5594 47.835 24.541 47.8167 24.5226 47.7997C24.497 47.7742 24.4701 47.7501 24.4433 47.7276C24.4206 47.7106 24.3981 47.6922 24.3754 47.6766C24.3499 47.658 24.3272 47.6411 24.3004 47.6241C24.2508 47.5916 24.1971 47.5633 24.1432 47.5364C24.0894 47.5109 24.0315 47.4868 23.9734 47.4685C23.9451 47.4586 23.9153 47.4499 23.8855 47.443C23.86 47.4345 23.8331 47.4289 23.8077 47.4246C23.7808 47.4175 23.7539 47.4133 23.7285 47.4091C23.7057 47.4049 23.6847 47.4035 23.6619 47.402C23.6421 47.3992 23.6209 47.3978 23.5996 47.3964C23.5713 47.395 23.5416 47.3936 23.5118 47.3936H18.2042C17.3975 47.3936 16.7407 48.0503 16.7407 48.8585V56.2253C16.7407 56.2522 16.7421 56.2806 16.7435 56.3075C16.7449 56.3287 16.7463 56.3499 16.7477 56.3698C16.7491 56.3939 16.7533 56.4165 16.7576 56.4391C16.7647 56.4916 16.7746 56.5439 16.7887 56.5949C16.7972 56.6246 16.8057 56.6529 16.8156 56.6826C16.834 56.7406 16.858 56.7974 16.8835 56.8511C16.9091 56.9049 16.9388 56.9586 16.9714 57.0083C16.9869 57.0338 17.0054 57.0593 17.0224 57.0833C17.0394 57.1073 17.0579 57.1314 17.0777 57.154C17.0975 57.1767 17.1159 57.1992 17.1371 57.2205C17.1569 57.2418 17.1767 57.2615 17.1979 57.2815C17.2206 57.3028 17.2431 57.3239 17.2672 57.3438C17.287 57.3608 17.3082 57.3778 17.3295 57.3948C17.3323 57.3962 17.3351 57.399 17.338 57.4004C17.3622 57.4174 17.3862 57.4344 17.4115 57.45C17.4129 57.4514 17.4129 57.4528 17.4143 57.4528C17.6422 57.6015 17.9125 57.6849 18.2041 57.6849H23.5116C24.3198 57.6849 24.9765 57.0282 24.9765 56.2214V48.8587C24.9768 48.6333 24.9258 48.4197 24.8354 48.2286ZM23.2614 55.969H18.4564V49.1102H23.2614V55.969Z" fill="white"/>
<path d="M51.7626 51.4881V62.3311H45.9626L41.0839 57.4524C41.0825 57.4524 41.0825 57.451 41.0811 57.4496C41.0556 57.4341 41.0301 57.417 41.0076 57.4C41.0048 57.3986 41.002 57.3958 40.9991 57.3944C40.9778 57.3774 40.9567 57.3603 40.9368 57.3433C40.9112 57.3234 40.8902 57.3023 40.8674 57.281C40.8461 57.2612 40.8264 57.2414 40.8065 57.2201C40.7852 57.1989 40.7669 57.1763 40.7471 57.1535C40.7273 57.1308 40.7089 57.1068 40.6919 57.0828C40.6735 57.0587 40.6564 57.0332 40.6408 57.0078C40.6083 56.9582 40.5785 56.9045 40.5516 56.8506C40.5275 56.7968 40.5035 56.7403 40.4851 56.6822C40.4738 56.6524 40.4667 56.6241 40.4581 56.5944C40.4441 56.5434 40.4326 56.4911 40.427 56.4387C40.4229 56.4159 40.4185 56.3935 40.4171 56.3693C40.4143 56.3495 40.413 56.3283 40.4116 56.307C40.4116 56.2801 40.4102 56.2518 40.4102 56.2249V48.858C40.4102 48.0499 41.0669 47.3931 41.8737 47.3931H47.1812C47.2109 47.3931 47.2392 47.3945 47.2691 47.3959C47.2903 47.3973 47.3115 47.3987 47.3314 47.4015C47.3541 47.4029 47.3752 47.4043 47.3965 47.4086C47.4234 47.4128 47.4503 47.4171 47.4757 47.4241C47.5026 47.4283 47.5296 47.434 47.555 47.4425C47.5847 47.4495 47.6144 47.458 47.6427 47.468C47.7007 47.4864 47.7574 47.5104 47.8125 47.5359C47.8664 47.5629 47.9187 47.5912 47.9697 47.6237C47.9952 47.6407 48.0193 47.6577 48.0447 47.6761C48.0675 47.6916 48.0899 47.7101 48.1127 47.7271C48.1396 47.7499 48.1665 47.7737 48.1919 47.7992C48.2103 47.8163 48.2287 47.8347 48.2457 47.8531C48.2656 47.8729 48.2839 47.8941 48.3023 47.9154C48.3051 47.9196 48.3079 47.9239 48.3122 47.9267C48.3476 47.9705 48.3801 48.0158 48.4099 48.0625L48.4126 48.0639L48.373 48.0964L48.5047 48.2281L51.5702 51.2952L51.7626 51.4881Z" fill="url(#paint16_linear_1032_2546)"/>
<path d="M47.1812 56.8273H41.8728C41.538 56.8273 41.2666 56.556 41.2666 56.2211V48.8583C41.2666 48.5235 41.5379 48.2521 41.8728 48.2521H47.1812C47.516 48.2521 47.7874 48.5234 47.7874 48.8583V56.2211C47.7874 56.5557 47.5161 56.8273 47.1812 56.8273Z" fill="#503837"/>
<path d="M48.5043 48.2286C48.476 48.1719 48.4463 48.1168 48.4123 48.0644L48.4095 48.063C48.3798 48.0163 48.3472 47.971 48.3119 47.9272C48.3077 47.9244 48.3049 47.9201 48.302 47.9159C48.2834 47.8947 48.2652 47.8735 48.2454 47.8535C48.2283 47.835 48.2099 47.8167 48.1915 47.7997C48.166 47.7742 48.1391 47.7501 48.1123 47.7276C48.0896 47.7106 48.0671 47.6922 48.0444 47.6766C48.0189 47.658 47.9947 47.6411 47.9694 47.6241C47.9183 47.5916 47.866 47.5633 47.8122 47.5364C47.757 47.5109 47.7005 47.4868 47.6423 47.4685C47.614 47.4586 47.5843 47.4499 47.5546 47.443C47.5291 47.4345 47.5022 47.4289 47.4754 47.4246C47.4499 47.4175 47.423 47.4133 47.3962 47.4091C47.375 47.4049 47.3538 47.4035 47.331 47.402C47.3112 47.3992 47.29 47.3978 47.2687 47.3964C47.239 47.395 47.2107 47.3936 47.1809 47.3936H41.8732C41.0664 47.3936 40.4097 48.0503 40.4097 48.8585V56.2253C40.4097 56.2522 40.4111 56.2806 40.4111 56.3075C40.4125 56.3287 40.4139 56.3499 40.4166 56.3698C40.418 56.3939 40.4222 56.4165 40.4266 56.4391C40.4321 56.4916 40.4436 56.5439 40.4577 56.5949C40.4662 56.6246 40.4731 56.6529 40.4846 56.6826C40.503 56.7406 40.527 56.7974 40.5511 56.8511C40.578 56.9049 40.6077 56.9586 40.6403 57.0083C40.6558 57.0338 40.6728 57.0593 40.6914 57.0833C40.7084 57.1074 40.7268 57.1314 40.7466 57.154C40.7664 57.1767 40.7848 57.1992 40.806 57.2205C40.8258 57.2418 40.8456 57.2615 40.867 57.2815C40.8897 57.3028 40.9108 57.3239 40.9363 57.3438C40.9561 57.3608 40.9773 57.3778 40.9986 57.3948C41.0014 57.3962 41.0042 57.399 41.0071 57.4004C41.0298 57.4174 41.0552 57.4344 41.0806 57.45C41.082 57.4514 41.082 57.4528 41.0834 57.4528C41.3099 57.6015 41.5816 57.6849 41.8732 57.6849H47.1807C47.9889 57.6849 48.6456 57.0282 48.6456 56.2214V48.8587C48.6459 48.6333 48.5936 48.4197 48.5043 48.2286ZM46.9305 55.969H42.1254V49.1102H46.9306L46.9305 55.969Z" fill="white"/>
<path d="M28.0889 65V50.3987C28.0889 49.3787 28.9157 48.5517 29.9359 48.5517H35.0646C36.0847 48.5517 36.9116 49.3785 36.9116 50.3987V65H28.0889Z" fill="#FFBF5C"/>
<path d="M38.0042 65H35.8195V51.0283C35.8195 50.267 35.1965 49.644 34.4352 49.644H30.5656C29.801 49.644 29.1813 50.2638 29.1813 51.0283V65H26.9966V49.5836C26.9966 48.4104 27.9476 47.4593 29.1209 47.4593H35.8799C37.0531 47.4593 38.0042 48.4103 38.0042 49.5836V65Z" fill="#FFE7A5"/>
<path d="M30.9352 58.2281C31.4854 58.2281 31.9314 57.782 31.9314 57.2319C31.9314 56.6817 31.4854 56.2357 30.9352 56.2357C30.385 56.2357 29.939 56.6817 29.939 57.2319C29.939 57.782 30.385 58.2281 30.9352 58.2281Z" fill="white"/>
<path d="M14.9126 62.594C14.9126 63.4437 14.7517 64.2547 14.4583 65H2.22182C1.92843 64.2547 1.76758 63.4437 1.76758 62.594C1.76758 61.7666 1.92018 60.9755 2.19947 60.2467C3.14426 57.775 5.53745 56.0216 8.34007 56.0216C11.1427 56.0216 13.5359 57.7751 14.4807 60.2467C14.7601 60.9755 14.9126 61.7666 14.9126 62.594Z" fill="url(#paint17_linear_1032_2546)"/>
<path d="M19.1507 63.2547C19.1507 63.871 19.034 64.4593 18.8212 65H9.94468C9.73178 64.4593 9.61523 63.871 9.61523 63.2547C9.61523 62.6546 9.72581 62.0806 9.92855 61.552C10.6138 59.759 12.3499 58.4871 14.383 58.4871C16.416 58.4871 18.1521 59.759 18.8374 61.552C19.0398 62.0806 19.1507 62.6544 19.1507 63.2547Z" fill="#9EB644"/>
<defs>
<linearGradient id="paint0_linear_1032_2546" x1="45.3683" y1="52.0319" x2="53.9774" y2="60.6423" gradientUnits="userSpaceOnUse">
<stop stop-color="#9EB644"/>
<stop offset="1" stop-color="#738611"/>
</linearGradient>
<linearGradient id="paint1_linear_1032_2546" x1="51.1525" y1="57.3647" x2="60.6831" y2="66.894" gradientUnits="userSpaceOnUse">
<stop stop-color="#9EB644"/>
<stop offset="1" stop-color="#738611"/>
</linearGradient>
<linearGradient id="paint2_linear_1032_2546" x1="32.4999" y1="18.5719" x2="32.4999" y2="119.658" gradientUnits="userSpaceOnUse">
<stop stop-color="#FF931E"/>
<stop offset="1" stop-color="#FF5D00"/>
</linearGradient>
<linearGradient id="paint3_linear_1032_2546" x1="32.4997" y1="11.0703" x2="32.4997" y2="-0.424618" gradientUnits="userSpaceOnUse">
<stop stop-color="#FF5D00" stop-opacity="0"/>
<stop offset="1" stop-color="#D54003"/>
</linearGradient>
<linearGradient id="paint4_linear_1032_2546" x1="32.4997" y1="30.9663" x2="32.4997" y2="19.4717" gradientUnits="userSpaceOnUse">
<stop stop-color="#FF5D00" stop-opacity="0"/>
<stop offset="1" stop-color="#D54003"/>
</linearGradient>
<linearGradient id="paint5_linear_1032_2546" x1="32.4997" y1="50.8635" x2="32.4997" y2="39.3677" gradientUnits="userSpaceOnUse">
<stop stop-color="#FF5D00" stop-opacity="0"/>
<stop offset="1" stop-color="#D54003"/>
</linearGradient>
<linearGradient id="paint6_linear_1032_2546" x1="32.4995" y1="0.516311" x2="32.4995" y2="6.94225" gradientUnits="userSpaceOnUse">
<stop stop-color="#FFE7A5"/>
<stop offset="0.966" stop-color="#FFBF5C"/>
</linearGradient>
<linearGradient id="paint7_linear_1032_2546" x1="27.1454" y1="18.6753" x2="14.7153" y2="6.24591" gradientUnits="userSpaceOnUse">
<stop stop-color="#FF5D00" stop-opacity="0"/>
<stop offset="1" stop-color="#D54003"/>
</linearGradient>
<linearGradient id="paint8_linear_1032_2546" x1="38.9785" y1="18.6754" x2="26.5497" y2="6.24602" gradientUnits="userSpaceOnUse">
<stop stop-color="#FF5D00" stop-opacity="0"/>
<stop offset="1" stop-color="#D54003"/>
</linearGradient>
<linearGradient id="paint9_linear_1032_2546" x1="47.678" y1="15.5395" x2="38.9643" y2="6.82584" gradientUnits="userSpaceOnUse">
<stop stop-color="#FF5D00" stop-opacity="0"/>
<stop offset="1" stop-color="#D54003"/>
</linearGradient>
<linearGradient id="paint10_linear_1032_2546" x1="32.4995" y1="20.5919" x2="32.4995" y2="27.0179" gradientUnits="userSpaceOnUse">
<stop stop-color="#FFE7A5"/>
<stop offset="0.966" stop-color="#FFBF5C"/>
</linearGradient>
<linearGradient id="paint11_linear_1032_2546" x1="27.1454" y1="38.7508" x2="14.7154" y2="26.3208" gradientUnits="userSpaceOnUse">
<stop stop-color="#FF5D00" stop-opacity="0"/>
<stop offset="1" stop-color="#D54003"/>
</linearGradient>
<linearGradient id="paint12_linear_1032_2546" x1="38.9786" y1="38.7509" x2="26.5498" y2="26.3209" gradientUnits="userSpaceOnUse">
<stop stop-color="#FF5D00" stop-opacity="0"/>
<stop offset="1" stop-color="#D54003"/>
</linearGradient>
<linearGradient id="paint13_linear_1032_2546" x1="47.6778" y1="35.614" x2="38.9642" y2="26.9016" gradientUnits="userSpaceOnUse">
<stop stop-color="#FF5D00" stop-opacity="0"/>
<stop offset="1" stop-color="#D54003"/>
</linearGradient>
<linearGradient id="paint14_linear_1032_2546" x1="32.4995" y1="40.6676" x2="32.4995" y2="47.0922" gradientUnits="userSpaceOnUse">
<stop stop-color="#FFE7A5"/>
<stop offset="0.966" stop-color="#FFBF5C"/>
</linearGradient>
<linearGradient id="paint15_linear_1032_2546" x1="27.1453" y1="58.8252" x2="14.7153" y2="46.3965" gradientUnits="userSpaceOnUse">
<stop stop-color="#FF5D00" stop-opacity="0"/>
<stop offset="1" stop-color="#D54003"/>
</linearGradient>
<linearGradient id="paint16_linear_1032_2546" x1="47.6778" y1="55.6896" x2="38.9642" y2="46.976" gradientUnits="userSpaceOnUse">
<stop stop-color="#FF5D00" stop-opacity="0"/>
<stop offset="1" stop-color="#D54003"/>
</linearGradient>
<linearGradient id="paint17_linear_1032_2546" x1="4.63327" y1="58.5025" x2="12.7441" y2="66.6121" gradientUnits="userSpaceOnUse">
<stop stop-color="#9EB644"/>
<stop offset="1" stop-color="#738611"/>
</linearGradient>
</defs>
</svg>
