<svg width="65" height="65" viewBox="0 0 65 65" fill="none" xmlns="http://www.w3.org/2000/svg">
<g clip-path="url(#clip0_1032_2585)">
<path d="M11.4076 45.8648C10.4264 45.8648 9.51534 45.2365 9.20108 44.2517C8.81217 43.0328 9.48485 41.7293 10.7038 41.3403L18.8524 38.7398L19.4088 36.8588L22.4651 36.1169L23.8344 38.2323L22.9476 41.2308C22.7299 41.9669 22.1616 42.5474 21.4304 42.7808L12.1125 45.7545C11.8783 45.8293 11.6409 45.8648 11.4076 45.8648Z" fill="#FDB814"/>
<path d="M23.8343 38.2323L25.4258 32.8512C25.7887 31.6242 25.0882 30.3354 23.8612 29.9725C22.634 29.6096 21.3454 30.3101 20.9826 31.5371L19.4087 36.8589L23.8343 38.2323Z" fill="#8DC63F"/>
<path d="M32.3044 65C31.4236 65 30.7094 64.286 30.7094 63.4051V53.4803H24.432V63.4051C24.432 64.286 23.718 65 22.8371 65C21.9563 65 21.2422 64.286 21.2422 63.4051V51.8853C21.2422 51.0044 21.9563 50.2904 22.8371 50.2904H32.3044C33.1852 50.2904 33.8993 51.0044 33.8993 51.8853V63.4051C33.8993 64.286 33.1852 65 32.3044 65Z" fill="#303844"/>
<path d="M57.6899 65C56.2808 65 55.0042 64.036 54.6654 62.6052L51.7794 50.4134C51.7237 50.1786 51.6958 49.9381 51.6958 49.6968V37.0241C51.6958 35.306 53.0885 33.9133 54.8066 33.9133C56.5246 33.9133 57.9173 35.306 57.9173 37.0241V49.3337L60.7198 61.172C61.1156 62.8439 60.081 64.52 58.4093 64.9158C58.1682 64.9727 57.9271 65 57.6899 65Z" fill="#FDB814"/>
<path d="M45.3063 65C45.2616 65 45.2169 64.9991 45.1716 64.9972C43.4552 64.9241 42.123 63.4733 42.1962 61.7568L42.7554 48.635C42.7648 48.4106 42.7987 48.1879 42.8562 47.9709L45.9669 36.2281C46.4067 34.5673 48.1096 33.5779 49.7706 34.0177C51.4314 34.4576 52.4209 36.1605 51.9811 37.8213L48.9568 49.2374L48.412 62.0217C48.3409 63.693 46.9634 65 45.3063 65Z" fill="#FDB814"/>
<path d="M6.06661 65C5.65716 65 5.24133 64.9127 4.84578 64.7285C3.39593 64.0532 2.76804 62.3304 3.4434 60.8806L10.3335 46.0879C10.7354 45.2251 11.5356 44.6148 12.4739 44.4556L26.3239 42.1043C27.9 41.8367 29.396 42.8978 29.6636 44.4746C29.9313 46.0514 28.87 47.5467 27.2932 47.8144L14.9418 49.9113L8.69352 63.3259C8.20266 64.3804 7.15767 65 6.06661 65Z" fill="#303844"/>
<path d="M18.1664 65C16.8092 65.0002 15.5978 64.0414 15.3275 62.6593L12.8961 50.227C12.7407 49.4323 12.9251 48.6089 13.4046 47.9563C13.8841 47.3038 14.615 46.8819 15.4198 46.7928L30.8677 45.0841C32.4579 44.9077 33.8885 46.0544 34.0644 47.644C34.2402 49.2337 33.0942 50.6649 31.5044 50.8407L19.1842 52.2034L21.0115 61.5475C21.3185 63.1171 20.2948 64.6384 18.7253 64.9453C18.5379 64.9824 18.3507 65 18.1664 65Z" fill="#303844"/>
<path d="M34.2426 31.1261C33.3362 31.1261 32.4663 30.6179 32.0471 29.7467C31.464 28.5351 31.9734 27.0803 33.1851 26.4972L43.6511 21.4604L51.9333 13.5257C52.9043 12.5954 54.4454 12.6285 55.3756 13.5994C56.3058 14.5703 56.2728 16.1115 55.3019 17.0416L46.7401 25.2442C46.5548 25.4217 46.3427 25.5686 46.1115 25.6799L35.2965 30.8846C34.9563 31.0486 34.5967 31.1261 34.2426 31.1261Z" fill="#FDB814"/>
<path d="M45.4561 15.4743C45.7464 13.8879 47.0327 12.7412 48.5276 12.7412H53.9438C55.4419 12.7412 56.7245 13.8846 57.0152 15.4743L61.8028 41.6396C61.8802 42.0623 61.7783 42.5002 61.5256 42.8333C61.2728 43.1665 60.8953 43.361 60.4969 43.361C56.4508 43.361 46.0178 43.361 41.9744 43.361C41.5758 43.361 41.1982 43.1676 40.9453 42.8344C40.6924 42.5011 40.5911 42.0627 40.6685 41.6397L45.4561 15.4743Z" fill="#FF8718"/>
<path d="M51.2354 10.7452C54.2026 10.7452 56.608 8.33983 56.608 5.37261C56.608 2.4054 54.2026 0 51.2354 0C48.2682 0 45.8628 2.4054 45.8628 5.37261C45.8628 8.33983 48.2682 10.7452 51.2354 10.7452Z" fill="#FDB814"/>
<path d="M30.7035 26.083L24.4281 26.0341C22.4847 26.0189 20.897 27.5822 20.8818 29.5256L20.7794 42.6749C20.7584 45.384 22.9373 47.5972 25.6464 47.6183L34.0543 47.6838L34.195 29.6292C34.2101 27.6858 32.6469 26.098 30.7035 26.083Z" fill="#8DC63F"/>
<path d="M32.1403 17.2073C31.2424 14.474 28.2988 12.986 25.5655 13.8839C22.8322 14.7818 21.3442 17.7254 22.2421 20.4587C23.1399 23.192 26.0835 24.6799 28.8169 23.7821C31.5502 22.8844 33.0382 19.9406 32.1403 17.2073Z" fill="#FDB814"/>
<path d="M31.8059 24.9825L30.5659 22.7494L33.0317 18.7398L35.0838 6.70727C35.2989 5.446 36.4943 4.59775 37.757 4.813C39.0183 5.02812 39.8664 6.22496 39.6513 7.48623L37.5238 19.9609C37.474 20.2529 37.3686 20.5326 37.2135 20.785L34.5802 25.0671L31.8059 24.9825Z" fill="#FDB814"/>
<path d="M30.5658 22.7493L27.0985 28.3877C26.4282 29.4776 26.7685 30.9045 27.8584 31.5748C28.2369 31.8075 28.6559 31.9184 29.0698 31.9184C29.848 31.9184 30.608 31.5263 31.0455 30.815L34.5808 25.0659L30.5658 22.7493Z" fill="#8DC63F"/>
<path d="M45.372 17.7026L41.7172 16.6779C41.4698 16.61 41.2348 16.5035 41.0206 16.3622L32.3944 10.6709C31.2721 9.93034 30.9625 8.42026 31.703 7.29794C32.4434 6.17562 33.9536 5.86608 35.0759 6.60651L43.3789 12.0846L46.5351 12.9704L47.1395 15.6472L45.372 17.7026Z" fill="#FDB814"/>
<path d="M51.9688 14.4953L46.5351 12.9704L45.3721 17.7026L50.6806 19.191C50.7557 19.2115 50.8308 19.2284 50.906 19.2415C52.129 19.4566 53.3375 18.7089 53.6727 17.4871C54.0282 16.1906 53.2654 14.851 51.9688 14.4953Z" fill="#FF8718"/>
</g>
<defs>
<clipPath id="clip0_1032_2585">
<rect width="65" height="65" fill="white"/>
</clipPath>
</defs>
</svg>
