<svg width="65" height="65" viewBox="0 0 65 65" fill="none" xmlns="http://www.w3.org/2000/svg">
<path d="M49.3956 27.055L49.3956 60.6502C49.3956 62.3592 48.0193 63.7449 46.2938 63.7449L8.13354 63.7449C6.42033 63.7449 5.03174 62.3675 5.03174 60.6502L5.03175 11.1267C5.03175 9.41772 6.40809 8.03201 8.13355 8.03201L46.2937 8.03201C48.0069 8.03201 49.3955 9.40942 49.3955 11.1267L49.3955 17.8442" fill="white"/>
<path d="M50.4273 11.1263L50.4273 17.8438C50.4273 18.4132 49.9651 18.8755 49.3955 18.8755C48.8261 18.8755 48.3638 18.4134 48.3638 17.8438L48.3638 11.1263C48.3638 9.98892 47.4348 9.06339 46.2931 9.06339L8.13312 9.06339C6.99148 9.06339 6.06294 9.98892 6.06294 11.1263L6.06293 60.6498C6.06339 61.7872 6.99148 62.7127 8.13312 62.7127L46.2933 62.7127C47.4349 62.7127 48.3639 61.7872 48.3639 60.6498L48.3639 27.0546C48.3639 26.4851 48.8261 26.0228 49.3957 26.0228C49.9651 26.0228 50.4274 26.485 50.4274 27.0546L50.4274 60.6498C50.4274 62.9252 48.5729 64.7761 46.2934 64.7761L8.13312 64.7761C5.85407 64.7761 4 62.9252 4 60.6498L4.00001 11.1263C4.00001 8.85091 5.85453 7 8.13358 7L46.2937 7.00001C48.5728 7.00001 50.4273 8.85091 50.4273 11.1263Z" fill="#303844"/>
<path d="M26 28H10V38H26V28Z" fill="#FFF56D"/>
<path d="M27.0001 39H10C9.44809 39 9 38.5521 9 38V28C9 27.4481 9.44795 27 10 27H27C27.5519 27 28 27.4479 28 28V38C28 38.5519 27.5521 39 27.0001 39ZM11.0001 36.9999H26.0001V29.0001H11.0001V36.9999Z" fill="#303844"/>
<path d="M46 28H30V30H46V28Z" fill="#8DC63F"/>
<path d="M34.793 49H9V51.0634H34.793V49Z" fill="#8DC63F"/>
<path d="M34.793 57H9V59.0634H34.793V57Z" fill="#8DC63F"/>
<path d="M46 36H30V38H46V36Z" fill="#FDB814"/>
<path d="M46 32H30V34H46V32Z" fill="#8DC63F"/>
<path d="M46 41H9V43H46V41Z" fill="#8DC63F"/>
<path d="M46 45H9V47H46V45Z" fill="#FDB814"/>
<path d="M46 53H9V55H46V53Z" fill="#FDB814"/>
<path d="M15.3061 19.1753H15.4594V13.8928C15.4594 13.7567 15.4677 13.6282 15.4846 13.5074C15.5017 13.3867 15.5387 13.2815 15.596 13.1928C15.6533 13.1035 15.7379 13.0323 15.8508 12.9792C15.9633 12.926 16.117 12.8997 16.3125 12.8997C16.5286 12.8997 16.6994 12.9265 16.8247 12.9792C16.9495 13.0329 17.0444 13.1036 17.1079 13.1928C17.1714 13.2815 17.2116 13.3867 17.2287 13.5074C17.2457 13.6282 17.2545 13.7567 17.2545 13.8928V20.3467C17.2545 20.5335 17.2488 20.714 17.2385 20.8879C17.2282 21.0619 17.1941 21.2182 17.1369 21.3558C17.0797 21.4935 16.9863 21.6034 16.8569 21.6865C16.7274 21.7696 16.5459 21.8109 16.3127 21.8109H15.4724C15.2727 21.8109 15.1062 21.7718 14.9725 21.6933C14.8389 21.6149 14.7275 21.5189 14.6388 21.406C14.5494 21.294 14.4783 21.1765 14.4252 21.0531C14.372 20.9304 14.3308 20.8261 14.3014 20.741L12.3789 15.5344H12.2263V20.8174C12.2263 20.9535 12.2175 21.0815 12.201 21.2021C12.184 21.3229 12.1469 21.4281 12.0897 21.5174C12.0324 21.6061 11.9473 21.6779 11.8348 21.7305C11.7224 21.7831 11.5681 21.81 11.3731 21.81C11.1523 21.81 10.9785 21.7831 10.8511 21.7305C10.7237 21.6779 10.6282 21.6061 10.5649 21.5174C10.501 21.4282 10.4608 21.3229 10.4437 21.2021C10.4272 21.0814 10.4185 20.9535 10.4185 20.8174V14.3635C10.4185 14.1809 10.4236 14.0018 10.4345 13.8259C10.4448 13.65 10.4798 13.4926 10.5392 13.355C10.5986 13.2173 10.6929 13.1068 10.8224 13.0238C10.9519 12.9407 11.135 12.8994 11.3728 12.8994H12.2131C12.4252 12.8994 12.5979 12.9407 12.7321 13.0238C12.8657 13.1063 12.9751 13.1966 13.0596 13.2942C13.153 13.4088 13.2272 13.5402 13.283 13.6888L15.3061 19.1753Z" fill="#303844"/>
<path d="M24.0904 18.1823C24.0904 18.2505 24.0863 18.3298 24.078 18.4211C24.0697 18.5124 24.0367 18.5996 23.9795 18.6821C23.9222 18.7652 23.8319 18.8358 23.7091 18.8952C23.5864 18.9546 23.412 18.9844 23.1871 18.9844H20.6537V19.5957C20.6537 19.6972 20.6665 19.8036 20.6919 19.914C20.7178 20.0243 20.761 20.126 20.8225 20.2194C20.8838 20.3132 20.9653 20.3896 21.0681 20.4485C21.1696 20.5079 21.2945 20.5377 21.4436 20.5377C21.6134 20.5377 21.7439 20.5176 21.8352 20.4774C21.9265 20.4372 21.9983 20.3871 22.0519 20.3278C22.1051 20.269 22.1526 20.205 22.1948 20.1369C22.2371 20.0693 22.2933 20.0054 22.3634 19.946C22.4335 19.8866 22.5306 19.8366 22.6559 19.7964C22.7807 19.7562 22.954 19.7361 23.1748 19.7361C23.2806 19.7361 23.3832 19.7448 23.4833 19.7613C23.5829 19.7784 23.671 19.8109 23.7479 19.8573C23.8238 19.9043 23.8856 19.9693 23.9321 20.0518C23.9785 20.1343 24.0023 20.2412 24.0023 20.3732C24.0023 20.6488 23.9151 20.8788 23.7413 21.0635C23.5675 21.2481 23.3486 21.3962 23.0857 21.5055C22.8221 21.6164 22.5374 21.6949 22.2294 21.7413C21.922 21.7883 21.6345 21.8114 21.3669 21.8114C21.0146 21.8067 20.6797 21.7624 20.3614 21.6778C20.0431 21.5932 19.762 21.457 19.5179 21.2702C19.2739 21.0834 19.0795 20.8395 18.9355 20.5381C18.7916 20.2369 18.7188 19.868 18.7188 19.4311V17.9402C18.7188 17.5373 18.7667 17.1959 18.8622 16.9157C18.9577 16.6355 19.0819 16.4024 19.2346 16.2156C19.3872 16.0288 19.559 15.8835 19.7499 15.7798C19.9408 15.6761 20.1338 15.5983 20.3292 15.5472C20.5242 15.4966 20.7099 15.4647 20.8858 15.4518C21.0622 15.4394 21.2139 15.4328 21.3413 15.4328C21.7699 15.4328 22.1358 15.471 22.4391 15.5473C22.7424 15.6237 22.9962 15.7237 23.2001 15.8466C23.4038 15.9693 23.5654 16.1123 23.684 16.2732C23.8026 16.4342 23.8919 16.6013 23.9518 16.7726C24.0112 16.9448 24.0493 17.1193 24.0668 17.2946C24.0833 17.4709 24.092 17.6351 24.092 17.7883V18.1825H24.0904V18.1823ZM20.6532 18.0297H22.2446C22.2446 17.83 22.2389 17.653 22.2286 17.4983C22.2183 17.3435 22.1863 17.2125 22.1332 17.1067C22.0796 17.0009 21.9971 16.9205 21.8851 16.8647C21.7731 16.809 21.6127 16.7822 21.4043 16.7822C21.2305 16.7822 21.0933 16.8096 20.9937 16.8647C20.8941 16.9199 20.8189 16.9885 20.7678 17.071C20.7167 17.1536 20.6847 17.2423 20.6718 17.3357C20.659 17.4291 20.6528 17.5116 20.6528 17.5838V18.0295H20.6532V18.0297Z" fill="#303844"/>
<path d="M29.0798 16.1838C29.2841 16.1838 29.4652 16.2483 29.6245 16.3783C29.7833 16.5072 29.9242 16.74 30.0475 17.0752L30.7223 18.8698H30.8238L31.5367 16.3747C31.5707 16.2565 31.6141 16.1415 31.6673 16.0306C31.7205 15.9207 31.7855 15.8222 31.8618 15.735C31.9377 15.6478 32.029 15.5781 32.1352 15.525C32.241 15.4718 32.3684 15.4455 32.517 15.4455C32.6696 15.4455 32.7991 15.4734 32.9054 15.5281C33.0111 15.5832 33.0983 15.6561 33.1664 15.7448C33.2339 15.8341 33.2829 15.9357 33.3123 16.0502C33.3423 16.1652 33.3572 16.2819 33.3572 16.401C33.3572 16.5155 33.3412 16.6269 33.3093 16.7347C33.2773 16.8424 33.2422 16.9519 33.2046 17.0628L31.7917 20.8177C31.6942 21.0679 31.6059 21.2598 31.5271 21.394C31.4486 21.5276 31.3712 21.6246 31.2949 21.686C31.2191 21.7479 31.1423 21.7835 31.0658 21.7948C30.9899 21.8051 30.9089 21.8102 30.8238 21.8102C30.7304 21.8102 30.6423 21.8045 30.5597 21.7948C30.4772 21.7839 30.394 21.7478 30.3115 21.686C30.229 21.6246 30.1448 21.5271 30.0603 21.394C29.9753 21.2599 29.8865 21.068 29.7925 20.8177L29.1307 18.5268H29.0292L28.342 20.8177C28.2481 21.0679 28.1625 21.2598 28.084 21.394C28.0056 21.5276 27.9288 21.6246 27.8549 21.686C27.7806 21.7479 27.7053 21.7835 27.629 21.7948C27.5526 21.8051 27.4716 21.8102 27.3866 21.8102C27.2932 21.8102 27.2051 21.8045 27.1224 21.7948C27.0399 21.7839 26.9574 21.7478 26.8742 21.686C26.7917 21.6246 26.7081 21.5271 26.6231 21.394C26.5384 21.2599 26.4493 21.068 26.3559 20.8177L24.9295 17.0628C24.8919 16.9612 24.8562 16.8514 24.8248 16.7347C24.7927 16.6182 24.7769 16.5025 24.7769 16.3875C24.7769 16.2648 24.7929 16.1456 24.8248 16.031C24.8568 15.9171 24.9073 15.8164 24.9774 15.7288C25.0475 15.6422 25.1394 15.573 25.2544 15.5225C25.369 15.4714 25.5107 15.4462 25.6805 15.4462C25.7991 15.4462 25.9064 15.4729 26.0019 15.5256C26.0979 15.5793 26.1834 15.6484 26.2599 15.7356C26.3362 15.8228 26.4018 15.9213 26.4574 16.0312C26.5121 16.1421 26.559 16.2571 26.5972 16.3753L27.3994 18.8704H27.501L28.0864 17.0758C28.1927 16.741 28.3335 16.5078 28.5095 16.3789C28.6863 16.2483 28.8761 16.1838 29.0798 16.1838Z" fill="#303844"/>
<path d="M35.9667 17.1128C35.9667 17.1979 35.9945 17.2763 36.0492 17.3485C36.1044 17.4212 36.1798 17.4894 36.2751 17.5548C36.3705 17.6213 36.4805 17.6858 36.6063 17.7493C36.7311 17.8128 36.8617 17.8767 36.9978 17.9402C37.2052 18.0424 37.4177 18.1512 37.6339 18.2683C37.8506 18.3854 38.0482 18.5216 38.2256 18.6785C38.4041 18.8358 38.549 19.0169 38.6621 19.2231C38.7745 19.429 38.8307 19.672 38.8307 19.952C38.8307 20.2064 38.7935 20.4317 38.7187 20.6268C38.6445 20.8218 38.546 20.9911 38.4231 21.1328C38.3004 21.2747 38.1564 21.3928 37.9935 21.4857C37.8304 21.5796 37.6587 21.6539 37.4781 21.7091C37.2975 21.7643 37.1139 21.8035 36.9277 21.8267C36.7409 21.8504 36.565 21.8617 36.3995 21.8617C36.0725 21.8617 35.7882 21.8339 35.5468 21.7792C35.3049 21.7241 35.0971 21.6508 34.9231 21.5595C34.7487 21.4682 34.6059 21.3639 34.4935 21.2478C34.381 21.1318 34.2928 21.0091 34.2293 20.8817C34.1654 20.7547 34.1209 20.6284 34.0952 20.5031C34.07 20.3782 34.0576 20.2622 34.0576 20.1564C34.0576 19.9016 34.1288 19.7154 34.2707 19.5961C34.4126 19.477 34.6302 19.4177 34.9233 19.4177C35.1353 19.4177 35.3091 19.4749 35.4453 19.5899C35.581 19.7045 35.6532 19.8892 35.662 20.1429C35.6661 20.2286 35.6904 20.2962 35.7353 20.3473C35.7797 20.3983 35.8369 20.4396 35.9071 20.4716C35.9773 20.5031 36.0546 20.5248 36.1393 20.5351C36.2244 20.546 36.3069 20.5511 36.3874 20.5511C36.5525 20.5511 36.6877 20.5073 36.7914 20.4201C36.8951 20.3335 36.9477 20.2194 36.9477 20.0796C36.9477 19.961 36.9126 19.85 36.8425 19.7459C36.7723 19.6422 36.6805 19.5452 36.5659 19.456C36.4509 19.3673 36.3203 19.2806 36.1743 19.1981C36.0279 19.1155 35.8783 19.032 35.7255 18.9473C35.5346 18.8452 35.3427 18.7368 35.1492 18.6224C34.9562 18.5078 34.7814 18.3804 34.624 18.2406C34.4667 18.1009 34.3398 17.9431 34.2423 17.7666C34.1448 17.5902 34.0959 17.3899 34.0959 17.1651C34.0959 16.8333 34.15 16.5569 34.2583 16.3346C34.3661 16.1112 34.5245 15.9312 34.7324 15.7934C34.9398 15.6557 35.1941 15.5572 35.4933 15.4978C35.7926 15.4384 36.1325 15.4039 36.5147 15.3962H36.6162C36.9597 15.3962 37.2513 15.4257 37.4911 15.4849C37.7309 15.5443 37.9306 15.6222 38.0894 15.7175C38.2489 15.8129 38.3737 15.9202 38.465 16.039C38.5563 16.1576 38.6244 16.2773 38.6687 16.3981C38.7136 16.5193 38.7414 16.6349 38.7518 16.7452C38.7621 16.8555 38.7672 16.9489 38.7672 17.0253C38.7672 17.1522 38.7409 17.2574 38.6877 17.3399C38.6345 17.423 38.565 17.4885 38.4778 17.5374C38.3912 17.5864 38.2927 17.62 38.1822 17.639C38.0719 17.658 37.9567 17.67 37.8387 17.6736C37.7365 17.6736 37.6442 17.6571 37.5617 17.623C37.4792 17.589 37.408 17.5467 37.3486 17.495C37.2892 17.4443 37.2434 17.3872 37.2114 17.3237C37.1793 17.2598 37.1635 17.1985 37.1635 17.1391C37.1547 16.9781 37.0902 16.8548 36.9696 16.7697C36.8488 16.6851 36.7009 16.6427 36.5275 16.6427C36.4553 16.6427 36.3867 16.65 36.3206 16.665C36.2552 16.6799 36.1958 16.7052 36.1421 16.7413C36.0889 16.777 36.0468 16.8249 36.0152 16.8841C35.9838 16.9436 35.9667 17.02 35.9667 17.1128Z" fill="#303844"/>
</svg>
