<svg width="65" height="65" viewBox="0 0 65 65" fill="none" xmlns="http://www.w3.org/2000/svg">
<path d="M11.4258 11.4258V47.8613H7.61719V15.2344L11.4258 11.4258Z" fill="#4A515B"/>
<path d="M11.4258 11.4258V47.8613H9.52148V13.3301L11.4258 11.4258Z" fill="#FFF56D"/>
<path d="M42.1484 53.5742H47.8613V57.3828H42.1484V53.5742Z" fill="#4A515B"/>
<path d="M49.7656 61.1914H42.1484V65H45.957L49.7656 61.1914Z" fill="#4A515B"/>
<path d="M57.3828 17.1387V49.7656L53.5742 53.5742V17.1387H57.3828Z" fill="#4A515B"/>
<path d="M57.3828 17.1387V49.7656L55.4785 51.6699V17.1387H57.3828Z" fill="#FFF56D"/>
<path d="M42.1484 20.9473V28.5645H38.3398V20.9473C38.3398 17.786 35.6613 15.2344 32.5 15.2344C29.3387 15.2344 26.6602 17.786 26.6602 20.9473V28.5645H22.8516V20.9473C22.8516 15.6914 27.2441 11.4258 32.5 11.4258C37.7559 11.4258 42.1484 15.6914 42.1484 20.9473Z" fill="#FFF56D"/>
<path d="M42.1484 20.9473V28.5645H38.3398V20.9473C38.3398 17.786 35.6613 15.2344 32.5 15.2344V11.4258C37.7559 11.4258 42.1484 15.6914 42.1484 20.9473Z" fill="#4A515B"/>
<path d="M19.043 26.6602V45.957H45.957V26.6602H19.043Z" fill="#4A515B"/>
<path d="M32.5 26.6602H45.957V45.957H32.5V26.6602Z" fill="#FFF56D"/>
<path d="M45.957 49.7656V65H57.3828V49.7656H45.957Z" fill="#4A515B"/>
<path d="M55.4785 0C50.2227 0 45.957 4.26562 45.957 9.52148C45.957 14.7773 50.2227 19.043 55.4785 19.043C60.7344 19.043 65 14.7773 65 9.52148C65 4.26562 60.7344 0 55.4785 0ZM57.3828 11.4258H53.5742V7.61719H57.3828V11.4258Z" fill="#4A515B"/>
<path d="M30.5957 34.4043H34.4043V38.2129H30.5957V34.4043Z" fill="#FFF56D"/>
<path d="M32.5 34.4043H34.4043V38.2129H32.5V34.4043Z" fill="#4A515B"/>
<path d="M55.4785 49.7656H57.3828V65H55.4785V49.7656Z" fill="#FFF56D"/>
<path d="M65 9.52148C65 14.7773 60.7344 19.043 55.4785 19.043V11.4258H57.3828V7.61719H55.4785V0C60.7344 0 65 4.26562 65 9.52148Z" fill="#FFF56D"/>
<path d="M17.1387 7.61719H22.8516V11.4258H17.1387V7.61719Z" fill="#FFF56D"/>
<path d="M15.2344 3.80859H22.8516V0H19.043L15.2344 3.80859Z" fill="#FFF56D"/>
<path d="M7.61719 0V15.2344H19.043V0H7.61719Z" fill="#4A515B"/>
<path d="M9.52148 45.957C4.26562 45.957 0 50.2227 0 55.4785C0 60.7344 4.26562 65 9.52148 65C14.7773 65 19.043 60.7344 19.043 55.4785C19.043 50.2227 14.7773 45.957 9.52148 45.957ZM11.4258 57.3828H7.61719V53.5742H11.4258V57.3828Z" fill="#4A515B"/>
<path d="M19.043 55.4785C19.043 60.7344 14.7773 65 9.52148 65V57.3828H11.4258V53.5742H9.52148V45.957C14.7773 45.957 19.043 50.2227 19.043 55.4785Z" fill="#FFF56D"/>
<path d="M9.52148 0H19.043V15.2344H9.52148V0Z" fill="#FFF56D"/>
</svg>
