<svg width="65" height="65" viewBox="0 0 65 65" fill="none" xmlns="http://www.w3.org/2000/svg">
<g clip-path="url(#clip0_1032_2680)">
<path d="M7.64697 -3.05176e-05V59.2647H15.294C16.0911 58.132 28.8352 40.022 29.6323 38.8893L30.5881 19.4447L29.6323 -3.05176e-05C29.0122 -3.05176e-05 8.26702 -3.05176e-05 7.64697 -3.05176e-05Z" fill="#FDB814"/>
<path d="M51.6176 -3.05176e-05C50.9976 -3.05176e-05 30.2524 -3.05176e-05 29.6323 -3.05176e-05V38.8893C30.8537 37.1537 50.3963 9.38266 51.6176 7.64703C51.6176 6.72186 51.6176 0.931254 51.6176 -3.05176e-05Z" fill="#FF8718"/>
<path d="M15.2939 7.64694V64.9998H36.3234L38.2351 36.3234L36.3234 7.64694C35.7302 7.64694 15.8868 7.64694 15.2939 7.64694Z" fill="#F9F9F9"/>
<path d="M36.3237 7.64694V64.9998H44.7407L47.497 54.7188L57.3531 52.4093C57.3531 52.4093 57.3531 10.1325 57.3531 7.64694C56.76 7.64694 36.9166 7.64694 36.3237 7.64694Z" fill="#E2DFF4"/>
<path d="M44.7402 65C46.274 63.4689 55.8156 53.9437 57.3526 52.4095C53.935 52.4095 46.7538 52.4095 44.7402 52.4095V65Z" fill="#BEBCDD"/>
<path d="M36.3233 19.1177C32.7192 19.1177 25.0404 19.1177 22.9409 19.1177C22.9409 17.7804 22.9409 16.6313 22.9409 15.2941H36.3233L38.2351 17.2059L36.3233 19.1177Z" fill="#4E6BA6"/>
<path d="M36.3233 26.7647C32.7192 26.7647 25.0404 26.7647 22.9409 26.7647C22.9409 25.4275 22.9409 24.2784 22.9409 22.9412H36.3233L38.2351 24.8529L36.3233 26.7647Z" fill="#FDB814"/>
<path d="M36.3233 34.4118C32.7192 34.4118 25.0404 34.4118 22.9409 34.4118C22.9409 33.0746 22.9409 31.9255 22.9409 30.5883H36.3233L38.2351 32.5L36.3233 34.4118Z" fill="#FDB814"/>
<path d="M36.3233 42.0588C32.7192 42.0588 25.0404 42.0588 22.9409 42.0588C22.9409 40.7215 22.9409 39.5724 22.9409 38.2352H36.3233L38.2351 40.147L36.3233 42.0588Z" fill="#FDB814"/>
<path d="M49.7061 19.1177C46.102 19.1177 38.4232 19.1177 36.3237 19.1177C36.3237 17.7804 36.3237 16.6313 36.3237 15.2941H49.7061V19.1177Z" fill="#303844"/>
<path d="M49.7061 26.7647C46.102 26.7647 38.4232 26.7647 36.3237 26.7647C36.3237 25.4275 36.3237 24.2784 36.3237 22.9412H49.7061V26.7647Z" fill="#FF8718"/>
<path d="M49.7061 34.4118C46.102 34.4118 38.4232 34.4118 36.3237 34.4118C36.3237 33.0746 36.3237 31.9255 36.3237 30.5883H49.7061V34.4118Z" fill="#FF8718"/>
<path d="M49.7061 42.0588C46.102 42.0588 38.4232 42.0588 36.3237 42.0588C36.3237 40.7215 36.3237 39.5724 36.3237 38.2352H49.7061V42.0588Z" fill="#FF8718"/>
<path d="M36.3233 49.7059C32.7192 49.7059 25.0404 49.7059 22.9409 49.7059C22.9409 48.3687 22.9409 47.2196 22.9409 45.8824H36.3233V49.7059Z" fill="#FF8718"/>
</g>
<defs>
<clipPath id="clip0_1032_2680">
<rect width="65" height="65" fill="white"/>
</clipPath>
</defs>
</svg>
