<svg width="74" height="74" viewBox="0 0 74 74" fill="none" xmlns="http://www.w3.org/2000/svg">
<path d="M27.7501 15.4166H21.5834C19.9479 15.4166 18.3794 16.0663 17.2229 17.2228C16.0664 18.3793 15.4167 19.9478 15.4167 21.5833V58.5833C15.4167 60.2188 16.0664 61.7873 17.2229 62.9438C18.3794 64.1003 19.9479 64.75 21.5834 64.75H52.4168C54.0523 64.75 55.6208 64.1003 56.7772 62.9438C57.9337 61.7873 58.5834 60.2188 58.5834 58.5833V21.5833C58.5834 19.9478 57.9337 18.3793 56.7772 17.2228C55.6208 16.0663 54.0523 15.4166 52.4168 15.4166H46.2501" stroke="white" stroke-width="2.75" stroke-linecap="round" stroke-linejoin="round"/>
<path d="M40.0833 9.25H33.9167C30.5109 9.25 27.75 12.0109 27.75 15.4167C27.75 18.8224 30.5109 21.5833 33.9167 21.5833H40.0833C43.4891 21.5833 46.25 18.8224 46.25 15.4167C46.25 12.0109 43.4891 9.25 40.0833 9.25Z" stroke="white" stroke-width="2.75" stroke-linecap="round" stroke-linejoin="round"/>
<path d="M30.8333 43.1666H43.1666" stroke="white" stroke-width="2.75" stroke-linecap="round" stroke-linejoin="round"/>
<path d="M37 37V49.3333" stroke="white" stroke-width="2.75" stroke-linecap="round" stroke-linejoin="round"/>
</svg>