<svg width="74" height="74" viewBox="0 0 74 74" fill="none" xmlns="http://www.w3.org/2000/svg">
<path d="M9.25 64.75H64.75" stroke="white" stroke-width="2.75" stroke-linecap="round" stroke-linejoin="round"/>
<path d="M15.4166 64.75V15.4167C15.4166 13.7812 16.0663 12.2126 17.2228 11.0562C18.3793 9.8997 19.9478 9.25 21.5833 9.25H52.4166C54.0521 9.25 55.6206 9.8997 56.7771 11.0562C57.9336 12.2126 58.5833 13.7812 58.5833 15.4167V64.75" stroke="white" stroke-width="2.75" stroke-linecap="round" stroke-linejoin="round"/>
<path d="M27.75 64.75V52.4167C27.75 50.7812 28.3997 49.2127 29.5562 48.0562C30.7127 46.8997 32.2812 46.25 33.9167 46.25H40.0833C41.7188 46.25 43.2873 46.8997 44.4438 48.0562C45.6003 49.2127 46.25 50.7812 46.25 52.4167V64.75" stroke="white" stroke-width="2.75" stroke-linecap="round" stroke-linejoin="round"/>
<path d="M30.8334 27.75H43.1667" stroke="white" stroke-width="2.75" stroke-linecap="round" stroke-linejoin="round"/>
<path d="M37 21.5834V33.9167" stroke="white" stroke-width="2.75" stroke-linecap="round" stroke-linejoin="round"/>
</svg>