<svg width="74" height="74" viewBox="0 0 74 74" fill="none" xmlns="http://www.w3.org/2000/svg">
<path d="M18.5 43.1666V24.6666C18.5 22.2134 19.4746 19.8606 21.2093 18.1259C22.944 16.3912 25.2967 15.4166 27.75 15.4166C30.2033 15.4166 32.556 16.3912 34.2907 18.1259C36.0254 19.8606 37 22.2134 37 24.6666V49.3333C37 51.7865 37.9745 54.1393 39.7093 55.874C41.444 57.6087 43.7967 58.5833 46.25 58.5833C48.7033 58.5833 51.056 57.6087 52.7907 55.874C54.5254 54.1393 55.5 51.7865 55.5 49.3333V30.8333" stroke="white" stroke-width="2.75" stroke-linecap="round" stroke-linejoin="round"/>
<path d="M61.6666 15.4167C61.6666 12.0109 58.9057 9.25 55.4999 9.25C52.0942 9.25 49.3333 12.0109 49.3333 15.4167V24.6667C49.3333 28.0724 52.0942 30.8333 55.4999 30.8333C58.9057 30.8333 61.6666 28.0724 61.6666 24.6667V15.4167Z" stroke="white" stroke-width="2.75" stroke-linecap="round" stroke-linejoin="round"/>
<path d="M24.6666 49.3333C24.6666 45.9275 21.9057 43.1666 18.4999 43.1666C15.0942 43.1666 12.3333 45.9275 12.3333 49.3333V58.5833C12.3333 61.9891 15.0942 64.75 18.4999 64.75C21.9057 64.75 24.6666 61.9891 24.6666 58.5833V49.3333Z" stroke="white" stroke-width="2.75" stroke-linecap="round" stroke-linejoin="round"/>
</svg>
