<svg width="74" height="74" viewBox="0 0 74 74" fill="none" xmlns="http://www.w3.org/2000/svg">
<path d="M18.4998 12.3334H15.4164C13.7809 12.3334 12.2124 12.9831 11.0559 14.1395C9.89946 15.296 9.24976 16.8645 9.24976 18.5V29.2917C9.24976 33.7893 11.0364 38.1028 14.2167 41.2831C17.397 44.4634 21.7105 46.25 26.2081 46.25C30.7057 46.25 35.0191 44.4634 38.1994 41.2831C41.3797 38.1028 43.1664 33.7893 43.1664 29.2917V18.5C43.1664 16.8645 42.5167 15.296 41.3602 14.1395C40.2038 12.9831 38.6353 12.3334 36.9998 12.3334H33.9164" stroke="#303844" stroke-width="2.75" stroke-linecap="round" stroke-linejoin="round"/>
<path d="M24.6665 46.25C24.6665 48.6795 25.145 51.0851 26.0747 53.3296C27.0044 55.5742 28.3671 57.6136 30.085 59.3315C31.8029 61.0494 33.8423 62.4121 36.0869 63.3418C38.3314 64.2715 40.737 64.75 43.1665 64.75C45.596 64.75 48.0016 64.2715 50.2461 63.3418C52.4907 62.4121 54.5301 61.0494 56.248 59.3315C57.9659 57.6136 59.3286 55.5742 60.2583 53.3296C61.188 51.0851 61.6665 48.6795 61.6665 46.25V37" stroke="#303844" stroke-width="2.75" stroke-linecap="round" stroke-linejoin="round"/>
<path d="M33.9165 9.25V15.4167" stroke="#303844" stroke-width="2.75" stroke-linecap="round" stroke-linejoin="round"/>
<path d="M18.4998 9.25V15.4167" stroke="#303844" stroke-width="2.75" stroke-linecap="round" stroke-linejoin="round"/>
<path d="M61.6664 37C65.0722 37 67.8331 34.2391 67.8331 30.8333C67.8331 27.4275 65.0722 24.6666 61.6664 24.6666C58.2607 24.6666 55.4998 27.4275 55.4998 30.8333C55.4998 34.2391 58.2607 37 61.6664 37Z" stroke="#303844" stroke-width="2.75" stroke-linecap="round" stroke-linejoin="round"/>
</svg>
