<svg width="74" height="74" viewBox="0 0 74 74" fill="none" xmlns="http://www.w3.org/2000/svg">
<path d="M46.25 55.5C51.3586 55.5 55.5 51.3586 55.5 46.25C55.5 41.1414 51.3586 37 46.25 37C41.1414 37 37 41.1414 37 46.25C37 51.3586 41.1414 55.5 46.25 55.5Z" stroke="white" stroke-width="2.75" stroke-linecap="round" stroke-linejoin="round"/>
<path d="M40.0834 53.9584V67.8334L46.25 63.2084L52.4167 67.8334V53.9584" stroke="white" stroke-width="2.75" stroke-linecap="round" stroke-linejoin="round"/>
<path d="M30.8333 58.5833H15.4167C13.7812 58.5833 12.2126 57.9336 11.0562 56.7771C9.8997 55.6206 9.25 54.0521 9.25 52.4166V21.5833C9.25 18.1916 12.025 15.4166 15.4167 15.4166H58.5833C60.2188 15.4166 61.7873 16.0663 62.9438 17.2228C64.1003 18.3793 64.75 19.9478 64.75 21.5833V52.4166C64.7489 53.498 64.4634 54.5601 63.9222 55.4964C63.3811 56.4326 62.6032 57.2101 61.6667 57.7508" stroke="white" stroke-width="2.75" stroke-linecap="round" stroke-linejoin="round"/>
<path d="M18.5 27.75H55.5" stroke="white" stroke-width="2.75" stroke-linecap="round" stroke-linejoin="round"/>
<path d="M18.5 37H27.75" stroke="white" stroke-width="2.75" stroke-linecap="round" stroke-linejoin="round"/>
<path d="M18.5 46.25H24.6667" stroke="white" stroke-width="2.75" stroke-linecap="round" stroke-linejoin="round"/>
</svg>