<svg width="81" height="82" viewBox="0 0 81 82" fill="none" xmlns="http://www.w3.org/2000/svg">
<path d="M40.5 71.3047C57.2757 71.3047 70.875 57.7053 70.875 40.9297C70.875 24.154 57.2757 10.5547 40.5 10.5547C23.7243 10.5547 10.125 24.154 10.125 40.9297C10.125 57.7053 23.7243 71.3047 40.5 71.3047Z" stroke="white" stroke-width="2.75" stroke-linecap="round" stroke-linejoin="round"/>
<path d="M33.75 56.1172L40.5 45.9922M40.5 45.9922L47.25 56.1172M40.5 45.9922V39.2422M40.5 39.2422L50.625 35.8672M40.5 39.2422L30.375 35.8672" stroke="white" stroke-width="2.75" stroke-linecap="round" stroke-linejoin="round"/>
<path d="M40.5002 27.4297C41.4322 27.4297 42.1877 26.6742 42.1877 25.7422C42.1877 24.8103 41.4322 24.0547 40.5002 24.0547C39.5683 24.0547 38.8127 24.8103 38.8127 25.7422C38.8127 26.6742 39.5683 27.4297 40.5002 27.4297Z" stroke="white" stroke-width="2.75" stroke-linecap="round" stroke-linejoin="round"/>
</svg>