<svg width="81" height="82" viewBox="0 0 81 82" fill="none" xmlns="http://www.w3.org/2000/svg">
<path d="M70.8752 47.6797L60.7502 37.5547H37.1252C36.2301 37.5547 35.3717 37.1991 34.7388 36.5662C34.1058 35.9332 33.7502 35.0748 33.7502 34.1797V13.9297C33.7502 13.0346 34.1058 12.1761 34.7388 11.5432C35.3717 10.9103 36.2301 10.5547 37.1252 10.5547H67.5002C68.3954 10.5547 69.2538 10.9103 69.8867 11.5432C70.5197 12.1761 70.8752 13.0346 70.8752 13.9297V47.6797Z" stroke="white" stroke-width="2.75" stroke-linecap="round" stroke-linejoin="round"/>
<path d="M47.25 51.0546V57.8046C47.25 58.6997 46.8944 59.5581 46.2615 60.1911C45.6286 60.824 44.7701 61.1796 43.875 61.1796H20.25L10.125 71.3046V37.5546C10.125 36.6595 10.4806 35.801 11.1135 35.1681C11.7464 34.5351 12.6049 34.1796 13.5 34.1796H20.25" stroke="white" stroke-width="2.75" stroke-linecap="round" stroke-linejoin="round"/>
</svg>