<svg width="81" height="82" viewBox="0 0 81 82" fill="none" xmlns="http://www.w3.org/2000/svg">
<path d="M20.25 51.0547H70.875" stroke="white" stroke-width="2.75" stroke-linecap="round" stroke-linejoin="round"/>
<path d="M70.875 64.5546H20.25" stroke="white" stroke-width="2.75" stroke-linecap="round" stroke-linejoin="round"/>
<path d="M50.625 37.5546H70.875" stroke="white" stroke-width="2.75" stroke-linecap="round" stroke-linejoin="round"/>
<path d="M70.875 24.0548H50.625" stroke="white" stroke-width="2.75" stroke-linecap="round" stroke-linejoin="round"/>
<path d="M30.375 30.8048H33.75C34.4175 30.8048 35.07 31.0028 35.6251 31.3736C36.1801 31.7444 36.6126 32.2716 36.8681 32.8883C37.1235 33.505 37.1904 34.1836 37.0602 34.8382C36.9299 35.4929 36.6085 36.0943 36.1365 36.5663C35.6645 37.0383 35.0631 37.3597 34.4084 37.49C33.7537 37.6202 33.0751 37.5533 32.4584 37.2979C31.8417 37.0425 31.3146 36.6099 30.9438 36.0549C30.5729 35.4998 30.375 34.8473 30.375 34.1798V25.7423C30.375 23.9521 31.0862 22.2352 32.352 20.9693C33.6179 19.7035 35.3348 18.9923 37.125 18.9923" stroke="white" stroke-width="2.75" stroke-linecap="round" stroke-linejoin="round"/>
<path d="M10.125 30.8048H13.5C14.1675 30.8048 14.82 31.0028 15.375 31.3736C15.9301 31.7444 16.3626 32.2716 16.6181 32.8883C16.8735 33.505 16.9404 34.1836 16.8102 34.8382C16.6799 35.4929 16.3585 36.0943 15.8865 36.5663C15.4145 37.0383 14.8131 37.3597 14.1584 37.49C13.5037 37.6202 12.8251 37.5533 12.2084 37.2979C11.5917 37.0425 11.0646 36.6099 10.6938 36.0549C10.3229 35.4998 10.125 34.8473 10.125 34.1798V25.7423C10.125 23.9521 10.8362 22.2352 12.102 20.9693C13.3679 19.7035 15.0848 18.9923 16.875 18.9923" stroke="white" stroke-width="2.75" stroke-linecap="round" stroke-linejoin="round"/>
</svg>