<svg width="81" height="82" viewBox="0 0 81 82" fill="none" xmlns="http://www.w3.org/2000/svg">
<path d="M30.375 40.9296L37.125 47.6796L50.625 34.1796" stroke="#303844" stroke-width="2.75" stroke-linecap="round" stroke-linejoin="round"/>
<path d="M40.4997 10.5547C48.3831 17.5294 58.6723 21.1608 69.1872 20.6797C70.7181 25.8874 71.1865 31.3496 70.5646 36.7419C69.9427 42.1342 68.2433 47.3465 65.5672 52.069C62.8911 56.7915 59.293 60.9279 54.9867 64.2323C50.6804 67.5368 45.7538 69.9419 40.4997 71.3047C35.2455 69.9419 30.3189 67.5368 26.0127 64.2323C21.7064 60.9279 18.1083 56.7915 15.4322 52.069C12.7561 47.3465 11.0566 42.1342 10.4348 36.7419C9.81289 31.3496 10.2813 25.8874 11.8122 20.6797C22.3271 21.1608 32.6163 17.5294 40.4997 10.5547" stroke="#303844" stroke-width="2.75" stroke-linecap="round" stroke-linejoin="round"/>
</svg>