<svg width="1136" height="952" viewBox="0 0 1136 952" fill="none" xmlns="http://www.w3.org/2000/svg">
<path d="M131.181 86.8116L131.187 86.8062L131.193 86.8006C152.549 66.4085 179.683 48.912 207.92 36.9741L207.927 36.9711C336.521 -19.6695 487.707 -0.438751 617.861 28.7991L617.867 28.8003C660.117 37.7968 702.588 50.8002 742.636 63.1378C876.764 106.632 1011.83 170.127 1083.2 288.354C1138.83 382.531 1148.42 500.861 1116.44 607.773L1116.44 607.776C1092.06 691.797 1043.24 769.088 976.441 825.649C892.732 895.957 783.715 929.089 674.445 943.754C549.16 959.273 418.617 950.959 304.186 898.426C169.982 836.508 68.78 716.602 25.8768 575.912C2.43474 498.44 -5.42393 412.107 6.27568 331.164C21.5515 241.986 61.5149 149.123 131.181 86.8116Z" stroke="#FFF56D"/>
</svg>