<svg width="1397" height="1113" viewBox="0 0 1397 1113" fill="none" xmlns="http://www.w3.org/2000/svg">
<path d="M703.244 1109.04C568.533 1095.67 438.313 1044.12 317.073 962.012C65.6119 792.076 -93.7969 477.026 61.1209 234.533C195.832 28.319 505.668 -38.5097 786.316 20.6815C1280.26 125.698 1641.73 694.697 1192.7 984.925C1033.29 1088.03 864.898 1126.22 703.244 1109.04Z" fill="#D7F0FF"/>
<path d="M590.804 418.514C571.598 426.634 553.141 438.535 538.61 452.409L590.804 418.514ZM590.804 418.514C678.216 380.013 780.954 393.094 869.325 412.946L590.804 418.514ZM538.943 452.782L538.949 452.777L538.955 452.771C553.44 438.941 571.844 427.073 590.998 418.975L591.005 418.972C678.258 380.54 780.855 393.584 869.215 413.434L869.221 413.435C897.897 419.541 926.724 428.367 953.914 436.743C1044.97 466.27 1136.62 509.363 1185.04 589.574C1222.78 653.469 1229.29 733.758 1207.59 806.304L1207.59 806.308C1191.05 863.322 1157.91 915.768 1112.59 954.147C1055.79 1001.85 981.815 1024.34 907.646 1034.29C822.606 1044.83 734.011 1039.18 656.358 1003.53C565.29 961.515 496.613 880.147 467.498 784.674C451.589 732.099 446.256 673.51 454.195 618.582C464.562 558.062 491.682 495.055 538.943 452.782Z" stroke="white"/>
<path d="M448.469 295.093C428.351 303.598 409.018 316.064 393.796 330.598L448.469 295.093ZM448.469 295.093C540.033 254.762 647.652 268.465 740.221 289.26L448.469 295.093ZM394.13 330.971L394.136 330.965L394.142 330.96C409.316 316.47 428.598 304.037 448.664 295.554L448.671 295.55C540.076 255.29 647.553 268.955 740.111 289.748L740.117 289.749C770.156 296.145 800.354 305.391 828.835 314.165C924.217 345.095 1020.22 390.237 1070.95 474.266C1110.49 541.203 1117.31 625.313 1094.58 701.31L1094.58 701.314C1077.25 761.04 1042.54 815.982 995.059 856.187C935.557 906.162 858.06 929.719 780.365 940.146C691.283 951.18 598.475 945.267 517.128 907.922C421.727 863.906 349.783 778.667 319.283 678.653C302.618 623.577 297.031 562.201 305.348 504.66C316.208 441.262 344.618 375.256 394.13 330.971Z" stroke="white"/>
</svg>