<svg width="796" height="749" viewBox="0 0 796 749" fill="none" xmlns="http://www.w3.org/2000/svg">
<path d="M534.936 748.084C557.132 747.122 579.986 742.107 599.656 733.66L534.936 748.084ZM534.936 748.084C433.34 754.004 335.633 702.723 254.789 650.027L534.936 748.084ZM599.473 733.194L599.466 733.197L599.458 733.201C579.848 741.622 557.054 746.625 534.914 747.584L534.907 747.584C433.485 753.495 335.897 702.298 255.062 649.608L255.057 649.605C228.698 632.84 203.2 613.304 179.171 594.827C99.2438 531.471 23.766 454.345 5.25873 356.235C-8.65374 278.391 14.7208 195.801 63.378 131.437L63.3805 131.434C101.111 80.6604 153.705 40.6201 213.239 19.1611C287.703 -7.33998 369.935 -2.26859 447.692 15.3862C536.518 36.5074 622.877 75.1048 687.15 139.591C762.448 215.428 800.747 322.225 794.297 428.386C790.62 486.8 774.147 547.283 745.784 599.174C712.916 655.745 662.395 708.568 599.473 733.194Z" stroke="#FDB814"/>
</svg>
