<svg  viewBox="0 0 95 45" fill="none" xmlns="http://www.w3.org/2000/svg">
<path d="M23.4445 21.6847C23.1195 21.7659 22.7945 21.7659 22.4288 21.7253C20.885 21.5628 19.5444 20.5471 18.4475 19.4908C18.0818 19.1658 17.7568 18.8002 17.4318 18.4345C16.3755 17.2564 15.4411 15.8751 15.4005 14.3313C15.3599 13.0719 15.9286 11.8531 16.8224 10.9999C17.5131 10.3093 18.4068 9.82175 19.3819 9.65924C20.56 9.45611 21.8195 9.69987 22.9164 10.1874C24.2164 10.7155 25.4352 11.5687 26.2071 12.7062C27.1415 14.0469 27.4665 15.8345 27.1415 17.4595C26.9384 18.3533 26.5727 19.2471 26.004 19.9783C25.3539 20.7909 24.4602 21.4815 23.4445 21.6847Z" fill="#FDB913"/>
<path d="M35.8356 26.438C34.6981 27.1693 33.2762 27.2505 31.6511 26.1942C28.4823 24.041 26.6135 20.019 28.6042 16.7283C29.9448 14.4938 34.8606 11.975 37.3795 14.4126C39.0858 16.0782 38.3951 20.9128 38.0295 22.8629C37.7857 24.3254 36.9732 25.7067 35.8356 26.438Z" fill="#8DC63F"/>
<path d="M26.0853 7.50605C26.1665 7.30292 26.2884 7.09979 26.4103 6.89666C27.8322 4.98722 30.2292 4.4997 32.0167 5.19035C32.9105 5.55599 33.6824 6.32789 34.1699 7.30292C34.3731 7.74981 34.5356 8.27796 34.5356 8.84673C34.5762 9.98427 34.2918 10.6343 33.398 11.1218C31.8542 11.975 30.1886 11.8125 28.6448 11.3656C27.426 10.9999 25.6384 10.0655 25.8822 8.11545C25.9634 7.95294 26.004 7.70919 26.0853 7.50605Z" fill="#8DC63F"/>
<path d="M16.2129 20.0596C16.5785 21.1565 16.6191 22.3753 16.1722 23.7566C14.5066 28.7943 8.04695 30.0537 3.78118 27.6974C-0.403337 25.341 -1.70338 18.8408 2.92803 16.1189C6.95004 13.7219 14.6691 15.5095 16.2129 20.0596Z" fill="#8DC63F"/>
<path d="M16.2534 7.54659C16.0503 8.64351 15.5628 9.74042 14.8721 10.7155C13.1252 13.153 9.63132 14.8187 6.66559 13.7624C-0.240892 11.2436 6.42183 2.75268 11.2564 2.34641C14.3034 2.10266 16.7816 4.54024 16.2534 7.54659Z" fill="#8DC63F"/>
<path d="M21.4131 8.52169C20.6412 8.39981 19.8693 8.03417 19.1786 7.38415C17.7161 6.0841 16.8223 3.68715 17.7161 1.81833C18.488 0.233904 20.2755 -0.294235 21.9006 0.152655C24.7444 0.965183 26.8164 5.31221 24.2569 7.54666C23.3225 8.35919 22.3475 8.68419 21.4131 8.52169Z" fill="#8DC63F"/>
<path d="M6.58457 33.7507C6.6252 33.507 6.66582 33.3038 6.74708 33.0601C7.07209 32.1257 7.64086 31.2319 8.45339 30.7037C9.10341 30.2568 9.95657 30.0131 10.7285 30.2162C11.2566 30.3381 11.7441 30.6631 12.1098 31.0694C12.4754 31.4756 12.7598 31.9631 12.9629 32.4913C13.2067 33.0194 13.3286 33.6288 13.3286 34.1976C13.3286 34.807 13.2067 35.3758 12.8817 35.8633C12.5567 36.3102 12.1098 36.6758 11.6222 36.9196C11.0941 37.1633 10.566 37.2446 9.99719 37.2446C8.20963 37.2852 6.66582 36.3102 6.54395 34.4414C6.54395 34.1976 6.54395 33.9945 6.58457 33.7507Z" fill="#8DC63F"/>
<path d="M23.0374 23.7973C27.7907 23.7973 33.2753 26.6817 32.1784 32.2069C30.8783 38.7071 22.7937 39.9666 17.9185 36.7977C15.3997 35.132 13.1246 31.4756 14.3434 28.388C15.5622 25.1379 19.8686 23.7566 23.0374 23.7973Z" fill="#8DC63F"/>
<path d="M47.9412 10.6708C47.2099 10.2645 46.6411 9.73638 46.2349 9.04574C45.8286 8.35509 45.6255 7.58319 45.6255 6.68941C45.6255 5.83626 45.8286 5.06436 46.2349 4.33308C46.6411 3.64244 47.2099 3.11429 47.9412 2.70803C48.6725 2.30176 49.485 2.09863 50.4194 2.09863C51.3538 2.09863 52.1663 2.30176 52.8976 2.70803C53.6289 3.11429 54.1977 3.64244 54.6039 4.33308C55.0102 5.02373 55.2539 5.79563 55.2539 6.68941C55.2539 7.54256 55.0508 8.31446 54.6039 9.04574C54.1977 9.73638 53.6289 10.2645 52.8976 10.6708C52.1663 11.0771 51.3538 11.2802 50.4194 11.2802C49.5256 11.2802 48.6725 11.0771 47.9412 10.6708ZM51.8413 9.16762C52.2476 8.92386 52.5726 8.59885 52.8164 8.15196C53.0601 7.70507 53.182 7.21755 53.182 6.68941C53.182 6.16127 53.0601 5.67375 52.8164 5.22686C52.5726 4.77997 52.2476 4.45496 51.8413 4.2112C51.4351 3.96744 50.9475 3.84556 50.4194 3.84556C49.8913 3.84556 49.4444 3.96744 48.9975 4.2112C48.5912 4.45496 48.2662 4.77997 48.0224 5.22686C47.7787 5.67375 47.6568 6.16127 47.6568 6.68941C47.6568 7.21755 47.7787 7.70507 48.0224 8.15196C48.2662 8.59885 48.5912 8.92386 48.9975 9.16762C49.4037 9.41138 49.8913 9.53326 50.4194 9.53326C50.9475 9.53326 51.4351 9.41138 51.8413 9.16762Z" fill="#8DC63F"/>
<path d="M56.6354 2.30176V11.1177H58.6261V3.96743H62.6075V11.1177H64.6388V2.30176H56.6354Z" fill="#8DC63F"/>
<path d="M66.8329 2.30176V11.1177H73.6581V9.49262H68.8642V7.4613H72.9675V5.87688H68.8642V3.92681H73.4956V2.30176H66.8329Z" fill="#8DC63F"/>
<path d="M81.0925 2.30176L78.7768 5.87688H77.3143V2.30176H75.283V11.1177H77.3143V7.58319H78.7362L81.0113 11.1177H83.327L80.3613 6.56753L83.2457 2.30176H81.0925Z" fill="#8DC63F"/>
<path d="M87.5926 2.30176L83.6519 11.1177H85.7238L86.4957 9.20824H90.599L91.3709 11.1177H93.5241L89.5833 2.30176H87.5926ZM88.5677 4.29245L89.9489 7.66443H87.1864L88.5677 4.29245Z" fill="#8DC63F"/>
<path d="M62.0792 19.4462C62.0792 19.4056 62.2011 19.2431 62.4855 19.04L62.6074 18.9587C62.648 18.9587 62.6886 18.9587 62.6886 18.9993C62.6886 19.04 62.648 19.1212 62.5261 19.2431C62.4042 19.365 62.323 19.4056 62.1605 19.4056C62.1199 19.4868 62.0792 19.4868 62.0792 19.4462ZM61.2667 17.0086C61.2667 16.968 61.2667 16.968 61.2667 17.0086C61.3073 16.9274 61.1854 16.8868 60.9823 16.8055C60.6573 16.7243 60.4542 16.6836 60.3323 16.6836C60.251 16.6836 60.2104 16.7243 60.2104 16.7649C60.2104 16.8461 60.3323 16.9274 60.4948 16.968C60.6979 17.0086 60.8604 17.0493 61.0229 17.0493C61.1042 17.0493 61.1855 17.0086 61.2667 17.0086ZM56.1478 17.7399C55.9853 17.7399 55.8634 17.6993 55.8634 17.618C55.8634 17.4962 55.904 17.4149 55.9853 17.3337C56.1884 17.2118 56.5947 17.1305 57.1228 17.0899C57.4884 17.0899 57.7322 17.1711 57.7322 17.3743C57.7322 17.4555 57.6916 17.5368 57.5697 17.5368C57.5291 17.5368 57.4478 17.5368 57.3666 17.4962C57.2853 17.4555 57.2041 17.4555 57.0822 17.4555C57.0009 17.4555 56.8791 17.4962 56.7978 17.5368C56.5947 17.6587 56.3915 17.7399 56.1884 17.7399H56.1478ZM54.604 25.7433V25.7027C54.6446 25.6214 54.6852 25.5808 54.7665 25.5808C54.8477 25.5808 54.8884 25.6621 54.8884 25.7839C54.8884 25.8652 54.8477 25.8652 54.7665 25.9058C54.6852 25.9058 54.6446 25.8652 54.604 25.7433ZM54.1165 26.0683C53.954 26.0277 53.8727 26.0277 53.8727 25.9464C53.8727 25.9058 53.9133 25.8652 53.9946 25.8246C54.0758 25.7839 54.1571 25.7433 54.279 25.7433C54.3602 25.7433 54.4415 25.7839 54.4821 25.8246C54.4821 25.8652 54.4821 25.8652 54.4415 25.9058C54.4008 25.9464 54.3602 25.9871 54.3196 26.0277C54.279 26.0277 54.2383 26.0683 54.1977 26.0683H54.1165ZM53.1008 26.0683C53.1008 26.0277 53.0602 25.9871 53.0602 25.9464C53.0195 25.9058 53.0195 25.9058 52.9383 25.9058C52.8977 25.9058 52.857 25.9464 52.8977 25.9871C52.8977 26.109 52.9789 26.1902 53.0602 26.2308C53.1008 26.2308 53.1008 26.1902 53.1008 26.0683ZM52.4101 28.6684C52.3695 28.6684 52.3695 28.6278 52.3289 28.5465C52.3289 28.5059 52.3289 28.5059 52.3289 28.5059C52.3289 28.5059 52.3289 28.4653 52.3289 28.4247C52.3289 28.384 52.3289 28.3434 52.3695 28.3434C52.3695 28.3028 52.3695 28.3028 52.3695 28.3028C52.3695 28.0997 52.4508 27.734 52.6539 27.2059C52.7758 26.9621 52.857 26.7996 52.8977 26.759C52.8977 26.5558 52.8977 26.4746 52.9383 26.4746C53.0195 26.4746 53.0602 26.5558 53.1008 26.7996C53.1008 26.8402 53.1008 26.8809 53.1414 27.0027C53.1414 27.1246 53.1008 27.3277 52.9383 27.5715L52.8977 27.6121L52.6945 28.1403C52.6133 28.4247 52.4914 28.6278 52.4101 28.6684ZM52.1258 29.3591C52.1258 29.3184 52.1258 29.2778 52.1258 29.2372C52.1258 29.1966 52.1258 29.1559 52.1258 29.0747C52.1258 29.0341 52.1258 28.9934 52.1258 28.9528C52.1258 28.9528 52.1258 28.9122 52.1664 28.8716C52.207 28.8309 52.207 28.7903 52.2476 28.7497C52.2883 28.709 52.2883 28.6684 52.3289 28.6278C52.3695 28.6278 52.3695 28.5872 52.3695 28.5872C52.4101 28.6278 52.4101 28.709 52.4508 28.8309C52.4508 28.8715 52.4101 28.9934 52.3289 29.1559C52.2476 29.3591 52.1664 29.4403 52.1258 29.4403C52.1258 29.5216 52.1258 29.4403 52.1258 29.3591ZM51.9633 30.131C52.0445 29.9278 52.0445 29.7247 52.0445 29.5216C52.0039 29.4403 52.0039 29.3997 51.9633 29.3997C51.9226 29.3997 51.9226 29.4809 51.882 29.6434C51.8414 29.8872 51.8414 30.0497 51.8414 30.1716C51.8414 30.2528 51.8414 30.2935 51.882 30.2935C51.9226 30.2935 51.9633 30.2528 51.9633 30.1716C51.9633 30.2122 51.9633 30.2122 51.9633 30.2122C51.9633 30.2122 51.9633 30.2528 51.9226 30.2528V30.2935C51.9226 30.2935 51.882 30.3341 51.882 30.3747C51.9633 30.3341 52.0039 30.2529 51.9633 30.131ZM51.4757 31.0654C51.4757 30.9841 51.4757 30.8622 51.4757 30.781C51.4757 30.7404 51.5164 30.7404 51.5164 30.7404C51.5164 30.7404 51.5164 30.7404 51.557 30.7404L51.5976 30.5779C51.5976 30.4153 51.6382 30.131 51.8414 29.7247C51.9226 29.5216 52.0039 29.4403 52.0445 29.4403C52.0445 29.4403 52.0445 29.4403 52.0851 29.4809C52.1258 29.6841 52.0445 30.0497 51.8414 30.6185C51.6789 31.0654 51.5976 31.2685 51.5164 31.3091C51.4757 31.2279 51.4757 31.1466 51.4757 31.0654ZM50.907 32.8529C50.907 32.7717 50.9476 32.6092 51.0288 32.2842C51.1101 31.9185 51.232 31.6341 51.3945 31.431L51.4351 31.4716C51.4351 31.5529 51.4351 31.6748 51.3945 31.7966C51.3539 31.9185 51.3132 32.081 51.2726 32.2435C51.232 32.406 51.1507 32.5279 51.1101 32.6498C51.0695 32.7717 51.0288 32.8529 50.9882 32.8529C50.9476 32.8529 50.9476 32.8936 50.907 32.8529C50.907 32.8936 50.907 32.8529 50.907 32.8529ZM49.6476 27.4496C49.6476 27.409 49.6882 27.3684 49.7288 27.3277C49.8101 27.2871 49.8507 27.2465 49.9319 27.2465C49.9726 27.2465 50.0132 27.2465 50.0538 27.2465C50.0944 27.2465 50.0944 27.2465 50.1351 27.2465C50.1351 27.4496 50.0132 27.5309 49.8101 27.5309C49.7288 27.4902 49.6476 27.4903 49.6476 27.4496ZM48.7538 27.8153C48.6725 27.8153 48.6319 27.8153 48.6319 27.7746C48.6319 27.734 48.6725 27.6934 48.835 27.6121L49.2413 27.5309L49.485 27.4903C49.5663 27.4903 49.6069 27.4902 49.6069 27.5309C49.6069 27.5715 49.5257 27.6121 49.3632 27.6934C49.16 27.7746 48.9569 27.8153 48.835 27.8153H48.7538ZM48.5913 18.9993C48.9163 18.8774 49.3632 18.7556 49.8507 18.5931C50.0944 18.5118 50.3382 18.4712 50.582 18.4712C50.7038 18.4712 50.7851 18.4712 50.8257 18.4712C50.8663 18.5118 50.907 18.5118 50.9476 18.5118C51.0288 18.5118 51.0695 18.4712 51.0695 18.3899C51.0695 18.3087 51.1507 18.2681 51.3132 18.2681H51.6789C51.8008 18.2681 51.882 18.2274 51.8414 18.1462C51.8414 18.1056 52.0039 18.0243 52.3289 17.9837C52.6539 17.9837 52.8977 17.943 52.9789 17.8618C53.1008 17.7805 53.2227 17.7399 53.4258 17.7399C53.6289 17.6993 53.7102 17.6587 53.6696 17.5368C53.6289 17.4149 53.5071 17.3337 53.2633 17.3337C53.1414 17.3337 52.9789 17.3743 52.857 17.4555C52.7352 17.5368 52.5726 17.5774 52.4101 17.618H52.207C52.0039 17.618 51.7601 17.6587 51.5164 17.7805C51.232 17.9024 51.0289 17.9431 50.8663 17.9431H50.8257C50.582 17.9431 50.0132 18.1056 49.0382 18.4306C48.2663 18.7149 47.9006 18.8774 47.9006 18.9993C47.9006 19.04 47.9819 19.0806 48.1037 19.0806C48.2663 19.0806 48.4288 19.04 48.5913 18.9993ZM48.3881 35.3311C48.3475 35.2499 48.3475 35.1686 48.3069 35.0874C48.2663 34.8436 48.3069 34.5592 48.3881 34.2342C48.4694 33.7873 48.5913 33.4623 48.6725 33.1373C49.6475 29.9685 50.2163 28.3028 50.3382 28.1403C50.4195 27.9778 50.4601 27.8559 50.4601 27.734C50.4601 27.6121 50.3382 27.4902 50.1757 27.3277C50.1351 27.2465 50.0538 27.2059 50.0538 27.1652C50.0538 27.1246 50.0944 27.084 50.1757 27.0434H50.2163C50.2163 27.0434 50.2163 27.0027 50.1757 27.0027C50.1351 27.0027 50.1351 26.9621 50.0944 26.9215C49.485 27.1246 48.8756 27.3684 48.2663 27.6528C48.0225 27.7746 47.86 27.8153 47.6569 27.8153C47.6162 27.8153 47.5756 27.8153 47.4537 27.7746C47.3725 27.7746 47.21 27.6121 47.0475 27.3277C47.0068 27.2465 46.9662 27.2059 46.9662 27.1652C46.9256 27.0434 46.8443 27.0027 46.7631 26.9215C46.6412 26.8808 46.5599 26.759 46.5599 26.5558C46.5193 26.3527 46.6006 26.1902 46.7224 26.0277C46.8443 25.9465 47.1287 25.7839 47.5756 25.6214C47.7787 25.4996 47.9819 25.4183 48.1444 25.337C48.3475 25.2152 48.5913 25.1339 48.7944 25.0933C49.0788 25.0527 49.7288 24.8089 50.7445 24.4026C50.9882 24.2808 51.1507 24.2401 51.2726 24.1995C51.3945 24.1589 51.4757 24.0776 51.5976 23.9964C51.7195 23.8339 51.9226 23.2651 52.207 22.3713L53.0602 19.6087C53.2633 18.9587 53.3852 18.5118 53.3446 18.3087C53.3446 18.2274 53.2633 18.1868 53.2227 18.1868C53.2227 18.1868 53.1821 18.1868 53.1414 18.2274C52.532 18.3899 52.0851 18.4712 51.8414 18.4712C51.7601 18.4712 51.6382 18.5118 51.4757 18.5524C51.0695 18.6743 50.8257 18.7556 50.7038 18.7556C50.2569 18.9181 49.9319 18.9587 49.8101 18.9993H49.7288C49.485 19.0806 49.2819 19.1212 49.0788 19.2025C48.9163 19.2837 48.7538 19.3243 48.6319 19.3243C48.5913 19.3243 48.5506 19.3243 48.5506 19.3243C48.3881 19.3243 47.9819 19.5275 47.3725 19.8931C47.0068 20.1369 46.6412 20.2994 46.3162 20.4619C46.1537 20.5838 45.9912 20.665 45.8693 20.8275C45.6255 21.1525 45.3412 21.315 45.0568 21.315C44.9349 21.315 44.8536 21.2338 44.8536 21.1119C44.8536 20.99 44.8536 20.8275 44.8943 20.6244L44.9349 20.4619C44.9755 20.1775 45.0161 19.9744 45.0974 19.8525C45.1786 19.7306 45.3005 19.6087 45.5037 19.5275C45.5849 19.4869 45.6255 19.4462 45.7474 19.365C45.463 19.2431 45.3005 19.1212 45.2599 19.04C45.2599 18.9587 45.3412 18.7556 45.5037 18.5118C45.9505 17.7399 46.5193 17.2118 47.2506 16.9274C47.9412 16.643 48.6725 16.3992 49.4444 16.2774L49.9726 16.1555C50.3382 16.0742 50.7445 15.993 51.1101 15.8711C51.8414 15.7086 52.3695 15.5867 52.6945 15.5055C53.0602 15.4242 53.3039 15.343 53.4258 15.343C53.5477 15.343 53.6696 15.3023 53.7508 15.2617C53.8321 15.2211 54.0352 15.1804 54.4008 15.1398C55.1321 15.0179 55.904 14.9773 56.7572 14.8961C57.2041 14.8961 57.6103 14.8554 57.8135 14.8148C57.8541 14.8148 57.8947 14.8148 57.9353 14.8148C58.0166 14.8148 58.1791 14.8554 58.4229 14.8554H58.5447C58.7072 14.8554 58.8291 14.8148 58.8697 14.7336L59.3166 14.6929C59.9667 14.6523 60.6979 14.7336 61.4698 14.8554C62.2417 14.9773 62.8105 15.2617 63.298 15.6273C63.7043 15.993 63.948 16.3586 63.9887 16.8055C64.0293 17.0493 63.9887 17.3336 63.948 17.5774C63.8668 17.8618 63.7449 18.1056 63.623 18.3493C63.4605 18.5931 63.298 18.7556 63.1761 18.9181C63.0543 19.04 62.973 19.1212 62.9324 19.1212V19.0806C62.9324 18.9993 62.973 18.9181 63.0543 18.7962C63.1761 18.6743 63.2168 18.5118 63.2168 18.2681C63.2168 18.1868 63.1761 18.1462 63.1355 18.1462C63.0949 18.1462 62.9324 18.3087 62.6074 18.5931C62.3636 18.7556 62.0792 18.8775 61.7542 18.9587L61.5917 19.04C61.5511 19.04 61.5511 18.9993 61.5105 18.9993C61.5105 18.9587 61.5511 18.8368 61.6323 18.6743C61.7948 18.3493 61.8355 18.1462 61.8355 17.9837C61.7948 17.7399 61.5917 17.5774 61.2261 17.4962C60.9823 17.4149 60.7386 17.3743 60.4542 17.3337C60.1292 17.293 59.926 17.2524 59.8448 17.2524C59.5198 17.2524 59.3166 17.293 59.2354 17.3337C59.1948 17.3743 58.9916 17.4149 58.5854 17.4555C58.2197 17.4555 58.0166 17.4149 57.976 17.3743C57.9353 17.3336 57.9353 17.2524 57.8947 17.1711C57.8947 16.968 57.9353 16.8868 58.0572 16.8868C58.1385 16.8868 58.4228 16.8868 58.8697 16.8868C59.3166 16.8868 59.601 16.8868 59.7229 16.9274H59.8042C59.8854 16.9274 59.8854 16.8868 59.8854 16.8055C59.8448 16.643 59.6823 16.6024 59.3166 16.6024C59.1541 16.6024 59.0322 16.6024 58.9104 16.5617C58.8291 16.5211 58.7479 16.4805 58.7479 16.4399C58.7479 16.3992 58.7072 16.3586 58.626 16.3586C58.5854 16.3586 58.5447 16.3586 58.4635 16.3992C58.2197 16.5211 57.7322 16.5617 57.0009 16.6024H56.3915C55.9853 16.6024 55.7821 16.643 55.7415 16.7243C55.7009 16.8055 55.6196 16.8461 55.4165 16.8461H55.0102C54.7665 16.8461 54.6446 16.968 54.6446 17.1711C54.6446 17.2118 54.6852 17.2524 54.8071 17.293C55.0102 17.4149 55.2134 17.4962 55.3759 17.4555C55.4571 17.4555 55.4571 17.4555 55.4571 17.4149C55.4571 17.3336 55.4571 17.3337 55.5384 17.293C55.579 17.293 55.6196 17.3336 55.6603 17.3743C55.6603 17.4555 55.6603 17.5774 55.6603 17.6587C55.6196 17.6993 55.2946 17.7805 54.6446 17.9024L54.0352 18.0243L54.6446 18.2274C55.3352 18.4712 55.6603 18.7149 55.7009 18.9993V19.1618C55.7009 19.2431 55.579 19.3243 55.3352 19.4056C55.2134 19.4056 55.1727 19.4462 55.1727 19.4869V19.5275C55.1727 19.5275 55.254 19.5681 55.3759 19.6087C55.4165 19.6087 55.4165 19.6494 55.4571 19.69C55.4571 19.7712 55.4571 19.9337 55.3759 20.1369C55.2946 20.4619 55.2134 20.665 55.0915 20.665C55.0102 20.665 54.9696 20.7869 54.929 20.99C54.929 21.1525 54.8884 21.2338 54.8071 21.2338C54.7665 21.2338 54.7259 21.2338 54.7259 21.1932C54.6852 21.1932 54.6446 21.1525 54.6446 21.1525C54.604 21.1525 54.604 21.1525 54.604 21.1932C54.604 21.2338 54.604 21.315 54.6446 21.5182L54.6852 21.7619C54.7259 21.9651 54.6852 22.0869 54.6446 22.0869C54.604 22.0869 54.5633 22.0463 54.4821 21.9651C54.4415 21.8838 54.3602 21.8432 54.3602 21.8432C54.279 21.8432 54.2383 21.9244 54.1571 22.0869C54.0758 22.2901 54.0352 22.4119 54.0758 22.4932C54.0758 22.5745 54.1164 22.6151 54.1977 22.6151C54.2383 22.6151 54.3196 22.4932 54.3602 22.2901L54.4008 22.0869C54.4008 22.0869 54.4415 22.1276 54.4415 22.1682C54.4821 22.3713 54.4821 22.5338 54.4415 22.6963C54.4415 22.8182 54.4415 22.8995 54.4415 22.9807C54.4415 23.062 54.4821 23.1026 54.4821 23.1026C54.604 23.1026 54.9696 23.0213 55.579 22.8995C56.6353 22.6963 57.6916 22.5745 58.8291 22.5338C59.4791 22.4932 59.8448 22.5745 60.0073 22.6963C60.0073 22.8588 60.0073 23.062 59.926 23.2651C59.8448 23.5089 59.7229 23.5901 59.5604 23.5901C59.4385 23.5901 59.3573 23.5901 59.2354 23.5901C59.1541 23.5901 59.0729 23.5495 58.9916 23.5495C58.9104 23.5495 58.9104 23.5901 58.9104 23.6307C58.9104 23.6714 58.9916 23.712 59.1541 23.7526C59.276 23.7932 59.3573 23.8339 59.4385 23.8745C59.5198 23.9557 59.601 24.037 59.601 24.2401C59.601 24.4026 59.601 24.4839 59.5198 24.4839C59.4791 24.4839 59.4791 24.4839 59.4385 24.4433C59.3979 24.4433 59.3979 24.4433 59.3979 24.4839C59.3979 24.5245 59.4385 24.6058 59.5604 24.687C59.6416 24.7277 59.7229 24.7683 59.7229 24.8089V24.8495C59.601 25.012 59.4385 25.0933 59.2354 25.1339C59.1541 25.1339 59.0322 25.1339 58.9104 25.1745C58.8291 25.1745 58.7072 25.1745 58.5854 25.1745C58.4635 25.1745 58.3416 25.1745 58.1791 25.1745C58.0572 25.1745 57.9353 25.2152 57.8135 25.2152L57.0415 25.337C56.4322 25.4589 55.9853 25.5402 55.6196 25.5402C55.254 25.5402 55.0509 25.4996 55.0509 25.4183C55.0509 25.3777 55.0509 25.337 55.0915 25.2964C55.2134 25.1745 55.3759 25.0933 55.6196 25.0527C55.7415 25.0527 56.0259 25.012 56.3915 25.012C56.4728 25.012 56.5947 25.012 56.6759 25.012C57.0822 25.012 57.4072 24.9308 57.7322 24.7683C57.3666 24.687 57.0009 24.6464 56.5947 24.6464C55.6196 24.687 54.5633 24.9714 53.4664 25.4996C53.3852 25.5402 53.3446 25.6214 53.3446 25.6621C53.3446 25.7027 53.3852 25.7433 53.4664 25.8246C53.5071 25.9058 53.5883 25.9465 53.5883 26.0277C53.5883 26.1902 53.4258 26.2715 53.0602 26.2715C52.8164 26.2715 52.6539 26.3933 52.6133 26.5965C52.4914 26.9215 52.4508 27.084 52.4101 27.1652C52.3289 27.3684 52.1258 27.8965 51.8414 28.709C51.5976 29.3997 51.4757 29.8466 51.4351 30.0091C51.3132 30.6591 51.1101 31.2685 50.8663 31.9185C50.6632 32.4467 50.4601 33.0154 50.2976 33.5842L50.2163 33.828C50.1351 34.0717 50.1351 34.1936 50.1351 34.3155C50.1351 34.3561 50.1757 34.3561 50.1757 34.3561C50.2163 34.3561 50.2976 34.2342 50.3788 34.0311C50.4601 33.828 50.582 33.7061 50.6632 33.7061C50.7851 33.7061 50.8663 33.6248 50.9476 33.5436C51.0695 33.3811 51.1507 33.1373 51.1914 32.8123C51.232 32.6904 51.2726 32.4873 51.3132 32.2435C51.5164 31.5935 51.6789 31.2685 51.7601 31.2279C51.8008 31.2279 51.8007 31.2685 51.8007 31.3091C51.8414 31.7966 51.7601 32.406 51.5164 33.0561L51.4351 33.2592C51.4757 33.2592 51.557 33.0967 51.7195 32.7717L51.9226 32.406C51.9226 32.406 51.9226 32.406 51.9226 32.4467C51.9226 32.5279 51.882 32.7311 51.7601 33.0561C51.3539 33.9498 51.1101 34.8842 51.0288 35.8593C50.907 36.4281 50.6632 36.7531 50.2569 36.7531C49.6476 36.9156 48.9569 36.4281 48.3881 35.3311Z" fill="#FDB913"/>
<path d="M64.8827 29.8057C64.9233 29.7245 64.9639 29.6432 64.9639 29.6026C64.9639 29.562 64.9639 29.562 64.9639 29.562C64.9233 29.562 64.8827 29.6026 64.8421 29.7245C64.8014 29.7651 64.8014 29.8464 64.8014 29.887V29.9276C64.8014 29.9276 64.8014 29.887 64.8827 29.8057ZM61.8763 33.8277C61.8763 33.7465 61.7951 33.7059 61.7138 33.7059C61.6326 33.7465 61.5919 33.7465 61.5919 33.7871V33.8277C61.5919 33.8277 61.5919 33.8684 61.6326 33.909C61.6732 33.9496 61.7138 33.9496 61.7951 33.9496C61.8357 33.909 61.8357 33.8684 61.8763 33.8277ZM60.6575 32.0808C60.6575 31.9996 60.6169 31.9183 60.5763 31.8777H60.5357C60.495 31.8777 60.495 31.8777 60.495 31.9183V32.0402L60.6169 32.2027C60.6575 32.2433 60.6575 32.2027 60.6575 32.0808ZM60.6169 30.9839C60.6575 30.6589 60.7794 30.2932 60.9826 29.8464C61.2669 29.1963 61.5513 28.7494 61.7544 28.4651C61.8357 28.3432 61.917 28.2619 61.917 28.2213C61.917 28.1807 61.8763 28.1401 61.8763 28.0994L61.7951 28.0182L61.5919 28.2213C61.5513 28.3026 61.5107 28.3838 61.4701 28.4651C61.4294 28.5463 61.4294 28.6682 61.3888 28.7494C61.3076 28.8713 61.2669 28.9526 61.1857 29.0338C61.1044 29.1557 61.0638 29.237 61.0232 29.3588C60.9826 29.4807 60.9419 29.5213 60.9013 29.562C60.7794 29.6838 60.6982 29.8057 60.6169 30.0089C60.5763 30.1307 60.5357 30.212 60.495 30.212C60.3731 30.2526 60.3325 30.3339 60.3325 30.4558C60.3325 30.4964 60.3325 30.537 60.3325 30.6183C60.3325 30.6995 60.3325 30.7808 60.3732 30.862V31.2683C60.3732 31.4714 60.4138 31.5933 60.4544 31.5933C60.5357 31.6339 60.5763 31.4308 60.6169 30.9839ZM57.6512 32.1214C57.9762 31.7152 58.3012 31.187 58.6262 30.6183L58.7075 30.4964C58.87 30.2933 59.1137 29.8057 59.3981 29.0338C59.5606 28.6276 59.6013 28.4244 59.6013 28.3838C59.6013 28.3026 59.5606 28.3026 59.4388 28.3026C59.2762 28.3026 59.1137 28.3838 58.87 28.5057C58.6262 28.6276 58.3825 28.8307 58.1793 29.1151C57.8543 29.5214 57.5293 29.9682 57.3262 30.4558C57.0824 31.0651 56.9605 31.5933 56.9605 32.0808C56.9605 32.3652 57.0418 32.5277 57.1637 32.5277H57.2855C57.3262 32.4871 57.448 32.3652 57.6512 32.1214ZM56.9605 30.4151C57.0012 30.2526 57.2449 29.887 57.6106 29.237C57.8137 28.9526 57.8949 28.7901 57.8949 28.7494C57.7324 28.7901 57.4481 29.1151 57.1637 29.7245C56.9199 30.212 56.798 30.4964 56.798 30.6589C56.798 30.6995 56.798 30.6995 56.8387 30.6995C56.8387 30.6589 56.9199 30.5776 56.9605 30.4151ZM55.6605 33.9496C55.2542 33.5434 55.0105 33.0965 54.9698 32.4871C54.9698 32.0402 55.0105 31.512 55.1324 31.0245C55.4167 29.7651 55.7417 28.9526 56.0668 28.5057C56.2699 28.2213 56.3918 28.0588 56.3918 28.0182C56.3918 27.9775 56.4324 27.8963 56.473 27.815C56.5136 27.7744 56.5949 27.6932 56.6761 27.6525C56.7574 27.6119 56.8387 27.5307 56.9605 27.4088C57.0824 27.2869 57.2449 27.165 57.3668 27.0838C57.7731 26.7181 58.1793 26.5556 58.6262 26.515C58.9919 26.515 59.2762 26.5962 59.6013 26.7587C59.8044 26.9213 59.9263 27.0025 59.9669 27.0431C60.0888 27.1244 60.17 27.165 60.2513 27.165C60.3732 27.165 60.495 27.0431 60.6169 26.7994C60.8607 26.4337 61.1044 26.2712 61.3888 26.2712C61.7545 26.2712 62.0795 26.4337 62.3638 26.84C62.5264 27.0431 62.6076 27.2463 62.6076 27.4494C62.6076 27.5713 62.567 27.815 62.4045 28.0994C61.8357 28.9932 61.5107 29.6432 61.3076 30.0495C61.2669 30.1714 61.1857 30.4151 61.0638 30.7808C60.9419 31.187 60.8607 31.5527 60.9013 31.8777C60.9013 32.2027 61.0638 32.3246 61.3482 32.3246C61.5513 32.2839 61.7544 32.1621 61.9576 31.9996C63.0139 31.2277 64.0295 30.0495 65.0858 28.4651C65.4108 27.8963 65.7358 27.4088 66.0202 27.0431L66.1827 26.84C66.1827 26.84 66.1827 26.84 66.1827 26.8806V26.9213C66.1827 27.2056 65.9796 27.7744 65.5327 28.6276C65.3702 28.9526 65.2077 29.2776 65.1264 29.5214C65.1671 29.4807 65.2483 29.3995 65.3702 29.237C65.4921 29.0745 65.6952 28.7494 65.9796 28.2213C66.0608 28.0588 66.1015 28.0182 66.1421 28.0182L66.1015 28.0994C65.6546 29.562 64.3139 31.4308 62.1201 33.6652C62.6076 33.4215 63.0545 33.0965 63.3795 32.6902L64.0295 31.8777C64.517 31.2683 64.8014 30.9839 64.8827 30.9433C64.9233 30.9433 64.9233 30.9839 64.9233 30.9839C64.9233 31.1058 64.6389 31.512 64.1108 32.2433L63.5826 32.8933C62.892 33.7871 62.2826 34.2746 61.6732 34.2746C61.3888 34.2746 61.0638 34.1934 60.6982 34.0715C60.0888 33.7871 59.6825 33.4621 59.4794 33.0558C59.2762 32.6496 59.1544 32.1621 59.1137 31.512C59.0731 31.5527 59.0325 31.5933 59.0325 31.6745C59.0325 31.7558 58.9919 31.8371 58.9512 31.9589C58.9106 32.0808 58.7887 32.2027 58.6668 32.3246C58.4231 32.5683 58.22 32.8933 58.0574 33.2183C57.8137 33.7059 57.4887 34.0715 57.1637 34.3153C57.0418 34.3965 56.9605 34.4371 56.798 34.4371C56.5137 34.4778 56.1074 34.3153 55.6605 33.9496Z" fill="#FDB913"/>
<path d="M79.1018 28.262C79.1018 28.1808 79.1018 28.1401 79.0611 28.1401C79.0205 28.1401 79.0205 28.1808 79.0205 28.262C79.0205 28.3433 79.0611 28.3433 79.0611 28.3433C79.1018 28.3433 79.1018 28.3027 79.1018 28.262ZM77.8423 31.6746C77.883 31.5528 77.9642 31.3903 78.1673 31.2277C78.2486 31.1465 78.2892 31.1059 78.3299 31.1059C78.3299 31.1059 78.3299 31.1059 78.3299 31.1465V31.2277C78.2486 31.5121 78.0861 31.6746 77.8423 31.7559V31.6746ZM75.4454 28.7089C75.4454 28.7089 75.4454 28.6683 75.486 28.6683C75.486 28.6683 75.486 28.6277 75.486 28.587C75.486 28.5058 75.486 28.5058 75.4454 28.5058C75.4454 28.5058 75.4047 28.5464 75.3641 28.7089C75.3235 28.7902 75.3235 28.8714 75.3235 28.9121V28.9527C75.3641 28.912 75.4048 28.8714 75.4454 28.7089ZM75.161 29.5214C75.161 29.4808 75.2016 29.4808 75.2016 29.4402C75.2016 29.4402 75.2016 29.3996 75.2422 29.3996C75.2829 29.2777 75.2829 29.1964 75.2829 29.1558C75.2829 29.1152 75.2829 29.1152 75.2422 29.1152C75.2422 29.1152 75.2016 29.1152 75.2016 29.1558C75.161 29.1964 75.161 29.2371 75.1204 29.3183C75.1204 29.3996 75.0797 29.4808 75.0797 29.5621V29.6433C75.1204 29.6027 75.1204 29.5621 75.161 29.5214ZM73.4141 30.009C73.4141 30.009 73.4141 29.9683 73.4141 29.9277C73.4141 29.8871 73.3734 29.8871 73.3734 29.8871C73.3734 29.8871 73.3328 29.9277 73.2922 29.9277C73.2922 29.9683 73.2516 29.9683 73.2516 30.009C73.2516 30.0902 73.2515 30.0902 73.3328 30.0902C73.3734 30.1308 73.4141 30.0902 73.4141 30.009ZM70.2046 32.9747C70.2452 32.9341 70.2858 32.8934 70.3671 32.8122C70.489 32.6903 70.7327 32.4059 71.1796 31.9184C71.2609 31.7965 71.6671 31.3903 72.3984 30.6184C73.3328 29.7246 73.7797 29.1964 73.7797 28.9933C73.7797 28.9527 73.7797 28.9527 73.7391 28.9527C73.7391 28.9527 73.6578 28.9933 73.6172 29.0339C73.5359 29.0746 73.4953 29.1558 73.4141 29.1964C73.3734 29.2371 73.2109 29.3589 72.9672 29.6027C71.9921 30.5371 71.0984 31.5528 70.3264 32.6497C70.2046 32.8528 70.1233 32.9747 70.1233 33.0153C70.1233 33.0559 70.1639 33.0153 70.2046 32.9747ZM68.5795 30.5371C68.5795 30.4965 68.6608 30.3746 68.7827 30.2527C68.8639 30.1308 68.9045 30.0902 68.9452 30.0902C68.9452 30.1308 68.9045 30.2527 68.7827 30.3746C68.7014 30.4965 68.6201 30.5371 68.5795 30.5371ZM68.0514 31.2684C68.0514 31.1871 68.1326 31.0652 68.2951 30.9027L68.4983 30.7402L68.3358 30.984C68.2139 31.1465 68.1326 31.2684 68.092 31.2684C68.0514 31.309 68.0514 31.2684 68.0514 31.2684ZM66.1419 33.0153C66.4669 32.609 66.8326 32.1215 67.1982 31.5934C67.6045 31.0652 67.9295 30.6184 68.2139 30.2527C68.3764 30.0496 68.6608 29.7246 69.1077 29.2371C69.5545 28.7495 69.7577 28.4245 69.7577 28.3027C69.7577 28.262 69.7171 28.262 69.6764 28.262C69.4327 28.3027 68.3358 29.6839 66.3451 32.3247C66.1419 32.609 65.8982 32.8934 65.6138 33.2184C65.3294 33.5434 65.2075 33.7466 65.2075 33.8278C65.2075 33.8685 65.2482 33.9091 65.2482 33.9091C65.4107 33.9091 65.695 33.6247 66.1419 33.0153ZM64.3137 34.7622C64.2731 34.6404 64.1919 34.5591 63.9887 34.5591C63.9075 34.5591 63.8669 34.5185 63.8669 34.5185C63.8669 34.5185 63.8669 34.4779 63.8669 34.4372C63.8669 34.356 63.8669 34.3154 63.8262 34.2341C63.8262 34.1935 63.745 34.1122 63.6637 34.031C63.5825 33.9497 63.5012 33.8278 63.5012 33.6653C63.5012 33.5028 63.5012 33.3403 63.5012 33.2184C63.5418 33.0559 63.6231 32.7715 63.745 32.4059L64.5981 30.1715C65.045 28.9527 65.4513 27.8964 65.8169 27.0026C65.9794 26.637 66.1419 26.4338 66.3857 26.4338C66.4263 26.4338 66.5076 26.4338 66.5888 26.4745C66.7513 26.5151 66.8732 26.5963 66.9545 26.6776C67.0357 26.7589 67.0763 26.8401 67.0763 26.8807C67.0763 26.9214 67.117 26.962 67.117 27.0026L67.1982 26.9213C67.3201 26.9213 67.3607 26.962 67.3607 27.0432C67.3607 27.0839 67.3607 27.1245 67.3201 27.2057C67.2795 27.287 67.2795 27.3682 67.2795 27.4901C67.2795 27.612 67.3201 27.7745 67.4013 27.8964C67.4826 27.9776 67.5232 28.0995 67.5232 28.2214C67.5232 28.3026 67.4826 28.4652 67.4013 28.7089L67.3201 28.9121V28.9527C67.3607 28.9527 67.442 28.8714 67.6045 28.6683C68.2951 27.937 68.8233 27.3682 69.2295 27.0432C69.5139 26.7995 69.7983 26.6776 70.0421 26.6776C70.3264 26.6776 70.5702 26.7588 70.6921 26.9213C70.7733 27.0026 70.8546 27.0839 71.0171 27.2057C71.0984 27.2464 71.1796 27.3276 71.1796 27.3682C71.1796 27.4495 71.2202 27.4901 71.2202 27.5714C71.2202 27.7339 71.3015 27.8964 71.3827 28.0589C71.5046 28.2214 71.5452 28.4245 71.5452 28.587V28.7089C71.5452 28.9933 71.5859 29.1558 71.5859 29.1558C71.6671 29.1558 72.0734 28.7495 72.8859 27.9776C73.5766 27.3276 74.1453 27.0026 74.5516 26.962C74.7141 26.962 74.8766 27.0026 75.0391 27.1245C75.161 27.2057 75.2829 27.287 75.486 27.3276C75.5673 27.3682 75.6485 27.3682 75.6485 27.4089C75.6485 27.4495 75.6485 27.4495 75.6485 27.4901C75.6079 27.5308 75.6079 27.612 75.6079 27.6526C75.6079 27.6526 75.6079 27.6932 75.6485 27.7339C75.7298 27.8558 75.7298 28.0183 75.7298 28.1808C75.7298 28.5464 75.6079 29.0339 75.3235 29.6433C75.161 30.0496 75.1204 30.2121 75.0797 30.2933C75.0797 30.334 75.0391 30.334 75.0391 30.334L75.0797 29.9683C75.0797 29.9277 75.0797 29.8871 75.0797 29.8871C75.0797 29.8871 75.0391 29.9683 74.9985 30.1308C74.9579 30.2933 74.8766 30.4559 74.836 30.6996C74.7141 31.1871 74.6329 31.5528 74.6735 31.7559C74.6735 31.9997 74.7547 32.0809 74.9172 32.0809C75.486 31.8371 76.0548 31.3903 76.5829 30.8215C77.1111 30.2527 77.5986 29.6433 78.0455 28.9933C78.4924 28.3433 78.9392 27.8151 79.3455 27.3276C79.3861 27.3276 79.3861 27.287 79.4268 27.2464C79.4674 27.2057 79.508 27.1651 79.5893 27.1651C79.6299 27.1651 79.6299 27.1651 79.6299 27.2057C79.6299 27.3682 79.5486 27.5308 79.3861 27.6526C79.3455 27.6526 79.3455 27.6933 79.3455 27.6933L79.6299 27.6526C79.7111 27.6526 79.7518 27.6932 79.7518 27.7339C79.7518 27.8151 79.7111 27.937 79.6705 28.0589C79.5893 28.1808 79.5486 28.3027 79.4674 28.4652C79.2236 28.9527 78.9799 29.4808 78.6142 30.0496C78.2486 30.659 77.9236 31.1059 77.6392 31.4715C77.0704 32.1215 76.4204 32.7309 75.7298 33.2591L75.6485 33.2997C75.4048 33.5028 75.2829 33.6247 75.2829 33.6247C75.2829 33.6247 75.2829 33.6247 75.3235 33.6247C75.4047 33.6247 75.6485 33.5028 76.0548 33.2591C76.461 33.0153 76.7454 32.8528 76.9485 32.7309C77.5579 32.2434 77.883 31.9996 78.0048 31.9996C78.0048 31.9996 77.9642 32.0809 77.9236 32.1622C77.5173 32.7716 76.9079 33.2997 76.1766 33.7466C75.811 33.9497 75.486 34.031 75.161 34.031C74.9172 34.031 74.7141 33.9903 74.4703 33.9497C74.186 33.8278 73.9422 33.6653 73.6984 33.4622C73.3328 33.1372 73.1297 32.7715 73.1297 32.4059C73.1297 32.0403 73.1703 31.634 73.2922 31.2277C73.3734 30.8215 73.4547 30.5777 73.4547 30.4965C73.4547 30.4559 73.4547 30.4152 73.4141 30.4152C73.3734 30.4152 73.2922 30.4965 73.1703 30.6184C73.1297 30.659 73.1297 30.6996 73.089 30.7402C72.6421 31.2684 72.1546 31.7965 71.7484 32.3247L71.7077 32.3653C70.9358 33.381 70.3264 33.9497 69.8796 34.1529C69.7577 34.1529 69.5952 34.0716 69.4733 33.9091C69.4327 33.8685 69.4327 33.8278 69.392 33.8278C69.392 33.8278 69.3514 33.8278 69.3514 33.8685C69.3108 33.8685 69.3108 33.8685 69.2702 33.8685C69.067 33.8685 68.9452 33.706 68.7827 33.381C68.6608 33.1778 68.6201 33.0153 68.6201 32.8934C68.6201 32.7716 68.6201 32.6903 68.6608 32.5684C68.7014 32.4872 68.7014 32.3653 68.742 32.2434C68.8233 31.8778 68.9045 31.5121 69.0264 31.1465C69.2295 30.4559 69.3514 30.0496 69.3514 29.8058C69.3514 29.7246 69.3514 29.7246 69.3108 29.7246C69.2702 29.7246 69.1889 29.8058 69.067 29.9277L68.6608 30.3746C68.4983 30.5777 68.2951 30.8215 68.092 31.1059C67.8889 31.3903 67.7264 31.634 67.6045 31.7153C67.4826 31.8371 67.442 31.9184 67.4013 31.9996C67.4013 32.1215 67.3201 32.2028 67.1982 32.2434C67.0763 32.284 67.0357 32.3653 66.9951 32.4872C66.9951 32.5684 66.9951 32.609 67.0357 32.609C67.117 32.609 67.2795 32.4465 67.5232 32.0809C67.767 31.7559 67.9295 31.634 67.9295 31.5934C67.9295 31.634 67.8076 31.7965 67.6451 32.0403C67.1576 32.7309 66.6295 33.381 66.1419 33.9497C65.6544 34.5591 65.2075 34.8435 64.8013 34.8841C64.5169 34.9247 64.395 34.8841 64.3137 34.7622Z" fill="#FDB913"/>
<path d="M80.9706 23.9963C81.0519 23.7932 81.1331 23.6307 81.0925 23.5494C81.0925 23.5088 81.0925 23.5088 81.0519 23.5088C81.0113 23.5088 80.93 23.6307 80.7675 23.8744C80.605 24.1588 80.5644 24.362 80.5644 24.4432C80.5644 24.4838 80.5644 24.4838 80.605 24.5245C80.6862 24.4838 80.8081 24.3213 80.9706 23.9963ZM80.5237 25.662C80.3206 25.4995 80.1987 25.2557 80.1581 24.9714C80.1581 24.9307 80.1581 24.8089 80.1581 24.6057C80.1581 24.362 80.2394 24.1182 80.4425 23.7526C80.6456 23.3869 80.8488 23.1838 81.1331 23.1025C81.3769 23.1025 81.6613 23.1432 81.9457 23.2244C82.3113 23.3057 82.5551 23.4682 82.6363 23.6713V23.7119C82.6363 23.7119 82.6363 23.7119 82.5957 23.7119H82.5551C82.5551 23.7119 82.5144 23.7526 82.5551 23.7932C82.5551 23.8338 82.5551 23.9151 82.6363 23.9963C82.6769 24.0776 82.7176 24.1588 82.7176 24.2401C82.7176 24.362 82.6363 24.5245 82.5144 24.6463C82.4332 24.7682 82.3113 24.8901 82.1894 25.0526C81.8644 25.5808 81.5394 25.8245 81.2144 25.8651C81.0113 25.9058 80.7675 25.8245 80.5237 25.662ZM77.6393 31.3091L77.6799 30.8622C77.6799 30.7809 77.6799 30.6997 77.7611 30.6591C77.883 30.5372 77.9643 30.4559 77.9643 30.3747C77.9643 30.334 78.0455 30.2122 78.1674 29.9684C78.208 29.8465 78.2893 29.7653 78.3299 29.6434L78.4518 29.2778C78.4924 29.1965 78.4924 29.1153 78.4924 29.0746C78.4924 29.034 78.533 28.9527 78.5737 28.9121C78.6143 28.8309 78.6143 28.7496 78.6549 28.6277C78.6549 28.5465 78.6956 28.4652 78.6956 28.384C78.7362 28.3433 78.7362 28.2621 78.7362 28.2215C78.7362 28.1402 78.7768 28.0183 78.8581 27.8965L79.0206 27.7746L79.1425 27.5308C79.2237 27.3683 79.305 27.2464 79.305 27.2058C79.305 27.1652 79.3456 27.0839 79.4268 27.0433C79.5081 27.0027 79.5893 26.9214 79.7112 26.8402C79.8331 26.7589 79.8737 26.6777 79.8737 26.637C79.8737 26.5558 79.8331 26.5152 79.7518 26.5152H79.7112C79.5081 26.5964 79.3456 26.6777 79.305 26.8402C79.2643 26.9214 79.2237 27.0027 79.1425 27.0433C79.1018 27.0839 79.0612 27.1246 79.0206 27.1652C78.9799 27.2464 78.9393 27.3683 78.8987 27.5714C78.8987 27.6527 78.8174 27.8152 78.6956 27.9777C78.5331 28.1808 78.4924 28.3433 78.4924 28.384C78.4924 28.4246 78.4924 28.5059 78.4924 28.6277V28.7496C78.4924 28.8715 78.4924 28.9934 78.4518 29.034C78.4112 29.0746 78.3705 29.1559 78.2893 29.2371C78.2487 29.3184 78.1674 29.4403 78.1268 29.6028C78.0455 29.7653 77.9643 29.9278 77.9237 30.0903C77.8424 30.2528 77.8018 30.3747 77.8018 30.4559C77.7611 30.5372 77.7205 30.6591 77.6799 30.7403C77.6393 30.8622 77.5986 30.9434 77.5986 31.0653V31.1059C77.5986 31.1466 77.5986 31.1872 77.6393 31.2278C77.6799 31.2684 77.6799 31.3091 77.7205 31.3091C77.558 31.431 77.5986 31.3903 77.6393 31.3091ZM77.558 31.9185C77.558 31.7966 77.5174 31.756 77.4361 31.756C77.3549 31.756 77.3143 31.8372 77.3143 31.9591C77.3143 32.081 77.3955 32.1622 77.4768 32.1622C77.558 32.1622 77.5986 32.081 77.558 31.9185ZM77.0705 32.6091C77.0299 32.2841 77.0705 31.9185 77.1518 31.4716C77.3955 30.0903 77.8018 28.7902 78.4112 27.5308C78.4518 27.4496 78.4924 27.3683 78.5737 27.2871C78.6549 27.2058 78.6956 27.1246 78.7362 27.0433C78.9799 26.4339 79.3456 26.1495 79.7925 26.1089C80.0362 26.1089 80.3206 26.1901 80.605 26.3527C80.93 26.5964 81.0925 26.7995 81.0925 27.0027C81.1331 27.2058 81.0113 27.4089 80.8081 27.6933C80.6862 27.8558 80.5644 28.059 80.4831 28.3027C80.3612 28.5871 80.2394 28.9527 80.0362 29.3996C79.5893 30.334 79.3862 30.9028 79.3862 31.1466C79.3862 31.2685 79.4675 31.3091 79.5893 31.3091H79.6706C80.4831 30.9434 81.2144 30.4559 81.9457 29.8465C82.6363 29.1965 83.6114 28.0183 84.7895 26.3527C84.8708 26.2714 84.9114 26.2308 84.952 26.2308C84.952 26.2714 84.8708 26.4745 84.7083 26.7589L84.5864 27.0027C84.627 27.0433 84.627 27.0433 84.7083 27.0839C84.7489 27.0839 84.7895 27.1246 84.7895 27.1652C84.7895 27.2464 84.7489 27.3683 84.627 27.6121C84.1395 28.6277 83.4488 29.684 82.5144 30.7403C81.6613 31.5528 80.605 32.3247 79.3456 33.1373C78.8987 33.4216 78.6549 33.5841 78.6549 33.6248C78.8174 33.6248 79.2643 33.4216 80.0362 33.0154C80.5644 32.731 81.1331 32.3654 81.6613 31.9185C81.8644 31.7153 82.0269 31.6341 82.0675 31.6341C82.0675 31.6341 82.1082 31.6341 82.1082 31.6747C82.1082 31.756 82.0269 31.9185 81.905 32.1216C81.7832 32.2841 81.58 32.4872 81.2956 32.6904C80.7675 33.056 80.4019 33.3404 80.1987 33.6248C80.1175 33.706 80.0769 33.7467 80.0769 33.7873C80.0769 33.8279 80.0362 33.8279 79.9956 33.8685C79.955 33.8685 79.8737 33.9092 79.7112 33.9904L79.5487 34.031C79.2237 34.1123 78.9393 34.1529 78.6956 34.1936C77.6799 34.1123 77.1924 33.6248 77.0705 32.6091Z" fill="#FDB913"/>
<path d="M91.4924 18.6744C91.4924 18.6338 91.4517 18.5931 91.3705 18.5525V18.5931V18.6338C91.4111 18.6744 91.4517 18.715 91.4924 18.6744C91.4924 18.715 91.4924 18.715 91.4924 18.6744ZM87.9985 19.5275V19.4869C87.9579 19.4869 87.9579 19.4869 87.9172 19.4869C87.8766 19.5275 87.836 19.5682 87.836 19.6088C87.836 19.6494 87.836 19.6494 87.8766 19.6494C87.9985 19.6494 87.9985 19.6088 87.9985 19.5275ZM87.4704 20.5838C87.4704 20.5838 87.511 20.5432 87.5516 20.4619C87.5922 20.4213 87.6329 20.3401 87.6329 20.2994C87.7141 20.0557 87.7547 19.9338 87.7547 19.8525C87.7547 19.8119 87.7547 19.8119 87.7141 19.8119C87.6735 19.8119 87.5516 19.9744 87.4297 20.3401C87.3891 20.4619 87.3891 20.5432 87.3891 20.5838C87.4297 20.6245 87.4297 20.6245 87.4704 20.5838C87.4704 20.6245 87.4704 20.6245 87.4704 20.5838ZM87.186 22.2901C87.186 22.2495 87.2266 22.2089 87.2266 22.1683C87.2266 22.1276 87.2266 22.1276 87.2266 22.087C87.2266 22.0057 87.186 21.9651 87.1453 21.9651C87.1047 22.0057 87.0641 22.1276 87.0641 22.2495C87.0641 22.3307 87.0641 22.3308 87.1047 22.3308C87.1047 22.3308 87.1453 22.3308 87.186 22.2901ZM89.0954 20.8276C89.9892 19.4869 90.4361 18.6744 90.4361 18.4306C90.4361 18.3494 90.3548 18.3087 90.2329 18.3087C90.0704 18.3087 89.8267 18.5119 89.5423 18.8369C89.2985 19.1213 89.0548 19.5275 88.7704 20.0557C88.6079 20.4213 88.4048 20.7463 88.161 21.112C88.0391 21.2338 87.9579 21.437 87.8766 21.6401L87.3485 22.8183L87.1047 23.2652C87.0641 23.3058 87.0235 23.4277 87.0235 23.5089C87.0235 23.5495 87.0235 23.5495 87.0235 23.5495C87.186 23.5495 87.8766 22.6558 89.0954 20.8276ZM87.0641 22.5745C87.0641 22.5339 87.0235 22.4933 86.9422 22.4933H86.9016C86.8203 22.4933 86.8203 22.5339 86.8203 22.5745C86.8203 22.6151 86.861 22.6151 86.9828 22.6151C87.0641 22.6151 87.1047 22.6151 87.0641 22.5745ZM87.0235 21.5995C87.0641 21.5589 87.0641 21.4776 87.1047 21.3964C87.1453 21.3151 87.1453 21.2745 87.186 21.1932C87.2266 21.1526 87.2266 21.112 87.2266 21.112V21.0713L87.186 21.112C87.1453 21.1526 87.1047 21.2338 87.0235 21.3557C86.861 21.6401 86.7797 21.8432 86.7797 21.8839C86.8203 21.9245 86.9016 21.8432 87.0235 21.5995ZM86.7391 23.062V23.0214C86.7391 23.0214 86.6984 23.0214 86.6984 23.062C86.6578 23.1027 86.6578 23.1839 86.6578 23.2245C86.6578 23.2652 86.6578 23.2652 86.6984 23.2652C86.6984 23.2652 86.7391 23.1839 86.7391 23.062ZM86.6172 22.6558C86.6985 22.4933 86.7391 22.2901 86.7797 22.0057C86.7797 22.0464 86.7391 22.0464 86.7391 22.0464C86.7391 22.0464 86.7391 22.0464 86.6984 22.087C86.4547 22.4526 86.3328 22.6964 86.3328 22.8589C86.3328 22.8995 86.3328 22.8995 86.3734 22.8995C86.4547 22.8995 86.5359 22.8183 86.6172 22.6558ZM86.2922 23.4683C86.3328 23.4277 86.3328 23.4277 86.3328 23.387C86.3328 23.3464 86.2922 23.3464 86.1703 23.3058C86.0891 23.3058 86.0484 23.3464 86.0484 23.4277V23.4683C86.0891 23.5089 86.1297 23.5495 86.1703 23.5495C86.2109 23.5089 86.2516 23.5089 86.2922 23.4683ZM86.6578 26.109C86.7797 25.9465 86.9016 25.784 87.0235 25.6621C87.2672 25.2965 87.4703 25.0934 87.7141 24.9715C87.7141 24.9715 87.7547 24.9308 87.7954 24.809C88.0391 24.3621 88.2423 24.0371 88.486 23.8746C88.7298 23.5089 89.136 22.9402 89.7048 22.1683C89.8267 21.8839 89.9892 21.6807 90.1111 21.4776C90.233 21.3557 90.3548 21.2745 90.5986 21.1932C90.558 21.0713 90.558 20.9901 90.558 20.9088C90.558 20.8682 90.5986 20.8276 90.6392 20.7463C90.7611 20.7057 90.8423 20.5838 90.9236 20.3807C91.0049 20.2182 91.0861 20.0963 91.1674 19.9338C91.4111 19.5275 91.5736 19.1619 91.6142 18.8369C91.0861 19.4869 90.5986 20.1776 90.1111 20.9495C89.8267 21.437 89.5423 21.8432 89.2173 22.2901C88.8923 22.6964 88.6079 23.1433 88.2829 23.5089C87.7141 24.2402 87.3891 24.6871 87.2672 24.8902C87.186 24.9715 87.1047 25.0934 87.0235 25.2559C86.9016 25.4184 86.7797 25.5809 86.6578 25.7027C86.536 25.8652 86.4547 25.9465 86.3734 26.0278C86.3734 26.0278 86.3328 26.0684 86.2922 26.1496C86.2516 26.2309 86.2109 26.3121 86.1703 26.3934C86.1297 26.4746 86.1297 26.5559 86.1297 26.5965H86.1703C86.2109 26.6372 86.3734 26.434 86.6578 26.109ZM85.8047 24.6058C85.8047 24.5652 85.8047 24.5246 85.764 24.5246C85.7234 24.5246 85.7234 24.5652 85.6828 24.6465V24.6871C85.6828 24.7277 85.7234 24.7277 85.7234 24.7277C85.8047 24.7277 85.8047 24.6871 85.8047 24.6058ZM84.3015 31.6342C84.464 31.0248 84.5453 30.6592 84.5453 30.456L84.8703 28.9529C84.9515 28.7091 84.9515 28.5872 84.9515 28.4653C84.9515 28.3841 84.9515 28.3435 84.8703 28.3435C84.789 28.3435 84.7078 28.506 84.5859 28.8716C84.0984 30.7404 83.8546 31.9186 83.8952 32.3655C83.8952 32.4061 83.8952 32.4467 83.8952 32.4874V32.528C84.0577 32.528 84.1796 32.203 84.3015 31.6342ZM85.114 37.2C84.9515 37.0781 84.789 36.9563 84.6265 36.8344C84.464 36.7125 84.3827 36.6313 84.3015 36.5906L83.8546 36.0625C83.2452 35.1281 82.9202 34.1124 82.9202 32.9749C82.8796 32.0405 83.0421 30.9436 83.3671 29.7248L83.4483 29.4404C83.5702 28.8716 83.7327 28.3028 83.9359 27.7341C84.0171 27.5309 84.0984 27.2872 84.139 27.084C84.2609 26.5965 84.464 26.1496 84.6265 25.6621L84.9109 24.8902C85.439 23.5495 85.7234 22.8183 85.8047 22.6964L86.0078 22.2089C86.1703 21.6807 86.5359 20.9088 86.9828 19.8932C87.4297 18.9181 87.9172 18.1462 88.4454 17.6587C88.9329 17.1306 89.4204 16.8868 89.8267 16.8462C90.1111 16.8462 90.3955 16.9274 90.6798 17.09C91.0455 17.3337 91.3299 17.6587 91.533 18.0244C91.7361 18.39 91.8174 18.715 91.8174 18.9994C91.8174 19.2025 91.8174 19.4056 91.7361 19.6088C91.6549 19.8119 91.533 20.0963 91.3299 20.4213C91.1267 20.7869 90.883 21.112 90.6798 21.437C90.4361 21.762 90.2736 22.0464 90.1111 22.2089C90.0704 22.2089 90.0298 22.2495 90.0298 22.2495C89.9892 22.2495 89.9892 22.2495 89.9486 22.2089H89.9079C89.9079 22.2089 89.8673 22.2089 89.8673 22.2495C89.8673 22.3307 89.9079 22.3714 89.9486 22.412H89.9079C89.9079 22.412 89.8673 22.412 89.8673 22.4526C89.8267 22.4526 89.8267 22.4933 89.7861 22.5339C89.7048 22.6558 89.6235 22.7776 89.5829 22.8995C89.5017 23.1433 89.3392 23.3464 89.0548 23.5495C89.0142 23.5902 88.9735 23.6308 88.9329 23.712C88.8516 23.9558 88.6485 24.1996 88.2829 24.5652C88.2423 24.5652 88.2423 24.6465 88.2016 24.7277C88.161 24.8496 88.0797 25.0121 87.9579 25.134C87.836 25.2965 87.7141 25.459 87.5516 25.6621C87.3485 25.9465 87.2266 26.109 87.1047 26.2309C86.6172 26.8403 86.3328 27.2872 86.2516 27.6122V27.8153C86.2516 27.8559 86.2516 27.8559 86.2516 27.8559L86.0484 27.7341C86.0484 27.8153 86.0078 27.8559 85.9265 27.8559C85.8859 27.8559 85.8453 27.8559 85.8047 27.8559H85.6015C85.6015 27.8559 85.6015 27.8966 85.6422 27.8966C85.6828 27.9372 85.6828 27.9778 85.6828 28.0185C85.6828 28.0997 85.6015 28.3028 85.439 28.5872C85.3172 28.7903 85.2359 28.9935 85.1546 29.2779L84.789 30.4154C84.789 30.6998 84.8296 30.9029 84.8703 31.0654C84.9921 30.9436 85.0328 30.9029 85.0734 30.9029C85.0734 30.9029 85.0734 30.9842 85.0328 31.0654C84.9921 31.1467 84.9515 31.3092 84.9109 31.4717C84.7078 32.2842 84.6265 33.0561 84.6671 33.828C84.7078 34.9249 84.9515 35.9812 85.4797 37.0375C85.5203 37.1594 85.5609 37.2406 85.5609 37.3219C85.5609 37.3625 85.5609 37.4032 85.5203 37.4032C85.3984 37.3625 85.2765 37.2813 85.114 37.2Z" fill="#FDB913"/>
<path d="M92.7521 31.7559C92.7521 31.7152 92.7521 31.6746 92.7114 31.634C92.6708 31.6746 92.6302 31.7152 92.6302 31.7965C92.6302 31.8371 92.6302 31.8777 92.6708 31.8777H92.7114C92.7114 31.8777 92.7114 31.8371 92.7521 31.7559ZM91.5739 35.3716C91.6145 35.331 91.6145 35.2904 91.6145 35.2091C91.6145 35.1685 91.6145 35.1685 91.6145 35.1685C91.5333 35.1685 91.4926 35.2497 91.452 35.4122L91.4926 35.4529C91.5333 35.4122 91.5739 35.4122 91.5739 35.3716ZM91.0864 36.7529C91.3301 36.306 91.4114 36.0216 91.4114 35.8997C91.4114 35.8591 91.4114 35.8591 91.3707 35.8591C91.3301 35.8591 91.2895 35.8998 91.2489 35.981C91.127 36.2248 91.0457 36.4279 91.0457 36.6716L91.0864 36.7529ZM90.477 38.5811C90.5176 38.5405 90.5176 38.4998 90.5176 38.4998C90.5176 38.4592 90.5176 38.4592 90.477 38.4592H90.4363C90.3145 38.4998 90.2738 38.6217 90.2738 38.7436C90.2738 38.7842 90.2738 38.8249 90.3145 38.8249C90.3145 38.8249 90.3957 38.7436 90.477 38.5811ZM89.7051 40.0843C89.7051 40.0436 89.7051 40.003 89.7051 39.9624C89.6644 40.003 89.6238 40.0436 89.6238 40.1249C89.6238 40.2061 89.6238 40.2468 89.6644 40.2468C89.6644 40.2062 89.6644 40.1655 89.7051 40.0843ZM88.73 28.6683C88.8519 28.5464 88.9332 28.3026 88.9738 27.9776L89.0144 27.7338C89.055 27.612 89.1363 27.4901 89.2582 27.3682C89.3394 27.287 89.3394 27.2057 89.3394 27.1651C89.3394 27.0838 89.2988 27.0432 89.2176 27.0026C89.1769 27.0026 89.0957 27.1244 89.0551 27.3276C89.0144 27.4495 88.9738 27.5307 88.9332 27.5713C88.8925 27.612 88.8519 27.7338 88.8519 27.9776C88.8113 28.2214 88.8113 28.3432 88.73 28.4651C88.6082 28.6683 88.5269 28.8308 88.4863 28.9526L88.4457 28.9933C88.4863 28.9526 88.5675 28.7901 88.73 28.6683ZM88.8519 32.8121C88.9738 32.7309 89.1363 32.5684 89.4207 32.3653C89.6644 32.1621 89.9488 31.9184 90.2738 31.634C90.8832 31.1058 91.2082 30.6996 91.2082 30.4558C91.2082 30.4152 91.2082 30.3746 91.1676 30.3746C91.127 30.3746 90.9645 30.5371 90.6801 30.8214C90.3957 31.1058 90.1926 31.309 90.152 31.3496C89.5426 31.8777 88.9332 32.4059 88.2425 32.8528C88.2425 32.8528 88.2019 32.8934 88.1613 32.8934C88.1206 32.8934 88.08 32.934 88.0394 33.0153C87.9581 33.0559 87.9175 33.0965 87.8769 33.1372C87.8363 33.1778 87.8363 33.2184 87.8363 33.2184C87.8363 33.259 87.8363 33.259 87.8769 33.259C87.9175 33.259 87.9175 33.2997 87.9581 33.2997C88.08 33.3403 88.3644 33.1778 88.8519 32.8121ZM85.2768 44.35C86.6987 43.8625 87.9175 42.725 88.9332 40.8968C89.9082 39.0686 90.7614 37.1998 91.4114 35.331C92.0614 33.4215 92.5083 31.8371 92.7114 30.4964L92.7521 30.2933C92.7521 30.2933 92.6708 30.4558 92.5895 30.7402C92.5083 30.984 92.4677 31.1058 92.4677 31.1465C92.0208 32.6496 91.452 34.3966 90.7207 36.3873C89.4613 40.0436 87.8769 42.4812 85.9268 43.7407L85.8456 43.7813C85.4799 43.9438 85.2362 44.0657 85.0737 44.1469C84.8705 44.2688 84.7487 44.35 84.7487 44.3907C84.7487 44.4313 84.7893 44.4313 84.8705 44.4313C84.9112 44.4313 85.033 44.3907 85.2768 44.35ZM82.758 43.2531C82.4329 42.725 82.2704 42.2375 82.3111 41.7093C82.3517 41.1406 82.5548 40.3687 82.9611 39.4342C83.3267 38.4592 83.8549 37.6061 84.5049 36.8342C84.6268 36.7123 84.708 36.6716 84.708 36.6716C84.7486 36.6716 84.7487 36.7123 84.7487 36.7935C84.708 36.9154 84.5861 37.1185 84.4236 37.4436C84.3424 37.6061 84.3018 37.6873 84.2205 37.7686C84.1799 37.8498 84.1393 37.8904 84.1393 37.9311C83.9361 38.4592 83.8142 38.7842 83.8142 38.9061V38.9467C83.8549 38.9467 84.0174 38.703 84.3018 38.1342L84.383 37.9311C85.1143 36.4685 85.6831 35.5747 86.0893 35.331C85.7643 35.8998 85.4393 36.5091 85.1143 37.1592C84.7893 37.7686 84.5455 38.3373 84.383 38.8655C84.0986 39.7186 83.8955 40.5718 83.7736 41.3843C83.733 41.5468 83.733 41.6687 83.733 41.7906C83.733 42.3593 83.8955 42.7656 84.1799 42.9281C84.2611 42.9687 84.3424 42.9687 84.4236 42.9687C84.6268 42.9687 84.9112 42.8062 85.3174 42.5219C85.3174 42.4812 85.358 42.4812 85.3987 42.4812C85.9674 41.9937 86.4956 41.4656 86.9425 40.8968C87.9581 39.3936 88.8113 37.8092 89.5019 36.0623C89.827 35.2903 90.2738 33.9091 90.802 31.9996C90.5988 32.1621 90.3145 32.4465 89.9082 32.7715C89.5019 33.0965 89.0957 33.4215 88.6894 33.7059C88.2832 33.9903 87.9581 34.1528 87.755 34.1934C87.3487 34.1528 86.9425 33.9091 86.5768 33.4622C86.0893 32.8934 85.8456 32.4059 85.8862 31.959C85.8862 31.5121 86.13 30.6183 86.6175 29.237C87.2269 27.4495 87.755 26.4338 88.2019 26.19C88.3238 26.1494 88.4457 26.1494 88.6082 26.1494C88.9738 26.1494 89.1769 26.3119 89.2176 26.5557C89.2176 26.6776 89.2582 26.7588 89.3801 26.7588C89.5426 26.7994 89.6644 26.8401 89.7863 26.9619C89.7863 27.0026 89.7863 27.0026 89.7863 27.0432C89.7863 27.1245 89.7051 27.3682 89.5426 27.6932C89.3801 27.9776 89.2582 28.3432 89.1769 28.6276C89.055 28.9526 88.8925 29.2776 88.6082 29.6433C88.4863 29.8058 88.405 29.9277 88.405 30.0089C88.405 30.0902 88.405 30.1308 88.4457 30.2121C88.4863 30.1714 88.5269 30.0902 88.6082 30.0089C88.6082 30.0089 88.6082 30.0089 88.6082 30.0496C88.6082 30.2121 88.5269 30.3746 88.405 30.5777C88.2425 30.8214 88.1613 31.0652 88.1613 31.309V31.3496C88.1613 31.3496 88.2019 31.3496 88.2019 31.309C88.2425 31.2683 88.2831 31.2683 88.3238 31.2277C88.8925 30.9027 89.5426 30.3339 90.2332 29.562C90.9645 28.7089 91.4926 27.9776 91.8583 27.3276C92.2239 26.6776 92.5489 26.3119 92.8333 26.2307H92.9958C93.3208 26.2307 93.5646 26.2713 93.7271 26.3932C93.8083 26.4744 93.9302 26.5557 93.9708 26.6369C94.0521 26.7182 94.1333 26.8401 94.2552 26.9619C94.2959 27.0026 94.2959 27.0432 94.2959 27.1651C94.2959 27.4495 94.1334 28.1807 93.7677 29.2777L93.524 30.1308C93.1177 31.7152 92.7927 32.6496 92.5489 32.8528L92.5083 32.8934H92.5489C92.5489 32.8934 92.5895 32.934 92.6302 32.934C92.6302 32.9747 92.6708 33.0153 92.6708 33.0965C92.6708 33.2997 92.5895 33.5028 92.5083 33.6653C92.427 33.7466 92.3458 33.7872 92.2239 33.7872V33.8278C92.2239 33.8278 92.2645 33.8684 92.2645 33.9497C92.3052 33.9903 92.3052 34.0716 92.3052 34.1528C92.3052 34.2747 92.2645 34.3966 92.1833 34.5185C92.102 34.6403 92.0208 34.7216 91.9395 34.7216C91.8583 34.7622 91.8176 34.8028 91.777 34.8435C91.777 34.9247 91.8176 34.9247 91.8989 34.9247H91.9395C91.9802 34.9247 92.0208 34.9247 92.0208 34.9653L91.9801 35.0872C91.8989 35.331 91.8176 35.5747 91.777 35.7372C91.4926 36.5904 91.2895 37.1185 91.127 37.2404C90.8426 37.9311 90.6395 38.4186 90.5988 38.6217C90.477 39.0686 90.3551 39.3124 90.2332 39.3124C90.1926 39.3124 90.152 39.3124 90.1113 39.3124C90.0707 39.3124 90.0301 39.4342 90.0301 39.5968C90.0301 39.7593 89.9895 39.9624 89.8676 40.2061C89.7863 40.4499 89.6644 40.6937 89.5426 40.9374C89.4207 41.1406 89.2582 41.3031 89.1363 41.3031C89.0957 41.3031 89.0551 41.3031 89.0551 41.3437C89.0551 41.3437 89.0551 41.3843 89.0957 41.4249C89.0957 41.4656 89.1363 41.5062 89.1363 41.5468C89.1363 41.5874 89.1363 41.5874 89.1363 41.6281C89.1363 41.6687 89.1363 41.7093 89.0957 41.7906C89.0144 41.7499 88.9738 41.7093 88.9332 41.6687C88.8925 41.6281 88.8519 41.5874 88.8519 41.5874C88.8519 41.5874 88.8113 41.6281 88.8113 41.7499V41.9125C88.8113 41.9531 88.7707 42.0343 88.73 42.1562C88.6082 42.4406 88.4863 42.6031 88.405 42.6031C88.2831 42.6031 88.1613 42.725 88.1206 43.0094L88.0394 43.1719C88.0394 43.1719 87.9988 43.1313 87.9988 43.0906C87.9581 43.05 87.9581 43.0094 87.9581 43.0094L87.9175 43.05C87.9175 43.05 87.8769 43.0906 87.8363 43.1719C87.7956 43.2125 87.755 43.3344 87.6738 43.4156C87.5925 43.5375 87.5112 43.6188 87.43 43.7C87.3487 43.8219 87.2675 43.8625 87.2269 43.9438C87.1862 43.9844 87.1456 44.0657 87.1456 44.1063C87.105 44.1469 87.0644 44.1469 87.0237 44.1875C86.9831 44.1875 86.9425 44.1875 86.9425 44.2282C86.9018 44.2282 86.9018 44.2688 86.9018 44.3094C86.9018 44.35 86.8612 44.35 86.8206 44.3907C86.78 44.4313 86.7393 44.4313 86.6987 44.4313C86.6581 44.4313 86.5768 44.4719 86.455 44.5126C86.3737 44.5532 86.2925 44.5938 86.1706 44.6344C86.0893 44.6751 86.0487 44.7157 86.0081 44.7563C85.6424 44.9188 85.3174 45.0001 84.9924 45.0001C84.1393 44.9188 83.408 44.3907 82.758 43.2531Z" fill="#FDB913"/>
</svg>