<svg width="141" height="67" viewBox="0 0 141 67" fill="none" xmlns="http://www.w3.org/2000/svg">
<path d="M34.9062 32.2861C34.4223 32.4071 33.9384 32.4071 33.394 32.3466C31.0954 32.1047 29.0993 30.5924 27.4662 29.0198C26.9218 28.5359 26.4379 27.9915 25.954 27.4471C24.3813 25.6929 22.99 23.6363 22.9296 21.3378C22.8691 19.4626 23.7159 17.648 25.0466 16.3777C26.0749 15.3494 27.4057 14.6236 28.8574 14.3816C30.6115 14.0792 32.4867 14.4421 34.1199 15.168C36.0555 15.9543 37.8701 17.2246 39.0194 18.9182C40.4106 20.9143 40.8945 23.5758 40.4106 25.9953C40.1082 27.3261 39.5638 28.6568 38.717 29.7456C37.7492 30.9554 36.4184 31.9837 34.9062 32.2861Z" fill="#FDB913"/>
<path d="M53.3552 39.3631C51.6615 40.4519 49.5445 40.5728 47.1249 39.0002C42.4069 35.7943 39.6244 29.806 42.5883 24.9064C44.5844 21.5796 51.9035 17.8293 55.6538 21.4586C58.1943 23.9386 57.166 31.1367 56.6216 34.0401C56.2586 36.2177 55.0489 38.2743 53.3552 39.3631Z" fill="#8DC63F"/>
<path d="M38.8381 11.1756C38.959 10.8732 39.1405 10.5707 39.322 10.2683C41.4391 7.42533 45.0079 6.69948 47.6693 7.72777C49.0001 8.27217 50.1494 9.42144 50.8752 10.8732C51.1776 11.5385 51.4196 12.3249 51.4196 13.1717C51.4801 14.8654 51.0567 15.8332 49.7259 16.559C47.4274 17.8293 44.9474 17.5873 42.6488 16.922C40.8342 16.3776 38.1727 14.9864 38.5356 12.0829C38.6566 11.841 38.7171 11.478 38.8381 11.1756Z" fill="#8DC63F"/>
<path d="M24.1391 29.8664C24.6835 31.4996 24.744 33.3143 24.0787 35.3709C21.5986 42.8714 11.981 44.7465 5.62976 41.2382C-0.600524 37.7299 -2.53615 28.0518 4.3595 23.9991C10.3478 20.4303 21.8406 23.0918 24.1391 29.8664Z" fill="#8DC63F"/>
<path d="M24.1995 11.236C23.8971 12.8692 23.1712 14.5024 22.1429 15.9541C19.5419 19.5834 14.34 22.0634 9.92432 20.4907C-0.358672 16.7405 9.56138 4.09844 16.7595 3.49355C21.2961 3.13063 24.9859 6.75992 24.1995 11.236Z" fill="#8DC63F"/>
<path d="M31.8817 12.6878C30.7325 12.5064 29.5832 11.962 28.5549 10.9942C26.3773 9.05855 25.0466 5.48975 26.3773 2.7073C27.5266 0.348257 30.1881 -0.438084 32.6076 0.227286C36.8418 1.43705 39.9267 7.90928 36.1159 11.2361C34.7247 12.4459 33.273 12.9298 31.8817 12.6878Z" fill="#8DC63F"/>
<path d="M9.80378 50.2511C9.86427 49.8882 9.92475 49.5858 10.0457 49.2229C10.5296 47.8316 11.3765 46.5009 12.5862 45.7145C13.554 45.0492 14.8243 44.6862 15.9736 44.9887C16.7599 45.1701 17.4858 45.654 18.0302 46.2589C18.5746 46.8638 18.998 47.5897 19.3004 48.376C19.6634 49.1624 19.8448 50.0697 19.8448 50.9165C19.8448 51.8238 19.6633 52.6707 19.1794 53.3965C18.6955 54.0619 18.0302 54.6063 17.3043 54.9692C16.518 55.3322 15.7316 55.4531 14.8848 55.4531C12.2233 55.5136 9.92475 54.0619 9.74329 51.2794C9.74329 50.9165 9.74329 50.6141 9.80378 50.2511Z" fill="#8DC63F"/>
<path d="M34.3003 35.4315C41.3774 35.4315 49.5433 39.7261 47.9101 47.9525C45.9745 57.6306 33.9373 59.5058 26.6788 54.7877C22.9285 52.3077 19.5412 46.8637 21.3558 42.2666C23.1705 37.4276 29.5822 35.371 34.3003 35.4315Z" fill="#8DC63F"/>
<path d="M71.379 15.8877C70.2902 15.2829 69.4434 14.4965 68.8385 13.4682C68.2337 12.4399 67.9312 11.2907 67.9312 9.95991C67.9312 8.68966 68.2337 7.54039 68.8385 6.4516C69.4434 5.42331 70.2902 4.63696 71.379 4.03208C72.4678 3.4272 73.6776 3.12476 75.0688 3.12476C76.46 3.12476 77.6698 3.4272 78.7586 4.03208C79.8474 4.63696 80.6942 5.42331 81.2991 6.4516C81.904 7.4799 82.2669 8.62917 82.2669 9.95991C82.2669 11.2302 81.9645 12.3794 81.2991 13.4682C80.6942 14.4965 79.8474 15.2829 78.7586 15.8877C77.6698 16.4926 76.46 16.7951 75.0688 16.7951C73.7381 16.7951 72.4678 16.4926 71.379 15.8877ZM77.1859 13.6497C77.7908 13.2868 78.2747 12.8029 78.6376 12.1375C79.0005 11.4721 79.182 10.7463 79.182 9.95991C79.182 9.17356 79.0005 8.4477 78.6376 7.78233C78.2747 7.11696 77.7908 6.63306 77.1859 6.27013C76.581 5.9072 75.8552 5.72574 75.0688 5.72574C74.2825 5.72574 73.6171 5.9072 72.9517 6.27013C72.3469 6.63306 71.8629 7.11696 71.5 7.78233C71.1371 8.4477 70.9556 9.17356 70.9556 9.95991C70.9556 10.7463 71.1371 11.4721 71.5 12.1375C71.8629 12.8029 72.3469 13.2868 72.9517 13.6497C73.5566 14.0126 74.2825 14.1941 75.0688 14.1941C75.8552 14.1941 76.581 14.0126 77.1859 13.6497Z" fill="#8DC63F"/>
<path d="M84.3238 3.42725V16.5532H87.2877V5.90725H93.2156V16.5532H96.24V3.42725H84.3238Z" fill="#8DC63F"/>
<path d="M99.5067 3.42725V16.5532H109.669V14.1336H102.531V11.1092H108.64V8.7502H102.531V5.84677H109.427V3.42725H99.5067Z" fill="#8DC63F"/>
<path d="M120.738 3.42725L117.29 8.7502H115.112V3.42725H112.088V16.5532H115.112V11.2907H117.23L120.617 16.5532H124.065L119.649 9.7785L123.944 3.42725H120.738Z" fill="#8DC63F"/>
<path d="M130.416 3.42725L124.548 16.5532H127.633L128.782 13.7102H134.892L136.041 16.5532H139.247L133.379 3.42725H130.416ZM131.867 6.39116L133.924 11.4117H129.811L131.867 6.39116Z" fill="#8DC63F"/>
<path d="M92.4291 28.9534C92.4291 28.8929 92.6106 28.651 93.034 28.3486L93.2154 28.2276C93.2759 28.2276 93.3364 28.2276 93.3364 28.2881C93.3364 28.3485 93.2759 28.4695 93.0944 28.651C92.913 28.8325 92.792 28.8929 92.5501 28.8929C92.4896 29.0139 92.4291 29.0139 92.4291 28.9534ZM91.2193 25.3241C91.2193 25.2637 91.2193 25.2637 91.2193 25.3241C91.2798 25.2032 91.0983 25.1427 90.7959 25.0217C90.312 24.9007 90.0096 24.8402 89.8281 24.8402C89.7071 24.8402 89.6466 24.9007 89.6466 24.9612C89.6466 25.0822 89.8281 25.2032 90.07 25.2637C90.3725 25.3241 90.6144 25.3846 90.8564 25.3846C90.9774 25.3846 91.0984 25.3241 91.2193 25.3241ZM83.5978 26.4129C83.3559 26.4129 83.1744 26.3524 83.1744 26.2315C83.1744 26.05 83.2349 25.929 83.3559 25.8081C83.6583 25.6266 84.2632 25.5056 85.0495 25.4451C85.5939 25.4451 85.9569 25.5661 85.9569 25.8685C85.9569 25.9895 85.8964 26.1105 85.7149 26.1105C85.6544 26.1105 85.5334 26.1105 85.4125 26.05C85.2915 25.9895 85.1705 25.9895 84.989 25.9895C84.8681 25.9895 84.6866 26.05 84.5656 26.1105C84.2632 26.292 83.9607 26.4129 83.6583 26.4129H83.5978ZM81.2993 38.3291V38.2686C81.3597 38.1476 81.4202 38.0872 81.5412 38.0872C81.6622 38.0872 81.7227 38.2081 81.7227 38.3896C81.7227 38.5106 81.6622 38.5106 81.5412 38.571C81.4202 38.571 81.3597 38.5106 81.2993 38.3291ZM80.5734 38.813C80.3315 38.7525 80.2105 38.7525 80.2105 38.6315C80.2105 38.5711 80.271 38.5106 80.3919 38.4501C80.5129 38.3896 80.6339 38.3291 80.8154 38.3291C80.9363 38.3291 81.0573 38.3896 81.1178 38.4501C81.1178 38.5106 81.1178 38.5106 81.0573 38.571C80.9968 38.6315 80.9363 38.692 80.8758 38.7525C80.8154 38.7525 80.7549 38.813 80.6944 38.813H80.5734ZM79.0612 38.813C79.0612 38.7525 79.0007 38.692 79.0007 38.6315C78.9402 38.5711 78.9402 38.571 78.8193 38.571C78.7588 38.571 78.6983 38.6315 78.7588 38.692C78.7588 38.8735 78.8797 38.9945 79.0007 39.055C79.0612 39.055 79.0612 38.9945 79.0612 38.813ZM78.0329 42.6843C77.9724 42.6843 77.9724 42.6238 77.9119 42.5028C77.9119 42.4423 77.9119 42.4423 77.9119 42.4423C77.9119 42.4423 77.9119 42.3818 77.9119 42.3213C77.9119 42.2608 77.9119 42.2003 77.9724 42.2003C77.9724 42.1399 77.9724 42.1399 77.9724 42.1399C77.9724 41.8374 78.0934 41.293 78.3958 40.5067C78.5773 40.1437 78.6983 39.9018 78.7588 39.8413C78.7588 39.5389 78.7588 39.4179 78.8193 39.4179C78.9402 39.4179 79.0007 39.5389 79.0612 39.9018C79.0612 39.9623 79.0612 40.0228 79.1217 40.2042C79.1217 40.3857 79.0612 40.6881 78.8193 41.0511L78.7588 41.1116L78.4563 41.8979C78.3353 42.3213 78.1539 42.6238 78.0329 42.6843ZM77.6095 43.7125C77.6095 43.6521 77.6095 43.5916 77.6095 43.5311C77.6095 43.4706 77.6095 43.4101 77.6095 43.2891C77.6095 43.2286 77.6095 43.1681 77.6095 43.1077C77.6095 43.1077 77.6095 43.0472 77.67 42.9867C77.7305 42.9262 77.7305 42.8657 77.7909 42.8052C77.8514 42.7447 77.8514 42.6843 77.9119 42.6238C77.9724 42.6238 77.9724 42.5633 77.9724 42.5633C78.0329 42.6238 78.0329 42.7447 78.0934 42.9262C78.0934 42.9867 78.0329 43.1681 77.9119 43.4101C77.7909 43.7125 77.67 43.8335 77.6095 43.8335C77.6095 43.9545 77.6095 43.8335 77.6095 43.7125ZM77.3675 44.8618C77.4885 44.5594 77.4885 44.257 77.4885 43.9545C77.428 43.8335 77.428 43.773 77.3675 43.773C77.307 43.773 77.307 43.894 77.2466 44.136C77.1861 44.4989 77.1861 44.7408 77.1861 44.9223C77.1861 45.0433 77.1861 45.1038 77.2466 45.1038C77.307 45.1038 77.3675 45.0433 77.3675 44.9223C77.3675 44.9828 77.3675 44.9828 77.3675 44.9828C77.3675 44.9828 77.3675 45.0433 77.307 45.0433V45.1038C77.307 45.1038 77.2466 45.1643 77.2466 45.2247C77.3675 45.1643 77.428 45.0433 77.3675 44.8618ZM76.6417 46.2531C76.6417 46.1321 76.6417 45.9506 76.6417 45.8296C76.6417 45.7691 76.7022 45.7692 76.7022 45.7692C76.7022 45.7692 76.7022 45.7692 76.7627 45.7692L76.8231 45.5272C76.8231 45.2852 76.8836 44.8618 77.1861 44.257C77.307 43.9545 77.428 43.8335 77.4885 43.8335C77.4885 43.8335 77.4885 43.8335 77.549 43.894C77.6095 44.1965 77.4885 44.7408 77.1861 45.5877C76.9441 46.253 76.8231 46.5555 76.7022 46.616C76.6417 46.495 76.6417 46.374 76.6417 46.2531ZM75.7948 48.9145C75.7948 48.7936 75.8553 48.5516 75.9763 48.0677C76.0973 47.5233 76.2787 47.0999 76.5207 46.7974L76.5812 46.8579C76.5812 46.9789 76.5812 47.1604 76.5207 47.3418C76.4602 47.5233 76.3997 47.7653 76.3392 48.0072C76.2787 48.2492 76.1578 48.4306 76.0973 48.6121C76.0368 48.7936 75.9763 48.9145 75.9158 48.9145C75.8553 48.9145 75.8553 48.975 75.7948 48.9145C75.7948 48.9145 75.7948 48.975 75.7948 48.9145ZM73.9197 40.8696C73.9197 40.8091 73.9802 40.7486 74.0407 40.6881C74.1617 40.6276 74.2221 40.5672 74.3431 40.5672C74.4036 40.5672 74.4641 40.5672 74.5246 40.5672C74.5851 40.5672 74.5851 40.5672 74.6456 40.5672C74.6456 40.8696 74.4641 40.9906 74.1617 40.9906C74.0407 40.9301 73.9197 40.9301 73.9197 40.8696ZM72.589 41.414C72.468 41.414 72.4075 41.414 72.4075 41.3535C72.4075 41.293 72.468 41.2325 72.7099 41.1116L73.3148 40.9906L73.6778 40.9301C73.7987 40.9301 73.8592 40.9301 73.8592 40.9906C73.8592 41.0511 73.7382 41.1116 73.4963 41.2325C73.1938 41.3535 72.8914 41.414 72.7099 41.414H72.589ZM72.347 28.2881C72.8309 28.1066 73.4963 27.9251 74.2222 27.6832C74.5851 27.5622 74.948 27.5017 75.3109 27.5017C75.4924 27.5017 75.6134 27.5017 75.6739 27.5017C75.7344 27.5622 75.7948 27.5622 75.8553 27.5622C75.9763 27.5622 76.0368 27.5017 76.0368 27.3807C76.0368 27.2598 76.1578 27.1993 76.3997 27.1993H76.9441C77.1256 27.1993 77.2466 27.1388 77.1861 27.0178C77.1861 26.9573 77.428 26.8363 77.9119 26.7759C78.3958 26.7759 78.7588 26.7154 78.8797 26.5944C79.0612 26.4734 79.2427 26.4129 79.5451 26.4129C79.8475 26.3525 79.9685 26.292 79.908 26.1105C79.8475 25.929 79.6661 25.8081 79.3032 25.8081C79.1217 25.8081 78.8797 25.8685 78.6983 25.9895C78.5168 26.1105 78.2749 26.171 78.0329 26.2315H77.7305C77.428 26.2315 77.0651 26.292 76.7022 26.4734C76.2787 26.6549 75.9763 26.7154 75.7344 26.7154H75.6739C75.3109 26.7154 74.4641 26.9573 73.0124 27.4412C71.8631 27.8646 71.3187 28.1066 71.3187 28.2881C71.3187 28.3485 71.4397 28.409 71.6212 28.409C71.8631 28.409 72.1051 28.3485 72.347 28.2881ZM72.0446 52.6043C71.9841 52.4833 71.9841 52.3624 71.9236 52.2414C71.8631 51.8784 71.9236 51.455 72.0446 50.9711C72.1655 50.3058 72.347 49.8219 72.468 49.338C73.9197 44.6199 74.7665 42.1399 74.948 41.8979C75.069 41.6559 75.1295 41.4745 75.1295 41.293C75.1295 41.1116 74.948 40.9301 74.706 40.6881C74.6456 40.5672 74.5246 40.5067 74.5246 40.4462C74.5246 40.3857 74.5851 40.3252 74.706 40.2647H74.7665C74.7665 40.2647 74.7665 40.2042 74.706 40.2042C74.6456 40.2042 74.6456 40.1437 74.5851 40.0833C73.6778 40.3857 72.7704 40.7486 71.8631 41.1721C71.5002 41.3535 71.2582 41.414 70.9558 41.414C70.8953 41.414 70.8348 41.414 70.6533 41.3535C70.5324 41.3535 70.2904 41.1116 70.0485 40.6881C69.988 40.5672 69.9275 40.5067 69.9275 40.4462C69.867 40.2647 69.746 40.2042 69.625 40.0833C69.4436 40.0228 69.3226 39.8413 69.3226 39.5389C69.2621 39.2364 69.3831 38.9945 69.5646 38.7525C69.746 38.6315 70.1694 38.3896 70.8348 38.1476C71.1373 37.9662 71.4397 37.8452 71.6816 37.7242C71.9841 37.5428 72.347 37.4218 72.6495 37.3613C73.0729 37.3008 74.0407 36.9379 75.5529 36.333C75.9158 36.1515 76.1578 36.091 76.3392 36.0306C76.5207 35.9701 76.6417 35.8491 76.8231 35.7281C77.0046 35.4862 77.307 34.6393 77.7305 33.3086L79.0007 29.1954C79.3032 28.2276 79.4846 27.5622 79.4241 27.2598C79.4241 27.1388 79.3031 27.0783 79.2427 27.0783C79.2427 27.0783 79.1822 27.0783 79.1217 27.1388C78.2144 27.3807 77.549 27.5017 77.1861 27.5017C77.0651 27.5017 76.8836 27.5622 76.6417 27.6227C76.0368 27.8042 75.6739 27.9251 75.4924 27.9251C74.827 28.1671 74.3431 28.2276 74.1617 28.2881H74.0407C73.6778 28.409 73.3753 28.4695 73.0729 28.5905C72.8309 28.7115 72.589 28.772 72.4075 28.772C72.347 28.772 72.2865 28.772 72.2865 28.772C72.0446 28.772 71.4397 29.0744 70.5324 29.6188C69.988 29.9817 69.4436 30.2237 68.9597 30.4656C68.7177 30.6471 68.4758 30.7681 68.2943 31.01C67.9314 31.4939 67.508 31.7359 67.0845 31.7359C66.9031 31.7359 66.7821 31.6149 66.7821 31.4335C66.7821 31.252 66.7821 31.01 66.8426 30.7076L66.9031 30.4656C66.9636 30.0422 67.0241 29.7398 67.145 29.5583C67.266 29.3769 67.4475 29.1954 67.7499 29.0744C67.8709 29.0139 67.9314 28.9534 68.1128 28.8325C67.6894 28.651 67.4475 28.4695 67.387 28.3486C67.387 28.2276 67.508 27.9251 67.7499 27.5622C68.4153 26.4129 69.2621 25.6266 70.3509 25.2032C71.3792 24.7798 72.468 24.4168 73.6173 24.2354L74.4036 24.0539C74.948 23.9329 75.5529 23.8119 76.0973 23.6305C77.1861 23.3885 77.9724 23.2071 78.4563 23.0861C79.0007 22.9651 79.3636 22.8441 79.5451 22.8441C79.7266 22.8441 79.908 22.7836 80.029 22.7232C80.15 22.6627 80.4524 22.6022 80.9968 22.5417C82.0856 22.3602 83.2349 22.2997 84.5051 22.1788C85.1705 22.1788 85.7754 22.1183 86.0778 22.0578C86.1383 22.0578 86.1988 22.0578 86.2593 22.0578C86.3803 22.0578 86.6222 22.1183 86.9852 22.1183H87.1666C87.4086 22.1183 87.59 22.0578 87.6505 21.9368L88.3159 21.8763C89.2837 21.8158 90.3725 21.9368 91.5218 22.1183C92.671 22.2997 93.5179 22.7232 94.2437 23.2676C94.8486 23.8119 95.2115 24.3563 95.272 25.0217C95.3325 25.3846 95.272 25.808 95.2115 26.171C95.0906 26.5944 94.9091 26.9573 94.7276 27.3203C94.4857 27.6832 94.2437 27.9251 94.0623 28.1671C93.8808 28.3486 93.7598 28.4695 93.6993 28.4695V28.409C93.6993 28.2881 93.7598 28.1671 93.8808 27.9856C94.0623 27.8042 94.1228 27.5622 94.1228 27.1993C94.1228 27.0783 94.0623 27.0178 94.0018 27.0178C93.9413 27.0178 93.6993 27.2598 93.2154 27.6832C92.8525 27.9251 92.4291 28.1066 91.9452 28.2276L91.7032 28.3486C91.6427 28.3486 91.6427 28.2881 91.5822 28.2881C91.5822 28.2276 91.6427 28.0461 91.7637 27.8042C92.0057 27.3203 92.0662 27.0178 92.0662 26.7759C92.0057 26.4129 91.7032 26.171 91.1588 26.05C90.7959 25.929 90.433 25.8685 90.0096 25.8081C89.5257 25.7476 89.2232 25.6871 89.1022 25.6871C88.6183 25.6871 88.3159 25.7476 88.1949 25.8081C88.1344 25.8685 87.832 25.929 87.2271 25.9895C86.6827 25.9895 86.3803 25.929 86.3198 25.8685C86.2593 25.808 86.2593 25.6871 86.1988 25.5661C86.1988 25.2637 86.2593 25.1427 86.4407 25.1427C86.5617 25.1427 86.9851 25.1427 87.6505 25.1427C88.3159 25.1427 88.7393 25.1427 88.9208 25.2032H89.0418C89.1627 25.2032 89.1627 25.1427 89.1627 25.0217C89.1022 24.7798 88.8603 24.7193 88.3159 24.7193C88.0739 24.7193 87.8925 24.7193 87.711 24.6588C87.59 24.5983 87.4691 24.5378 87.4691 24.4773C87.4691 24.4168 87.4086 24.3563 87.2876 24.3563C87.2271 24.3563 87.1666 24.3563 87.0456 24.4168C86.6827 24.5983 85.9569 24.6588 84.8681 24.7193H83.9607C83.3559 24.7193 83.0534 24.7798 82.9929 24.9007C82.9324 25.0217 82.8115 25.0822 82.509 25.0822H81.9041C81.5412 25.0822 81.3597 25.2637 81.3597 25.5661C81.3597 25.6266 81.4202 25.6871 81.6017 25.7476C81.9041 25.929 82.2066 26.05 82.4485 25.9895C82.5695 25.9895 82.5695 25.9895 82.5695 25.929C82.5695 25.8081 82.5695 25.8081 82.6905 25.7476C82.751 25.7476 82.8115 25.808 82.872 25.8685C82.872 25.9895 82.872 26.171 82.872 26.292C82.8115 26.3524 82.3276 26.4734 81.3597 26.6549L80.4524 26.8363L81.3597 27.1388C82.388 27.5017 82.872 27.8646 82.9324 28.2881V28.53C82.9324 28.651 82.751 28.772 82.3881 28.8929C82.2066 28.8929 82.1461 28.9534 82.1461 29.0139V29.0744C82.1461 29.0744 82.2671 29.1349 82.4485 29.1954C82.509 29.1954 82.509 29.2559 82.5695 29.3164C82.5695 29.4373 82.5695 29.6793 82.4485 29.9817C82.3276 30.4656 82.2066 30.7681 82.0251 30.7681C81.9041 30.7681 81.8437 30.9496 81.7832 31.252C81.7832 31.4939 81.7227 31.6149 81.6017 31.6149C81.5412 31.6149 81.4807 31.6149 81.4807 31.5544C81.4202 31.5544 81.3597 31.4939 81.3597 31.4939C81.2993 31.4939 81.2993 31.4939 81.2993 31.5544C81.2993 31.6149 81.2993 31.7359 81.3597 32.0383L81.4202 32.4013C81.4807 32.7037 81.4202 32.8852 81.3597 32.8852C81.2993 32.8852 81.2388 32.8247 81.1178 32.7037C81.0573 32.5827 80.9363 32.5222 80.9363 32.5222C80.8154 32.5222 80.7549 32.6432 80.6339 32.8852C80.5129 33.1876 80.4524 33.3691 80.5129 33.49C80.5129 33.611 80.5734 33.6715 80.6944 33.6715C80.7549 33.6715 80.8759 33.49 80.9363 33.1876L80.9968 32.8852C80.9968 32.8852 81.0573 32.9457 81.0573 33.0061C81.1178 33.3086 81.1178 33.5505 81.0573 33.7925C81.0573 33.974 81.0573 34.0949 81.0573 34.2159C81.0573 34.3369 81.1178 34.3974 81.1178 34.3974C81.2993 34.3974 81.8437 34.2764 82.751 34.0949C84.3237 33.7925 85.8964 33.611 87.59 33.5505C88.5578 33.4901 89.1022 33.611 89.3442 33.7925C89.3442 34.0344 89.3442 34.3369 89.2232 34.6393C89.1022 35.0022 88.9208 35.1232 88.6788 35.1232C88.4974 35.1232 88.3764 35.1232 88.1949 35.1232C88.0739 35.1232 87.953 35.0627 87.832 35.0627C87.711 35.0627 87.711 35.1232 87.711 35.1837C87.711 35.2442 87.832 35.3047 88.0739 35.3652C88.2554 35.4257 88.3764 35.4862 88.4974 35.5466C88.6183 35.6676 88.7393 35.7886 88.7393 36.091C88.7393 36.333 88.7393 36.454 88.6183 36.454C88.5578 36.454 88.5578 36.454 88.4974 36.3935C88.4369 36.3935 88.4369 36.3935 88.4369 36.454C88.4369 36.5145 88.4974 36.6354 88.6788 36.7564C88.7998 36.8169 88.9208 36.8774 88.9208 36.9379V36.9984C88.7393 37.2403 88.4974 37.3613 88.1949 37.4218C88.0739 37.4218 87.8925 37.4218 87.711 37.4823C87.59 37.4823 87.4086 37.4823 87.2271 37.4823C87.0456 37.4823 86.8642 37.4823 86.6222 37.4823C86.4408 37.4823 86.2593 37.5428 86.0778 37.5428L84.9285 37.7242C84.0212 37.9057 83.3559 38.0267 82.8115 38.0267C82.2671 38.0267 81.9646 37.9662 81.9646 37.8452C81.9646 37.7847 81.9646 37.7242 82.0251 37.6637C82.2066 37.4823 82.4485 37.3613 82.8115 37.3008C82.9929 37.3008 83.4164 37.2403 83.9607 37.2403C84.0817 37.2403 84.2632 37.2403 84.3842 37.2403C84.989 37.2403 85.4729 37.1193 85.9569 36.8774C85.4125 36.7564 84.8681 36.6959 84.2632 36.6959C82.8115 36.7564 81.2388 37.1798 79.6056 37.9662C79.4846 38.0267 79.4241 38.1476 79.4241 38.2081C79.4241 38.2686 79.4846 38.3291 79.6056 38.4501C79.6661 38.5711 79.7871 38.6315 79.7871 38.7525C79.7871 38.9945 79.5451 39.1155 79.0007 39.1155C78.6378 39.1155 78.3958 39.2969 78.3353 39.5994C78.1539 40.0833 78.0934 40.3252 78.0329 40.4462C77.9119 40.7486 77.6095 41.535 77.1861 42.7447C76.8231 43.773 76.6417 44.4384 76.5812 44.6804C76.3997 45.6482 76.0973 46.5555 75.7344 47.5233C75.4319 48.3097 75.1295 49.1565 74.8875 50.0033L74.7665 50.3662C74.6456 50.7292 74.6456 50.9106 74.6456 51.0921C74.6456 51.1526 74.706 51.1526 74.706 51.1526C74.7665 51.1526 74.8875 50.9711 75.0085 50.6687C75.1295 50.3662 75.3109 50.1848 75.4319 50.1848C75.6134 50.1848 75.7344 50.0638 75.8553 49.9428C76.0368 49.7009 76.1578 49.3379 76.2183 48.854C76.2787 48.6726 76.3392 48.3701 76.3997 48.0072C76.7022 47.0394 76.9441 46.5555 77.0651 46.495C77.1256 46.495 77.1256 46.5555 77.1256 46.616C77.1861 47.3418 77.0651 48.2492 76.7022 49.217L76.5812 49.5194C76.6417 49.5194 76.7626 49.2775 77.0046 48.7936L77.307 48.2492C77.307 48.2492 77.307 48.2492 77.307 48.3096C77.307 48.4306 77.2466 48.7331 77.0651 49.217C76.4602 50.5477 76.0973 51.9389 75.9763 53.3906C75.7948 54.2375 75.4319 54.7214 74.827 54.7214C73.9197 54.9633 72.8914 54.2375 72.0446 52.6043Z" fill="#FDB913"/>
<path d="M96.6031 44.3774C96.6636 44.2565 96.7241 44.1355 96.7241 44.075C96.7241 44.0145 96.7241 44.0145 96.7241 44.0145C96.6636 44.0145 96.6031 44.075 96.5426 44.2565C96.4821 44.317 96.4821 44.4379 96.4821 44.4984V44.5589C96.4821 44.5589 96.4821 44.4984 96.6031 44.3774ZM92.127 50.3658C92.127 50.2448 92.006 50.1843 91.885 50.1843C91.764 50.2448 91.7036 50.2448 91.7036 50.3053V50.3658C91.7036 50.3658 91.7036 50.4263 91.764 50.4868C91.8245 50.5472 91.885 50.5472 92.006 50.5472C92.0665 50.4868 92.0665 50.4263 92.127 50.3658ZM90.3123 47.7648C90.3123 47.6438 90.2518 47.5228 90.1914 47.4623H90.1309C90.0704 47.4623 90.0704 47.4624 90.0704 47.5228V47.7043L90.2518 47.9462C90.3123 48.0067 90.3123 47.9463 90.3123 47.7648ZM90.2518 46.1316C90.3123 45.6477 90.4938 45.1033 90.7962 44.4379C91.2197 43.4701 91.6431 42.8048 91.9455 42.3813C92.0665 42.1999 92.1875 42.0789 92.1875 42.0184C92.1875 41.9579 92.127 41.8974 92.127 41.837L92.006 41.716L91.7036 42.0184C91.6431 42.1394 91.5826 42.2604 91.5221 42.3813C91.4616 42.5023 91.4616 42.6838 91.4011 42.8048C91.2801 42.9862 91.2197 43.1072 91.0987 43.2282C90.9777 43.4096 90.9172 43.5306 90.8567 43.7121C90.7962 43.8935 90.7357 43.954 90.6753 44.0145C90.4938 44.196 90.3728 44.3774 90.2518 44.6799C90.1914 44.8614 90.1309 44.9823 90.0704 44.9823C89.8889 45.0428 89.8284 45.1638 89.8284 45.3453C89.8284 45.4058 89.8284 45.4662 89.8284 45.5872C89.8284 45.7082 89.8284 45.8292 89.8889 45.9501V46.555C89.8889 46.8575 89.9494 47.0389 90.0099 47.0389C90.1309 47.0994 90.1914 46.797 90.2518 46.1316ZM85.8362 47.8253C86.3201 47.2204 86.804 46.434 87.2879 45.5872L87.4089 45.4058C87.6508 45.1033 88.0138 44.3775 88.4372 43.2282C88.6792 42.6233 88.7396 42.3209 88.7396 42.2604C88.7396 42.1394 88.6792 42.1394 88.4977 42.1394C88.2557 42.1394 88.0138 42.2604 87.6508 42.4418C87.2879 42.6233 86.925 42.9257 86.6226 43.3492C86.1387 43.954 85.6547 44.6194 85.3523 45.3453C84.9894 46.2526 84.8079 47.0389 84.8079 47.7648C84.8079 48.1882 84.9289 48.4302 85.1104 48.4302H85.2918C85.3523 48.3697 85.5338 48.1882 85.8362 47.8253ZM84.8079 45.2848C84.8684 45.0428 85.2313 44.4984 85.7757 43.5306C86.0782 43.1072 86.1991 42.8652 86.1991 42.8048C85.9572 42.8652 85.5338 43.3492 85.1104 44.2565C84.7474 44.9823 84.566 45.4058 84.566 45.6477C84.566 45.7082 84.5659 45.7082 84.6264 45.7082C84.6264 45.6477 84.7474 45.5267 84.8079 45.2848ZM82.8723 50.5472C82.2674 49.9424 81.9045 49.277 81.844 48.3697C81.844 47.7043 81.9045 46.918 82.0859 46.1921C82.5094 44.317 82.9933 43.1072 83.4772 42.4418C83.7796 42.0184 83.9611 41.7765 83.9611 41.716C83.9611 41.6555 84.0216 41.5345 84.082 41.4135C84.1425 41.353 84.2635 41.2321 84.3845 41.1716C84.5055 41.1111 84.6264 40.9901 84.8079 40.8087C84.9894 40.6272 85.2313 40.4457 85.4128 40.3248C86.0177 39.7804 86.6226 39.5384 87.2879 39.4779C87.8323 39.4779 88.2557 39.5989 88.7396 39.8408C89.0421 40.0828 89.2235 40.2038 89.284 40.2643C89.4655 40.3852 89.5865 40.4457 89.7075 40.4457C89.8889 40.4457 90.0704 40.2643 90.2518 39.9013C90.6148 39.3569 90.9777 39.115 91.4011 39.115C91.9455 39.115 92.4294 39.3569 92.8528 39.9618C93.0948 40.2643 93.2158 40.5667 93.2158 40.8691C93.2158 41.0506 93.1553 41.4135 92.9133 41.837C92.0665 43.1677 91.5826 44.1355 91.2801 44.7404C91.2196 44.9218 91.0987 45.2848 90.9172 45.8292C90.7358 46.434 90.6148 46.9784 90.6753 47.4623C90.6753 47.9463 90.9172 48.1277 91.3406 48.1277C91.6431 48.0672 91.9455 47.8858 92.2479 47.6438C93.8206 46.4945 95.3329 44.7404 96.9055 42.3813C97.3894 41.5345 97.8733 40.8087 98.2968 40.2643L98.5387 39.9618C98.5387 39.9618 98.5387 39.9618 98.5387 40.0223V40.0828C98.5387 40.5062 98.2363 41.353 97.5709 42.6233C97.329 43.1072 97.087 43.5911 96.966 43.954C97.0265 43.8936 97.1475 43.7726 97.3289 43.5306C97.5104 43.2887 97.8129 42.8048 98.2363 42.0184C98.3572 41.7765 98.4178 41.716 98.4782 41.716L98.4177 41.837C97.7524 44.0145 95.7563 46.797 92.4899 50.1238C93.2158 49.7609 93.8811 49.277 94.365 48.6721L95.3328 47.4623C96.0587 46.555 96.4821 46.1316 96.6031 46.0711C96.6636 46.0711 96.6636 46.1316 96.6636 46.1316C96.6636 46.3131 96.2402 46.918 95.4538 48.0067L94.6675 48.9746C93.6392 50.3053 92.7319 51.0311 91.8245 51.0311C91.4011 51.0311 90.9172 50.9102 90.3728 50.7287C89.4655 50.3053 88.8606 49.8214 88.5582 49.2165C88.2557 48.6116 88.0743 47.8858 88.0138 46.918C87.9533 46.9784 87.8928 47.0389 87.8928 47.1599C87.8928 47.2809 87.8323 47.4019 87.7718 47.5833C87.7113 47.7648 87.5299 47.9463 87.3484 48.1277C86.9855 48.4907 86.683 48.9745 86.4411 49.4585C86.0782 50.1843 85.5943 50.7287 85.1104 51.0916C84.9289 51.2126 84.8079 51.2731 84.566 51.2731C84.1425 51.3336 83.5377 51.0916 82.8723 50.5472Z" fill="#FDB913"/>
<path d="M117.774 42.0791C117.774 41.9582 117.774 41.8977 117.713 41.8977C117.653 41.8977 117.653 41.9582 117.653 42.0791C117.653 42.2001 117.713 42.2001 117.713 42.2001C117.774 42.2001 117.774 42.1396 117.774 42.0791ZM115.899 47.1601C115.959 46.9787 116.08 46.7367 116.383 46.4948C116.504 46.3738 116.564 46.3133 116.625 46.3133C116.625 46.3133 116.625 46.3133 116.625 46.3738V46.4948C116.504 46.9182 116.262 47.1602 115.899 47.2811V47.1601ZM112.33 42.7445C112.33 42.7445 112.33 42.684 112.39 42.684C112.39 42.684 112.39 42.6235 112.39 42.563C112.39 42.4421 112.39 42.4421 112.33 42.4421C112.33 42.4421 112.269 42.5026 112.209 42.7445C112.148 42.8655 112.148 42.9865 112.148 43.047V43.1074C112.209 43.0469 112.269 42.9865 112.33 42.7445ZM111.906 43.9543C111.906 43.8938 111.967 43.8938 111.967 43.8333C111.967 43.8333 111.967 43.7728 112.027 43.7728C112.088 43.5913 112.088 43.4704 112.088 43.4099C112.088 43.3494 112.088 43.3494 112.027 43.3494C112.027 43.3494 111.967 43.3494 111.967 43.4099C111.906 43.4704 111.906 43.5309 111.846 43.6518C111.846 43.7728 111.786 43.8938 111.786 44.0148V44.1357C111.846 44.0753 111.846 44.0148 111.906 43.9543ZM109.305 44.6801C109.305 44.6801 109.305 44.6197 109.305 44.5592C109.305 44.4987 109.245 44.4987 109.245 44.4987C109.245 44.4987 109.185 44.5592 109.124 44.5592C109.124 44.6197 109.064 44.6196 109.064 44.6801C109.064 44.8011 109.064 44.8011 109.185 44.8011C109.245 44.8616 109.305 44.8011 109.305 44.6801ZM104.527 49.0958C104.587 49.0353 104.648 48.9748 104.769 48.8538C104.95 48.6723 105.313 48.2489 105.979 47.5231C106.1 47.3416 106.705 46.7367 107.793 45.5875C109.185 44.2567 109.85 43.4704 109.85 43.1679C109.85 43.1074 109.85 43.1074 109.789 43.1074C109.789 43.1074 109.668 43.1679 109.608 43.2284C109.487 43.2889 109.426 43.4099 109.305 43.4704C109.245 43.5309 109.003 43.7123 108.64 44.0752C107.188 45.4665 105.858 46.9787 104.708 48.6119C104.527 48.9143 104.406 49.0958 104.406 49.1562C104.406 49.2167 104.466 49.1563 104.527 49.0958ZM102.107 45.4665C102.107 45.406 102.228 45.2245 102.41 45.0431C102.531 44.8616 102.591 44.8011 102.652 44.8011C102.652 44.8616 102.591 45.0431 102.41 45.2245C102.289 45.406 102.168 45.4665 102.107 45.4665ZM101.321 46.5553C101.321 46.4343 101.442 46.2528 101.684 46.0109L101.986 45.7689L101.744 46.1318C101.563 46.3738 101.442 46.5553 101.382 46.5553C101.321 46.6158 101.321 46.5553 101.321 46.5553ZM98.4781 49.1562C98.962 48.5514 99.5064 47.8255 100.051 47.0392C100.656 46.2528 101.14 45.5875 101.563 45.0431C101.805 44.7406 102.228 44.2567 102.894 43.5309C103.559 42.805 103.862 42.3211 103.862 42.1396C103.862 42.0791 103.801 42.0791 103.741 42.0791C103.378 42.1396 101.744 44.1962 98.7806 48.128C98.4781 48.5514 98.1152 48.9748 97.6918 49.4587C97.2683 49.9426 97.0869 50.245 97.0869 50.366C97.0869 50.4265 97.1474 50.487 97.1474 50.487C97.3893 50.487 97.8127 50.0636 98.4781 49.1562ZM95.7562 51.7573C95.6957 51.5758 95.5747 51.4548 95.2722 51.4548C95.1513 51.4548 95.0908 51.3943 95.0908 51.3943C95.0908 51.3943 95.0908 51.3338 95.0908 51.2733C95.0908 51.1524 95.0908 51.0919 95.0303 50.9709C95.0303 50.9104 94.9093 50.7894 94.7883 50.6685C94.6674 50.5475 94.5464 50.366 94.5464 50.1241C94.5464 49.8821 94.5464 49.6402 94.5464 49.4587C94.6069 49.2167 94.7278 48.7933 94.9093 48.2489L96.1796 44.9221C96.8449 43.1074 97.4498 41.5347 97.9942 40.204C98.2362 39.6596 98.4781 39.3572 98.841 39.3572C98.9015 39.3572 99.0225 39.3572 99.1435 39.4177C99.3854 39.4782 99.5669 39.5991 99.6879 39.7201C99.8089 39.8411 99.8693 39.9621 99.8693 40.0226C99.8693 40.083 99.9298 40.1435 99.9298 40.204L100.051 40.083C100.232 40.083 100.293 40.1435 100.293 40.2645C100.293 40.325 100.293 40.3855 100.232 40.5064C100.172 40.6274 100.172 40.7484 100.172 40.9299C100.172 41.1113 100.232 41.3533 100.353 41.5348C100.474 41.6557 100.535 41.8372 100.535 42.0187C100.535 42.1396 100.474 42.3816 100.353 42.7445L100.232 43.047V43.1074C100.293 43.1074 100.414 42.9865 100.656 42.684C101.684 41.5952 102.47 40.7484 103.075 40.2645C103.499 39.9016 103.922 39.7201 104.285 39.7201C104.708 39.7201 105.071 39.8411 105.253 40.083C105.374 40.204 105.495 40.325 105.737 40.5064C105.858 40.5669 105.979 40.6879 105.979 40.7484C105.979 40.8694 106.039 40.9299 106.039 41.0508C106.039 41.2928 106.16 41.5348 106.281 41.7767C106.463 42.0187 106.523 42.3211 106.523 42.563V42.7445C106.523 43.1679 106.584 43.4099 106.584 43.4099C106.705 43.4099 107.309 42.805 108.519 41.6557C109.547 40.6879 110.394 40.204 110.999 40.1435C111.241 40.1435 111.483 40.204 111.725 40.3855C111.906 40.5064 112.088 40.6274 112.39 40.6879C112.511 40.7484 112.632 40.7484 112.632 40.8089C112.632 40.8694 112.632 40.8694 112.632 40.9299C112.572 40.9904 112.572 41.1113 112.572 41.1718C112.572 41.1718 112.572 41.2323 112.632 41.2928C112.753 41.4743 112.753 41.7162 112.753 41.9582C112.753 42.5026 112.572 43.2284 112.148 44.1357C111.906 44.7406 111.846 44.9826 111.786 45.1036C111.786 45.164 111.725 45.164 111.725 45.164L111.786 44.6196C111.786 44.5591 111.786 44.4987 111.786 44.4987C111.786 44.4987 111.725 44.6197 111.665 44.8616C111.604 45.1036 111.483 45.3455 111.423 45.7084C111.241 46.4343 111.12 46.9787 111.181 47.2811C111.181 47.6441 111.302 47.765 111.544 47.765C112.39 47.4021 113.237 46.7367 114.024 45.8899C114.81 45.0431 115.536 44.1357 116.201 43.1679C116.867 42.2001 117.532 41.4138 118.137 40.6879C118.197 40.6879 118.197 40.6274 118.258 40.5669C118.318 40.5065 118.379 40.446 118.5 40.446C118.56 40.446 118.56 40.446 118.56 40.5064C118.56 40.7484 118.439 40.9904 118.197 41.1718C118.137 41.1718 118.137 41.2323 118.137 41.2323L118.56 41.1718C118.681 41.1718 118.742 41.2323 118.742 41.2928C118.742 41.4138 118.681 41.5952 118.621 41.7767C118.5 41.9582 118.439 42.1396 118.318 42.3816C117.955 43.1074 117.592 43.8938 117.048 44.7406C116.504 45.6479 116.02 46.3133 115.596 46.8577C114.749 47.8255 113.782 48.7328 112.753 49.5192L112.632 49.5797C112.269 49.8821 112.088 50.0636 112.088 50.0636C112.088 50.0636 112.088 50.0636 112.148 50.0636C112.269 50.0636 112.632 49.8821 113.237 49.5192C113.842 49.1563 114.266 48.9143 114.568 48.7328C115.475 48.007 115.959 47.644 116.141 47.644C116.141 47.644 116.08 47.765 116.02 47.886C115.415 48.7933 114.507 49.5797 113.419 50.245C112.874 50.5475 112.39 50.6685 111.906 50.6685C111.544 50.6685 111.241 50.608 110.878 50.5475C110.455 50.366 110.092 50.1241 109.729 49.8216C109.185 49.3377 108.882 48.7933 108.882 48.2489C108.882 47.7045 108.943 47.0997 109.124 46.4948C109.245 45.8899 109.366 45.527 109.366 45.406C109.366 45.3455 109.366 45.285 109.305 45.285C109.245 45.285 109.124 45.406 108.943 45.5875C108.882 45.6479 108.882 45.7084 108.822 45.7689C108.156 46.5553 107.43 47.3416 106.825 48.128L106.765 48.1885C105.616 49.7007 104.708 50.5475 104.043 50.8499C103.862 50.8499 103.62 50.7289 103.438 50.487C103.378 50.4265 103.378 50.366 103.317 50.366C103.317 50.366 103.257 50.366 103.257 50.4265C103.196 50.4265 103.196 50.4265 103.136 50.4265C102.833 50.4265 102.652 50.1846 102.41 49.7007C102.228 49.3982 102.168 49.1563 102.168 48.9748C102.168 48.7933 102.168 48.6724 102.228 48.4909C102.289 48.3699 102.289 48.1884 102.349 48.007C102.47 47.4626 102.591 46.9182 102.773 46.3738C103.075 45.3455 103.257 44.7406 103.257 44.3777C103.257 44.2567 103.257 44.2567 103.196 44.2567C103.136 44.2567 103.015 44.3777 102.833 44.5592L102.228 45.2245C101.986 45.527 101.684 45.8899 101.382 46.3133C101.079 46.7367 100.837 47.0997 100.656 47.2206C100.474 47.4021 100.414 47.5231 100.353 47.644C100.353 47.8255 100.232 47.9465 100.051 48.007C99.8693 48.0675 99.8088 48.1884 99.7484 48.3699C99.7484 48.4909 99.7484 48.5514 99.8088 48.5514C99.9298 48.5514 100.172 48.3094 100.535 47.765C100.898 47.2811 101.14 47.0997 101.14 47.0392C101.14 47.0997 100.958 47.3416 100.716 47.7045C99.9903 48.7328 99.204 49.7007 98.4781 50.5475C97.7523 51.4548 97.0869 51.8782 96.482 51.9387C96.0586 51.9992 95.8771 51.9387 95.7562 51.7573Z" fill="#FDB913"/>
<path d="M120.556 35.728C120.677 35.4255 120.798 35.1836 120.738 35.0626C120.738 35.0021 120.738 35.0021 120.677 35.0021C120.617 35.0021 120.496 35.1836 120.254 35.5465C120.012 35.9699 119.951 36.2724 119.951 36.3933C119.951 36.4538 119.951 36.4538 120.012 36.5143C120.133 36.4538 120.314 36.2119 120.556 35.728ZM119.891 38.208C119.588 37.966 119.407 37.6031 119.346 37.1797C119.346 37.1192 119.346 36.9377 119.346 36.6353C119.346 36.2724 119.467 35.9094 119.77 35.365C120.072 34.8206 120.375 34.5182 120.798 34.3972C121.161 34.3972 121.584 34.4577 122.008 34.5787C122.552 34.6997 122.915 34.9416 123.036 35.244V35.3045C123.036 35.3045 123.036 35.3045 122.976 35.3045H122.915C122.915 35.3045 122.855 35.365 122.915 35.4255C122.915 35.486 122.915 35.607 123.036 35.728C123.097 35.8489 123.157 35.9699 123.157 36.0909C123.157 36.2724 123.036 36.5143 122.855 36.6958C122.734 36.8772 122.552 37.0587 122.371 37.3007C121.887 38.087 121.403 38.4499 120.919 38.5104C120.617 38.5709 120.254 38.4499 119.891 38.208ZM115.596 46.6158L115.657 45.9505C115.657 45.8295 115.657 45.7085 115.778 45.648C115.959 45.4666 116.08 45.3456 116.08 45.2246C116.08 45.1641 116.201 44.9826 116.382 44.6197C116.443 44.4382 116.564 44.3173 116.624 44.1358L116.806 43.5914C116.866 43.4704 116.866 43.3495 116.866 43.289C116.866 43.2285 116.927 43.1075 116.987 43.047C117.048 42.9261 117.048 42.8051 117.108 42.6236C117.108 42.5026 117.169 42.3817 117.169 42.2607C117.229 42.2002 117.229 42.0792 117.229 42.0187C117.229 41.8978 117.29 41.7163 117.411 41.5348L117.653 41.3534L117.834 40.9904C117.955 40.7485 118.076 40.567 118.076 40.5065C118.076 40.446 118.137 40.3251 118.258 40.2646C118.379 40.2041 118.5 40.0831 118.681 39.9621C118.863 39.8412 118.923 39.7202 118.923 39.6597C118.923 39.5387 118.863 39.4782 118.742 39.4782H118.681C118.379 39.5992 118.137 39.7202 118.076 39.9621C118.016 40.0831 117.955 40.2041 117.834 40.2646C117.774 40.3251 117.713 40.3855 117.653 40.446C117.592 40.567 117.532 40.7485 117.471 41.0509C117.471 41.1719 117.35 41.4138 117.169 41.6558C116.927 41.9582 116.866 42.2002 116.866 42.2607C116.866 42.3212 116.866 42.4421 116.866 42.6236V42.8051C116.866 42.9865 116.866 43.168 116.806 43.2285C116.745 43.289 116.685 43.41 116.564 43.5309C116.503 43.6519 116.383 43.8334 116.322 44.0753C116.201 44.3173 116.08 44.5592 116.02 44.8012C115.899 45.0431 115.838 45.2246 115.838 45.3456C115.778 45.4666 115.717 45.648 115.657 45.769C115.596 45.9505 115.536 46.0714 115.536 46.2529V46.3134C115.536 46.3739 115.536 46.4344 115.596 46.4949C115.657 46.5553 115.657 46.6158 115.717 46.6158C115.475 46.7973 115.536 46.7368 115.596 46.6158ZM115.475 47.5232C115.475 47.3417 115.415 47.2812 115.294 47.2812C115.173 47.2812 115.112 47.4022 115.112 47.5836C115.112 47.7651 115.233 47.8861 115.354 47.8861C115.475 47.8861 115.536 47.7651 115.475 47.5232ZM114.749 48.5514C114.689 48.0675 114.749 47.5232 114.87 46.8578C115.233 44.8012 115.838 42.8656 116.745 40.9904C116.806 40.8694 116.866 40.7485 116.987 40.6275C117.108 40.5065 117.169 40.3856 117.229 40.2646C117.592 39.3573 118.137 38.9338 118.802 38.8733C119.165 38.8733 119.588 38.9943 120.012 39.2363C120.496 39.5992 120.738 39.9016 120.738 40.2041C120.798 40.5065 120.617 40.809 120.314 41.2324C120.133 41.4743 119.951 41.7768 119.83 42.1397C119.649 42.5631 119.467 43.1075 119.165 43.7729C118.5 45.1641 118.197 46.011 118.197 46.3739C118.197 46.5554 118.318 46.6158 118.5 46.6158H118.621C119.83 46.0714 120.919 45.3456 122.008 44.4383C123.036 43.4704 124.488 41.7163 126.242 39.2363C126.363 39.1153 126.424 39.0548 126.484 39.0548C126.484 39.1153 126.363 39.4177 126.121 39.8412L125.94 40.2041C126 40.2646 126 40.2646 126.121 40.3251C126.182 40.3251 126.242 40.3855 126.242 40.446C126.242 40.567 126.182 40.7485 126 41.1114C125.274 42.6236 124.246 44.1963 122.855 45.769C121.584 46.9788 120.012 48.128 118.137 49.3378C117.471 49.7612 117.108 50.0032 117.108 50.0636C117.35 50.0636 118.016 49.7612 119.165 49.1563C119.951 48.7329 120.798 48.1885 121.584 47.5232C121.887 47.2207 122.129 47.0997 122.189 47.0997C122.189 47.0997 122.25 47.0997 122.25 47.1602C122.25 47.2812 122.129 47.5232 121.947 47.8256C121.766 48.0676 121.464 48.37 121.04 48.6724C120.254 49.2168 119.709 49.6402 119.407 50.0636C119.286 50.1846 119.225 50.2451 119.225 50.3056C119.225 50.3661 119.165 50.3661 119.104 50.4266C119.044 50.4266 118.923 50.4871 118.681 50.6081L118.439 50.6685C117.955 50.7895 117.532 50.85 117.169 50.9105C115.657 50.7895 114.931 50.0636 114.749 48.5514Z" fill="#FDB913"/>
<path d="M136.222 27.8042C136.222 27.7438 136.161 27.6833 136.04 27.6228V27.6833V27.7438C136.101 27.8042 136.161 27.8647 136.222 27.8042C136.222 27.8647 136.222 27.8647 136.222 27.8042ZM131.02 29.0745V29.014C130.959 29.014 130.959 29.014 130.899 29.014C130.839 29.0745 130.778 29.135 130.778 29.1955C130.778 29.256 130.778 29.256 130.839 29.256C131.02 29.256 131.02 29.1955 131.02 29.0745ZM130.234 30.6472C130.234 30.6472 130.294 30.5867 130.355 30.4657C130.415 30.4052 130.476 30.2843 130.476 30.2238C130.597 29.8608 130.657 29.6794 130.657 29.5584C130.657 29.4979 130.657 29.4979 130.597 29.4979C130.536 29.4979 130.355 29.7399 130.173 30.2843C130.113 30.4657 130.113 30.5867 130.113 30.6472C130.173 30.7077 130.173 30.7077 130.234 30.6472C130.234 30.7077 130.234 30.7077 130.234 30.6472ZM129.81 33.1877C129.81 33.1272 129.871 33.0667 129.871 33.0062C129.871 32.9457 129.871 32.9457 129.871 32.8852C129.871 32.7643 129.81 32.7038 129.75 32.7038C129.689 32.7643 129.629 32.9457 129.629 33.1272C129.629 33.2482 129.629 33.2482 129.689 33.2482C129.689 33.2482 129.75 33.2482 129.81 33.1877ZM132.653 31.0101C133.984 29.014 134.649 27.8042 134.649 27.4413C134.649 27.3203 134.528 27.2599 134.347 27.2599C134.105 27.2599 133.742 27.5623 133.319 28.0462C132.956 28.4696 132.593 29.0745 132.169 29.8608C131.927 30.4052 131.625 30.8891 131.262 31.4335C131.08 31.615 130.96 31.9174 130.839 32.2199L130.052 33.974L129.689 34.6394C129.629 34.6999 129.568 34.8814 129.568 35.0023C129.568 35.0628 129.568 35.0628 129.568 35.0628C129.81 35.0628 130.839 33.7321 132.653 31.0101ZM129.629 33.6111C129.629 33.5506 129.568 33.4901 129.447 33.4901H129.387C129.266 33.4901 129.266 33.5506 129.266 33.6111C129.266 33.6716 129.326 33.6716 129.508 33.6716C129.629 33.6716 129.689 33.6716 129.629 33.6111ZM129.568 32.1594C129.629 32.0989 129.629 31.9779 129.689 31.857C129.75 31.736 129.75 31.6755 129.81 31.5545C129.871 31.494 129.871 31.4335 129.871 31.4335V31.373L129.81 31.4335C129.75 31.494 129.689 31.615 129.568 31.7965C129.326 32.2199 129.205 32.5223 129.205 32.5828C129.266 32.6433 129.387 32.5223 129.568 32.1594ZM129.145 34.337V34.2765C129.145 34.2765 129.084 34.2765 129.084 34.337C129.024 34.3974 129.024 34.5184 129.024 34.5789C129.024 34.6394 129.024 34.6394 129.084 34.6394C129.084 34.6394 129.145 34.5184 129.145 34.337ZM128.963 33.7321C129.084 33.4901 129.145 33.1877 129.205 32.7643C129.205 32.8248 129.145 32.8248 129.145 32.8248C129.145 32.8248 129.145 32.8248 129.084 32.8852C128.721 33.4296 128.54 33.7926 128.54 34.0345C128.54 34.095 128.54 34.095 128.6 34.095C128.721 34.095 128.842 33.974 128.963 33.7321ZM128.479 34.9418C128.54 34.8814 128.54 34.8814 128.54 34.8209C128.54 34.7604 128.479 34.7604 128.298 34.6999C128.177 34.6999 128.117 34.7604 128.117 34.8814V34.9418C128.177 35.0023 128.238 35.0628 128.298 35.0628C128.359 35.0023 128.419 35.0023 128.479 34.9418ZM129.024 38.8736C129.205 38.6316 129.387 38.3897 129.568 38.2082C129.931 37.6638 130.234 37.3614 130.597 37.1799C130.597 37.1799 130.657 37.1194 130.718 36.938C131.08 36.2726 131.383 35.7887 131.746 35.5467C132.109 35.0023 132.714 34.1555 133.56 33.0062C133.742 32.5828 133.984 32.2804 134.165 31.9779C134.347 31.7965 134.528 31.6755 134.891 31.5545C134.831 31.3731 134.831 31.2521 134.831 31.1311C134.831 31.0706 134.891 31.0101 134.952 30.8891C135.133 30.8287 135.254 30.6472 135.375 30.3448C135.496 30.1028 135.617 29.9213 135.738 29.6794C136.101 29.0745 136.343 28.5301 136.403 28.0462C135.617 29.014 134.891 30.0423 134.165 31.1916C133.742 31.9174 133.319 32.5223 132.835 33.1877C132.351 33.7926 131.927 34.4579 131.443 35.0023C130.597 36.0911 130.113 36.7565 129.931 37.0589C129.81 37.1799 129.689 37.3614 129.568 37.6033C129.387 37.8453 129.205 38.0872 129.024 38.2687C128.842 38.5106 128.721 38.6316 128.6 38.7526C128.6 38.7526 128.54 38.8131 128.479 38.9341C128.419 39.055 128.359 39.176 128.298 39.297C128.238 39.418 128.238 39.5389 128.238 39.5994H128.298C128.359 39.6599 128.6 39.3575 129.024 38.8736ZM127.754 36.6355C127.754 36.575 127.754 36.5145 127.693 36.5145C127.633 36.5145 127.633 36.575 127.572 36.696V36.7565C127.572 36.817 127.633 36.817 127.633 36.817C127.754 36.817 127.754 36.7565 127.754 36.6355ZM125.516 47.1C125.758 46.1926 125.878 45.6483 125.878 45.3458L126.362 43.1077C126.483 42.7448 126.483 42.5634 126.483 42.3819C126.483 42.2609 126.483 42.2004 126.362 42.2004C126.241 42.2004 126.12 42.4424 125.939 42.9868C125.213 45.7692 124.85 47.5234 124.911 48.1888C124.911 48.2493 124.911 48.3097 124.911 48.3702V48.4307C125.153 48.4307 125.334 47.9468 125.516 47.1ZM126.725 55.3869C126.483 55.2054 126.241 55.0239 125.999 54.8425C125.758 54.661 125.637 54.54 125.516 54.4795L124.85 53.6932C123.943 52.3019 123.459 50.7898 123.459 49.0961C123.398 47.7049 123.64 46.0717 124.124 44.257L124.245 43.8336C124.427 42.9868 124.669 42.1399 124.971 41.2931C125.092 40.9907 125.213 40.6277 125.274 40.3253C125.455 39.5994 125.758 38.9341 125.999 38.2082L126.423 37.0589C127.209 35.0628 127.633 33.974 127.754 33.7926L128.056 33.0667C128.298 32.2804 128.842 31.1311 129.508 29.6189C130.173 28.1672 130.899 27.0179 131.685 26.292C132.411 25.5057 133.137 25.1428 133.742 25.0823C134.165 25.0823 134.589 25.2033 135.012 25.4452C135.557 25.8081 135.98 26.292 136.282 26.8364C136.585 27.3808 136.706 27.8647 136.706 28.2881C136.706 28.5906 136.706 28.893 136.585 29.1955C136.464 29.4979 136.282 29.9213 135.98 30.4052C135.678 30.9496 135.315 31.4335 135.012 31.9174C134.649 32.4013 134.407 32.8248 134.165 33.0667C134.105 33.0667 134.044 33.1272 134.044 33.1272C133.984 33.1272 133.984 33.1272 133.923 33.0667H133.863C133.863 33.0667 133.802 33.0667 133.802 33.1272C133.802 33.2482 133.863 33.3087 133.923 33.3692H133.863C133.863 33.3692 133.802 33.3691 133.802 33.4296C133.742 33.4296 133.742 33.4901 133.681 33.5506C133.56 33.7321 133.44 33.9135 133.379 34.095C133.258 34.4579 133.016 34.7604 132.593 35.0628C132.532 35.1233 132.472 35.1838 132.411 35.3048C132.29 35.6677 131.988 36.0306 131.443 36.575C131.383 36.575 131.383 36.696 131.322 36.817C131.262 36.9984 131.141 37.2404 130.959 37.4219C130.778 37.6638 130.597 37.9058 130.355 38.2082C130.052 38.6316 129.871 38.8736 129.689 39.055C128.963 39.9624 128.54 40.6277 128.419 41.1116V41.4141C128.419 41.4746 128.419 41.4746 128.419 41.4746L128.117 41.2931C128.117 41.4141 128.056 41.4746 127.935 41.4746C127.875 41.4746 127.814 41.4746 127.754 41.4746H127.451C127.451 41.4746 127.451 41.5351 127.512 41.5351C127.572 41.5956 127.572 41.656 127.572 41.7165C127.572 41.8375 127.451 42.1399 127.209 42.5634C127.028 42.8658 126.907 43.1682 126.786 43.5917L126.241 45.2853C126.241 45.7087 126.302 46.0112 126.362 46.2531C126.544 46.0717 126.604 46.0112 126.665 46.0112C126.665 46.0112 126.665 46.1322 126.604 46.2531C126.544 46.3741 126.483 46.6161 126.423 46.858C126.12 48.0678 125.999 49.217 126.06 50.3663C126.12 51.9995 126.483 53.5722 127.27 55.1449C127.33 55.3264 127.391 55.4473 127.391 55.5683C127.391 55.6288 127.391 55.6893 127.33 55.6893C127.149 55.6288 126.967 55.5078 126.725 55.3869Z" fill="#FDB913"/>
<path d="M138.097 47.281C138.097 47.2205 138.097 47.16 138.037 47.0995C137.976 47.16 137.916 47.2205 137.916 47.3414C137.916 47.4019 137.916 47.4624 137.976 47.4624H138.037C138.037 47.4624 138.037 47.4019 138.097 47.281ZM136.343 52.6644C136.404 52.6039 136.404 52.5434 136.404 52.4225C136.404 52.362 136.404 52.362 136.404 52.362C136.283 52.362 136.222 52.483 136.162 52.7249L136.222 52.7854C136.283 52.7249 136.343 52.7249 136.343 52.6644ZM135.617 54.721C135.98 54.0556 136.101 53.6322 136.101 53.4508C136.101 53.3903 136.101 53.3903 136.041 53.3903C135.98 53.3903 135.92 53.4508 135.859 53.5717C135.678 53.9347 135.557 54.2371 135.557 54.6L135.617 54.721ZM134.71 57.443C134.771 57.3825 134.771 57.322 134.771 57.322C134.771 57.2615 134.771 57.2615 134.71 57.2615H134.65C134.468 57.322 134.408 57.5035 134.408 57.6849C134.408 57.7454 134.408 57.8059 134.468 57.8059C134.468 57.8059 134.589 57.6849 134.71 57.443ZM133.561 59.681C133.561 59.6206 133.561 59.5601 133.561 59.4996C133.5 59.5601 133.44 59.6205 133.44 59.7415C133.44 59.8625 133.44 59.923 133.5 59.923C133.5 59.8625 133.5 59.802 133.561 59.681ZM132.109 42.6839C132.291 42.5024 132.412 42.1395 132.472 41.6556L132.533 41.2926C132.593 41.1112 132.714 40.9297 132.895 40.7482C133.016 40.6273 133.016 40.5063 133.016 40.4458C133.016 40.3248 132.956 40.2643 132.835 40.2038C132.774 40.2038 132.654 40.3853 132.593 40.6877C132.533 40.8692 132.472 40.9902 132.412 41.0507C132.351 41.1112 132.291 41.2926 132.291 41.6556C132.23 42.0185 132.23 42.2 132.109 42.3814C131.928 42.6839 131.807 42.9258 131.746 43.1073L131.686 43.1678C131.746 43.1073 131.867 42.8653 132.109 42.6839ZM132.291 48.8537C132.472 48.7327 132.714 48.4907 133.137 48.1883C133.5 47.8859 133.924 47.5229 134.408 47.0995C135.315 46.3132 135.799 45.7083 135.799 45.3453C135.799 45.2849 135.799 45.2244 135.738 45.2244C135.678 45.2244 135.436 45.4663 135.013 45.8897C134.589 46.3132 134.287 46.6156 134.226 46.6761C133.319 47.4624 132.412 48.2488 131.383 48.9141C131.383 48.9141 131.323 48.9746 131.262 48.9746C131.202 48.9746 131.141 49.0351 131.081 49.1561C130.96 49.2166 130.899 49.2771 130.839 49.3376C130.778 49.3981 130.778 49.4585 130.778 49.4585C130.778 49.519 130.778 49.519 130.839 49.519C130.899 49.519 130.899 49.5795 130.96 49.5795C131.141 49.64 131.565 49.398 132.291 48.8537ZM126.968 66.0323C129.085 65.3064 130.899 63.6128 132.412 60.8908C133.863 58.1688 135.134 55.3864 136.101 52.6039C137.069 49.761 137.735 47.4019 138.037 45.4058L138.097 45.1034C138.097 45.1034 137.976 45.3454 137.855 45.7688C137.735 46.1317 137.674 46.3132 137.674 46.3736C137.009 48.6117 136.162 51.2127 135.073 54.1766C133.198 59.6206 130.839 63.2498 127.935 65.125L127.814 65.1855C127.27 65.4274 126.907 65.6089 126.665 65.7299C126.363 65.9113 126.181 66.0323 126.181 66.0928C126.181 66.1533 126.242 66.1533 126.363 66.1533C126.423 66.1533 126.605 66.0928 126.968 66.0323ZM123.217 64.3991C122.733 63.6128 122.491 62.8869 122.552 62.1006C122.612 61.2537 122.915 60.1045 123.52 58.7132C124.064 57.2615 124.851 55.9913 125.818 54.842C126 54.6605 126.121 54.6 126.121 54.6C126.181 54.6 126.181 54.6605 126.181 54.7815C126.121 54.963 125.939 55.2654 125.697 55.7493C125.576 55.9913 125.516 56.1122 125.395 56.2332C125.334 56.3542 125.274 56.4147 125.274 56.4752C124.972 57.2615 124.79 57.7454 124.79 57.9269V57.9874C124.851 57.9874 125.092 57.6244 125.516 56.7776L125.637 56.4752C126.726 54.2976 127.572 52.9669 128.177 52.6039C127.693 53.4508 127.21 54.3581 126.726 55.3259C126.242 56.2332 125.879 57.0801 125.637 57.8664C125.213 59.1367 124.911 60.4069 124.73 61.6167C124.669 61.8586 124.669 62.0401 124.669 62.2215C124.669 63.0684 124.911 63.6733 125.334 63.9152C125.455 63.9757 125.576 63.9757 125.697 63.9757C126 63.9757 126.423 63.7338 127.028 63.3103C127.028 63.2498 127.089 63.2498 127.149 63.2498C127.996 62.524 128.782 61.7376 129.448 60.8908C130.96 58.6527 132.23 56.2937 133.258 53.6927C133.742 52.5434 134.408 50.4868 135.194 47.6439C134.892 47.8858 134.468 48.3093 133.863 48.7932C133.258 49.2771 132.654 49.761 132.049 50.1844C131.444 50.6078 130.96 50.8498 130.657 50.9103C130.053 50.8498 129.448 50.4868 128.903 49.8215C128.177 48.9746 127.814 48.2488 127.875 47.5834C127.875 46.918 128.238 45.5873 128.964 43.5307C129.871 40.8692 130.657 39.357 131.323 38.9941C131.504 38.9336 131.686 38.9336 131.928 38.9336C132.472 38.9336 132.774 39.1755 132.835 39.5385C132.835 39.7199 132.895 39.8409 133.077 39.8409C133.319 39.9014 133.5 39.9619 133.682 40.1434C133.682 40.2038 133.682 40.2039 133.682 40.2643C133.682 40.3853 133.561 40.7482 133.319 41.2322C133.077 41.6556 132.895 42.2 132.774 42.6234C132.593 43.1073 132.351 43.5912 131.928 44.1356C131.746 44.3775 131.625 44.559 131.625 44.68C131.625 44.8009 131.625 44.8614 131.686 44.9824C131.746 44.9219 131.807 44.8009 131.928 44.68C131.928 44.68 131.928 44.68 131.928 44.7405C131.928 44.9824 131.807 45.2244 131.625 45.5268C131.383 45.8897 131.262 46.2527 131.262 46.6156V46.6761C131.262 46.6761 131.323 46.6761 131.323 46.6156C131.383 46.5551 131.444 46.5551 131.504 46.4946C132.351 46.0107 133.319 45.1639 134.347 44.0146C135.436 42.7443 136.222 41.6556 136.767 40.6877C137.311 39.7199 137.795 39.1756 138.218 39.0546H138.46C138.944 39.0546 139.307 39.1151 139.549 39.2965C139.67 39.4175 139.852 39.5385 139.912 39.6595C140.033 39.7804 140.154 39.9619 140.335 40.1434C140.396 40.2038 140.396 40.2643 140.396 40.4458C140.396 40.8692 140.154 41.958 139.61 43.5912L139.247 44.8614C138.642 47.2205 138.158 48.6117 137.795 48.9141L137.735 48.9746H137.795C137.795 48.9746 137.855 49.0351 137.916 49.0351C137.916 49.0956 137.976 49.1561 137.976 49.2771C137.976 49.5795 137.855 49.882 137.735 50.1239C137.614 50.2449 137.493 50.3054 137.311 50.3054V50.3659C137.311 50.3659 137.372 50.4264 137.372 50.5473C137.432 50.6078 137.432 50.7288 137.432 50.8498C137.432 51.0312 137.372 51.2127 137.251 51.3942C137.13 51.5756 137.009 51.6966 136.888 51.6966C136.767 51.7571 136.706 51.8176 136.646 51.8781C136.646 51.999 136.706 51.999 136.827 51.999H136.888C136.948 51.999 137.009 51.999 137.009 52.0595L136.948 52.241C136.827 52.6039 136.706 52.9669 136.646 53.2088C136.222 54.4791 135.92 55.2654 135.678 55.4469C135.255 56.4752 134.952 57.201 134.892 57.5035C134.71 58.1688 134.529 58.5318 134.347 58.5318C134.287 58.5318 134.226 58.5318 134.166 58.5318C134.105 58.5318 134.045 58.7132 134.045 58.9552C134.045 59.1971 133.984 59.4996 133.803 59.8625C133.682 60.2254 133.5 60.5884 133.319 60.9513C133.137 61.2537 132.895 61.4957 132.714 61.4957C132.653 61.4957 132.593 61.4957 132.593 61.5562C132.593 61.5562 132.593 61.6167 132.654 61.6771C132.654 61.7376 132.714 61.7981 132.714 61.8586C132.714 61.9191 132.714 61.9191 132.714 61.9796C132.714 62.0401 132.714 62.1006 132.654 62.2215C132.533 62.1611 132.472 62.1006 132.412 62.0401C132.351 61.9796 132.291 61.9191 132.291 61.9191C132.291 61.9191 132.23 61.9796 132.23 62.161V62.403C132.23 62.4635 132.17 62.5845 132.109 62.7659C131.928 63.1893 131.746 63.4313 131.625 63.4313C131.444 63.4313 131.262 63.6128 131.202 64.0362L131.081 64.2781C131.081 64.2781 131.02 64.2177 131.02 64.1572C130.96 64.0967 130.96 64.0362 130.96 64.0362L130.899 64.0967C130.899 64.0967 130.839 64.1572 130.778 64.2781C130.718 64.3386 130.657 64.5201 130.536 64.6411C130.415 64.8225 130.294 64.9435 130.173 65.0645C130.053 65.246 129.932 65.3064 129.871 65.4274C129.811 65.4879 129.75 65.6089 129.75 65.6694C129.69 65.7299 129.629 65.7298 129.569 65.7903C129.508 65.7903 129.448 65.7903 129.448 65.8508C129.387 65.8508 129.387 65.9113 129.387 65.9718C129.387 66.0323 129.327 66.0323 129.266 66.0928C129.206 66.1533 129.145 66.1533 129.085 66.1533C129.024 66.1533 128.903 66.2138 128.722 66.2743C128.601 66.3347 128.48 66.3952 128.298 66.4557C128.177 66.5162 128.117 66.5767 128.056 66.6372C127.512 66.8791 127.028 67.0001 126.544 67.0001C125.274 66.8791 124.185 66.0928 123.217 64.3991Z" fill="#FDB913"/>
</svg>