<svg width="81" height="82" viewBox="0 0 81 82" fill="none" xmlns="http://www.w3.org/2000/svg">
<path d="M60.75 20.3181V20.3527" stroke="white" stroke-width="3" stroke-linecap="round" stroke-linejoin="round"/>
<path d="M60.75 43.943L48.9375 27.068C47.8004 25.0127 47.2191 22.6963 47.2513 20.3477C47.2834 17.999 47.9278 15.6994 49.1207 13.676C50.3136 11.6526 52.0139 9.9755 54.0534 8.81035C56.0929 7.6452 58.4011 7.03235 60.75 7.03235C63.0989 7.03235 65.4071 7.6452 67.4466 8.81035C69.4861 9.9755 71.1864 11.6526 72.3793 13.676C73.5722 15.6994 74.2166 17.999 74.2487 20.3477C74.2809 22.6963 73.6996 25.0127 72.5625 27.068L60.75 43.943Z" stroke="white" stroke-width="3" stroke-linecap="round" stroke-linejoin="round"/>
<path d="M35.4375 16.0994L30.375 13.5681L10.125 23.6931V67.5681L30.375 57.4431L50.625 67.5681L70.875 57.4431V50.6931" stroke="white" stroke-width="3" stroke-linecap="round" stroke-linejoin="round"/>
<path d="M30.375 13.5681V57.4431" stroke="white" stroke-width="3" stroke-linecap="round" stroke-linejoin="round"/>
<path d="M50.625 50.6931V67.5681" stroke="white" stroke-width="3" stroke-linecap="round" stroke-linejoin="round"/>
</svg>
