<svg width="81" height="81" viewBox="0 0 81 81" fill="none" xmlns="http://www.w3.org/2000/svg">
<path d="M30.375 37.1249C37.8308 37.1249 43.875 31.0807 43.875 23.6249C43.875 16.169 37.8308 10.1249 30.375 10.1249C22.9192 10.1249 16.875 16.169 16.875 23.6249C16.875 31.0807 22.9192 37.1249 30.375 37.1249Z" stroke="#303844" stroke-width="3" stroke-linecap="round" stroke-linejoin="round"/>
<path d="M10.125 70.8749V64.1249C10.125 60.5445 11.5473 57.1107 14.0791 54.5789C16.6108 52.0472 20.0446 50.6249 23.625 50.6249H37.125C40.7054 50.6249 44.1392 52.0472 46.6709 54.5789C49.2027 57.1107 50.625 60.5445 50.625 64.1249V70.8749" stroke="#303844" stroke-width="3" stroke-linecap="round" stroke-linejoin="round"/>
<path d="M54 37.1249L60.75 43.8749L74.25 30.3749" stroke="#303844" stroke-width="3" stroke-linecap="round" stroke-linejoin="round"/>
</svg>
