<svg width="60" height="81" viewBox="0 0 60 81" fill="none" xmlns="http://www.w3.org/2000/svg">
<path d="M26.5132 64.1953C26.1398 63.8219 25.953 63.4487 25.5796 63.0753L23.5264 59.3409C23.153 58.7808 22.5921 58.594 21.8453 58.7807C21.0984 58.9674 21.0987 59.7141 21.2855 60.461L23.3395 64.1953C23.713 64.9422 24.0859 65.5026 24.646 65.8761L32.3016 72.971V79.8799C32.3016 80.6268 32.862 80.9999 33.4221 80.9999C33.9823 80.9999 34.5426 80.44 34.5426 79.8799V72.5976C34.5426 72.2242 34.3555 72.0375 34.1688 71.664L26.5132 64.1953Z" fill="white"/>
<path d="M21.2851 54.6733L16.0573 44.4039C15.6839 43.657 15.8702 42.5366 16.6171 41.9764C17.364 41.4163 18.4841 41.4163 19.231 41.9764L26.1399 48.5116C26.5133 48.885 27.0729 48.8847 27.4464 48.698C27.8198 48.5113 28.194 48.1381 28.194 47.578V32.2672C28.194 31.5203 27.6336 31.1467 27.0735 31.1467C26.5133 31.1467 25.953 31.7071 25.953 32.2672V44.7772L20.9113 40.1093C19.2308 38.6155 16.8042 38.6153 15.1237 39.9224C13.63 41.2294 13.0697 43.4703 14.0032 45.3375L19.231 55.6069C19.4177 55.9804 19.7913 56.1667 20.3515 56.1667C20.5382 56.1667 20.7245 56.167 20.9113 55.9803C21.2847 55.9803 21.6585 55.2335 21.2851 54.6733Z" fill="white"/>
<path d="M54.5208 28.7192C52.8404 28.7192 51.5341 29.466 50.6005 30.5863C49.6669 29.466 48.173 28.7192 46.6792 28.7192C45.1855 28.7192 43.6916 29.466 42.758 30.5863C41.8244 29.466 40.3305 28.7192 38.8367 28.7192C37.9031 28.7192 36.7828 29.0929 36.036 29.4663V19.9435C36.036 17.1428 33.7957 14.7153 30.8082 14.7153C28.0075 14.7153 25.5796 16.956 25.5796 19.9435V27.2253C25.5796 27.9722 26.1399 28.3458 26.7001 28.3458C27.2602 28.3458 27.8206 27.7855 27.8206 27.2253V19.9435C27.8206 18.4498 29.1276 17.1428 30.6213 17.1428C32.1151 17.1428 33.4221 18.4498 33.4221 19.9435V41.0427C33.4221 41.7896 33.9824 42.1627 34.5426 42.1627C35.1027 42.1627 35.6631 41.6029 35.6631 41.0427V33.7604C35.6631 32.2667 36.9701 30.9597 38.4638 30.9597C39.9576 30.9597 41.2646 32.2667 41.2646 33.7604V41.0427C41.2646 41.7896 41.824 42.1627 42.3842 42.1627C43.131 42.1627 43.5047 41.6029 43.5047 41.0427V33.7604C43.5047 32.2667 44.8117 30.9597 46.3054 30.9597C47.7992 30.9597 49.1062 32.2667 49.1062 33.7604V41.0427C49.1062 41.7896 49.6665 42.1627 50.2267 42.1627C50.7868 42.1627 51.3472 41.6029 51.3472 41.0427V33.7604C51.3472 32.2667 52.6542 30.9597 54.1479 30.9597C55.6417 30.9597 56.9487 32.2667 56.9487 33.7604V65.6893C56.9487 66.2495 56.7616 66.8095 56.5749 67.3696L54.7077 70.7306C54.521 70.9174 54.5208 71.1042 54.5208 71.2909V79.6932C54.5208 80.44 55.0812 80.8137 55.6413 80.8137C56.3882 80.8137 56.7618 80.2533 56.7618 79.6932V71.6642L58.4421 68.677C59.0022 67.7434 59.1888 66.8097 59.1888 65.6893V33.9473C59.7489 30.9599 57.5083 28.7192 54.5208 28.7192Z" fill="white"/>
<path d="M40.5169 16.9558C40.5169 19.1964 39.7707 21.2506 38.4637 22.9311C38.0903 23.4913 38.0895 24.2379 38.6497 24.6114C38.8364 24.7981 39.2106 24.7983 39.3973 24.7983C39.7707 24.7983 40.1442 24.6112 40.3309 24.4245C42.0113 22.1839 42.9447 19.7565 42.9447 16.9558C42.9447 15.0886 42.5709 13.2216 41.6373 11.5411C41.2639 10.981 40.7039 10.7942 39.9571 10.9809C39.3969 11.3543 39.2106 11.9148 39.3973 12.6616C40.3309 13.9686 40.5169 15.462 40.5169 16.9558Z" fill="white"/>
<path d="M21.099 24.4245C21.2857 24.7979 21.6591 24.7983 22.0326 24.7983C22.2193 24.7983 22.5925 24.7981 22.7792 24.6114C23.3394 24.238 23.3396 23.4913 22.9661 22.9311C21.6591 21.2507 20.9121 19.01 20.9121 16.7693C20.9121 11.3545 25.3938 6.87322 30.8087 6.87322C33.0493 6.87322 35.1026 7.62027 36.7831 8.9273C37.3432 9.30073 38.0908 9.30055 38.4643 8.7404C38.8377 8.18025 38.8375 7.43356 38.2774 7.06012C36.0367 5.37966 33.6094 4.4458 30.8087 4.4458C24.0868 4.4458 18.672 9.86061 18.672 16.5824C18.4853 19.7566 19.4185 22.3706 21.099 24.4245Z" fill="white"/>
<path d="M19.0448 33.3871C19.2315 33.5738 19.419 33.574 19.7924 33.574C20.1659 33.574 20.5393 33.3872 20.726 33.0137C21.0994 32.4536 20.9125 31.7069 20.5391 31.3335C15.8712 27.9725 13.0704 22.5576 13.0704 16.7694C13.0704 10.9811 15.8712 5.56624 20.5391 2.20533C21.0993 1.83189 21.2862 1.0852 20.726 0.525049C20.3526 -0.035104 19.605 -0.222004 19.0448 0.338149C13.63 4.0725 10.4565 10.2343 10.4565 16.7694C10.4565 23.4912 13.63 29.6527 19.0448 33.3871Z" fill="white"/>
<path d="M41.0781 2.39211C45.7461 5.75303 48.5468 11.1675 48.5468 16.9557C48.5468 19.1963 48.173 21.4371 47.2395 23.6777C47.0527 24.2379 47.2393 24.9849 47.9861 25.1716C48.1729 25.1716 48.3599 25.1716 48.3599 25.1716C48.9201 25.1716 49.2937 24.7979 49.4804 24.4244C50.414 21.9971 50.9738 19.5698 50.9738 16.9557C50.9738 10.4206 47.7994 4.25929 42.3846 0.524932C41.8245 0.151497 41.0778 0.337941 40.7043 0.711376C40.5176 1.27153 40.518 2.01867 41.0781 2.39211Z" fill="white"/>
<path d="M3.54765 9.48709C3.73437 9.67381 4.1078 9.86089 4.48124 9.86089C4.85468 9.86089 5.04121 9.67381 5.22793 9.48709C5.78808 9.11366 5.78808 8.36697 5.22793 7.80682L2.61406 5.00605C2.24063 4.4459 1.49394 4.4459 0.933787 5.00605C0.373634 5.56621 0.373634 6.12618 0.933787 6.68633L3.54765 9.48709Z" fill="white"/>
<path d="M3.54775 21.2502L0.933885 24.051C0.56045 24.6111 0.56045 25.3583 0.933885 25.7317C1.1206 25.9184 1.49386 26.105 1.68057 26.105C2.05401 26.105 2.24073 25.9184 2.61416 25.7317L5.22803 22.9309C5.60146 22.3708 5.60146 21.6236 5.22803 21.2502C4.66787 20.69 3.92119 20.69 3.54775 21.2502Z" fill="white"/>
<path d="M4.29414 13.5955H1.12049C0.373618 13.5955 0 14.1553 0 14.7155C0 15.4624 0.560335 15.836 1.12049 15.836H4.29414C5.04101 15.836 5.41463 15.2756 5.41463 14.7155C5.60135 14.1553 5.04101 13.5955 4.29414 13.5955Z" fill="white"/>
</svg>
