<svg width="22" height="21" viewBox="0 0 22 21" fill="none" xmlns="http://www.w3.org/2000/svg">
<path d="M16.9446 19.5579C16.4268 19.8046 15.8201 19.9631 15.2268 20.0127C12.5126 20.2803 9.84273 19.0169 7.62289 17.6976C6.89891 17.2782 6.19521 16.7839 5.53251 16.3166C3.32566 14.7115 1.22026 12.7318 0.620873 10.128C0.165956 8.06111 0.706522 5.82766 1.94388 4.05453C2.90244 2.65655 4.27088 1.52935 5.84507 0.891334C7.81453 0.102315 10.0246 0.149361 12.1264 0.53696C14.5284 1.0052 16.8838 1.94306 18.6747 3.59721C20.7732 5.54289 21.9119 8.35587 21.8502 11.2001C21.8129 12.7651 21.4347 14.3992 20.7285 15.8168C19.9067 17.364 18.6073 18.8312 16.9446 19.5579Z" fill="#8DC63F"/>
</svg>
