<svg width="19" height="19" viewBox="0 0 19 19" fill="none" xmlns="http://www.w3.org/2000/svg">
<path d="M9.32138 0.195183C9.94597 0.30321 10.5356 0.445763 11.0901 0.657578C13.5162 1.54085 15.8344 3.04875 17.2799 5.2461C18.4848 7.02511 19.0266 9.32116 18.5276 11.4024C18.1715 12.8245 17.3298 14.1395 16.2816 15.1405C15.2334 16.1415 13.9438 16.8632 12.5855 17.4454C11.1578 18.0273 9.62692 18.4348 8.06385 18.4253C6.50056 18.4505 4.94003 18.0241 3.66014 17.1478C2.4495 16.3067 1.51908 15.0852 0.937062 13.6921C0.354833 12.3337 0.121013 10.8038 0.0606567 9.30966C-0.049034 4.51507 2.58152 0.36249 7.48127 0.0450011C8.10629 0.0835532 8.73131 0.122106 9.32138 0.195183Z" fill="#FDB814"/>
</svg>