<svg width="81" height="82" viewBox="0 0 81 82" fill="none" xmlns="http://www.w3.org/2000/svg">
<path d="M56.8737 16.1369H55.4958V9.44615C55.4958 4.13275 51.1667 0 46.0501 0H35.2265C29.9131 0 25.7798 4.32954 25.7798 9.44615V16.1369H24.4029C22.2381 16.1369 20.27 17.9082 20.27 20.2698V44.6719C20.27 46.8366 22.0413 48.8047 24.4029 48.8047H56.8737C59.0384 48.8047 61.0056 47.0334 61.0056 44.6719V20.2698C61.0056 17.9082 59.2352 16.1369 56.8737 16.1369ZM28.5347 9.44615C28.5347 5.70709 31.4874 2.75491 35.2265 2.75491H46.0501C49.7891 2.75491 52.7408 5.70709 52.7408 9.44615V10.8236H49.9859V9.44615C49.9859 7.28143 48.2146 5.31331 45.8531 5.31331H35.0295C32.8648 5.31331 30.8966 7.08464 30.8966 9.44615V16.1369H28.1417V9.44615H28.5347ZM52.9378 13.382V16.1369H50.182V13.382H52.9378ZM47.4271 9.44615V16.1369H33.8485V9.44615C33.8485 8.65898 34.4393 8.06822 35.2265 8.06822H46.0501C46.8373 8.06822 47.4271 8.65898 47.4271 9.44615ZM58.2507 44.6719C58.2507 45.4591 57.6609 46.0493 56.8737 46.0493H24.4029C23.6157 46.0493 23.0249 45.4591 23.0249 44.6719V20.2698C23.0249 19.4826 23.6157 18.8918 24.4029 18.8918H56.8737C57.6609 18.8918 58.2507 19.4826 58.2507 20.2698V44.6719Z" fill="white"/>
<path d="M39.3585 37.7839C39.7521 37.7839 40.1457 37.5872 40.3425 37.3904L49.7891 27.9442L47.8212 25.9763L39.3585 34.4385L34.8327 29.9122L32.8647 31.8801L38.3746 37.3904C38.5714 37.5872 38.9649 37.7839 39.3585 37.7839Z" fill="white"/>
<path d="M28.5357 21.6475H25.7808V24.4024H28.5357V21.6475Z" fill="white"/>
<path d="M55.6919 21.6475H52.937V24.4024H55.6919V21.6475Z" fill="white"/>
<path d="M55.6919 40.5391H52.937V43.2945H55.6919V40.5391Z" fill="white"/>
<path d="M28.5357 40.5391H25.7808V43.2945H28.5357V40.5391Z" fill="white"/>
<path d="M80.6851 57.4632L77.9302 52.7404C75.9622 49.5917 71.8302 48.4108 68.6815 50.182L48.6082 61.7926V60.8086C48.6082 57.0695 45.6565 54.1178 41.9174 54.1178H17.5153C17.3185 54.1178 17.3182 54.1178 17.1214 54.1178L9.24965 56.6762H1.37793C0.590763 56.6762 0 57.2665 0 58.0537V79.7009C0 80.4881 0.590763 81.0784 1.37793 81.0784H44.6724C44.8692 81.0784 45.2625 81.0782 45.4593 80.8814L80.2921 59.2342C80.8824 58.8406 81.0787 58.0536 80.6851 57.4632ZM8.0687 78.52H2.55888V59.6281H8.0687V78.52ZM44.2784 78.52H10.8236V59.2342L17.9083 56.8727H42.1144C44.2792 56.8727 46.2463 58.6441 46.2463 61.0056V65.1379H24.5991V67.8933H47.6243C48.4114 67.8933 49.0022 67.3031 49.0022 66.5159V65.1379L70.2554 52.7404C71.2394 52.15 72.2235 51.9528 73.4043 52.3464C74.3883 52.5432 75.3717 53.3304 75.7652 54.3143L77.7332 57.8567L44.2784 78.52Z" fill="white"/>
</svg>
