<svg width="17" height="16" viewBox="0 0 17 16" fill="none" xmlns="http://www.w3.org/2000/svg">
<path d="M16.3045 14.862L11.7545 10.312C12.6359 9.22338 13.1665 7.84005 13.1665 6.33341C13.1665 2.84144 10.3252 0.00012207 6.83325 0.00012207C3.34128 0.00012207 0.5 2.84141 0.5 6.33338C0.5 9.82535 3.34132 12.6667 6.83328 12.6667C8.33992 12.6667 9.72325 12.136 10.8119 11.2547L15.3619 15.8046C15.4919 15.9346 15.6625 16 15.8332 16C16.0039 16 16.1745 15.9346 16.3045 15.8046C16.5652 15.544 16.5652 15.1226 16.3045 14.862ZM6.83328 11.3333C4.07597 11.3333 1.83333 9.0907 1.83333 6.33338C1.83333 3.57606 4.07597 1.33342 6.83328 1.33342C9.5906 1.33342 11.8332 3.57606 11.8332 6.33338C11.8332 9.0907 9.59057 11.3333 6.83328 11.3333Z" fill="white"/>
</svg>