<svg width="81" height="81" viewBox="0 0 81 81" fill="none" xmlns="http://www.w3.org/2000/svg">
<path d="M66.4087 26.1894H54.6239V13.0947H61.1712C67.7186 13.0947 72.9561 7.85672 72.9561 1.30938V0H7.85717V1.30938C7.85717 7.85672 13.0947 13.0947 19.642 13.0947H26.1894V26.1894H14.4045C6.54771 26.1894 0 32.5495 0 40.5934C0 48.6373 6.36064 54.9975 14.4045 54.9975H66.596C74.4528 54.9975 80.9996 48.6373 80.9996 40.5934C80.9996 32.5495 74.2656 26.1894 66.4087 26.1894ZM19.4548 10.6627C14.7781 10.6627 11.0371 7.29561 10.4759 2.806H70.1501C69.5889 7.29561 65.6608 10.6627 61.1712 10.6627H19.4548ZM52.0042 13.2819V26.3766H28.6209V13.2819H52.0042ZM66.4087 52.1915H14.2173C7.66993 52.1915 2.4315 46.954 2.4315 40.4066C2.4315 33.8593 7.66993 28.6213 14.2173 28.6213H66.4087C72.9561 28.6213 78.1936 33.8593 78.1936 40.4066C78.0065 46.954 72.769 52.1915 66.4087 52.1915Z" fill="#303844"/>
<path d="M71.4598 36.6653C69.215 36.6653 67.5312 38.3486 67.5312 40.5934C67.5312 42.8382 69.215 44.522 71.4598 44.522C73.7046 44.522 75.3875 42.8382 75.3875 40.5934C75.3875 38.3486 73.7046 36.6653 71.4598 36.6653ZM71.4598 41.9028C70.7116 41.9028 70.15 41.3417 70.15 40.5934C70.15 39.8451 70.7116 39.284 71.4598 39.284C72.2081 39.284 72.7688 39.8451 72.7688 40.5934C72.7688 41.3417 72.2081 41.9028 71.4598 41.9028Z" fill="#303844"/>
<path d="M61.1713 36.6653C58.9265 36.6653 57.2427 38.3486 57.2427 40.5934C57.2427 42.8382 58.9265 44.522 61.1713 44.522C63.4161 44.522 65.0989 42.8382 65.0989 40.5934C65.0989 38.3486 63.229 36.6653 61.1713 36.6653ZM61.1713 41.9028C60.423 41.9028 59.8614 41.3417 59.8614 40.5934C59.8614 39.8451 60.423 39.284 61.1713 39.284C61.9195 39.284 62.4802 39.8451 62.4802 40.5934C62.4802 41.3417 61.9195 41.9028 61.1713 41.9028Z" fill="#303844"/>
<path d="M50.6957 36.6653C48.4509 36.6653 46.7671 38.3486 46.7671 40.5934C46.7671 42.8382 48.4509 44.522 50.6957 44.522C52.9405 44.522 54.6243 42.8382 54.6243 40.5934C54.6243 38.3486 52.7534 36.6653 50.6957 36.6653ZM50.6957 41.9028C49.9474 41.9028 49.3858 41.3417 49.3858 40.5934C49.3858 39.8451 49.9474 39.284 50.6957 39.284C51.4439 39.284 52.0046 39.8451 52.0046 40.5934C52.0046 41.3417 51.4439 41.9028 50.6957 41.9028Z" fill="#303844"/>
<path d="M29.9309 34.0461H11.7851C9.54029 34.0461 7.85742 35.7299 7.85742 37.9747V43.2127C7.85742 45.4575 9.54029 47.1408 11.7851 47.1408H29.9309C32.1758 47.1408 33.8595 45.4575 33.8595 43.2127V37.9747C33.6725 35.7299 31.9887 34.0461 29.9309 34.0461ZM31.2408 43.2127C31.2408 43.961 30.6792 44.5221 29.9309 44.5221H11.7851C11.0368 44.5221 10.4762 43.961 10.4762 43.2127V37.9747C10.4762 37.2265 11.0368 36.6654 11.7851 36.6654H29.9309C30.6792 36.6654 31.2408 37.2265 31.2408 37.9747V43.2127Z" fill="#303844"/>
<path d="M40.2198 78.3808C34.2337 78.3808 28.8089 76.136 24.5064 71.8335L22.6357 73.7042C27.3124 78.3808 33.4854 81 40.2198 81C46.7672 81 53.1273 78.3808 57.8039 73.7042L55.9333 71.8335C51.8178 75.949 46.206 78.3808 40.2198 78.3808Z" fill="#303844"/>
<path d="M26.377 69.963C30.1183 73.7043 34.9818 75.7622 40.2197 75.7622C45.4576 75.7622 50.3211 73.7043 54.0625 69.963L52.1918 68.0923C49.0117 71.2724 44.7093 73.1435 40.2197 73.1435C35.7301 73.1435 31.4278 71.4595 28.2476 68.0923L26.377 69.963Z" fill="#303844"/>
<path d="M30.1182 66.2215C32.9242 69.0275 36.6653 70.3373 40.2196 70.3373C43.9609 70.3373 47.515 69.0275 50.321 66.2215L48.4504 64.3508C43.9607 68.8404 36.4783 68.8404 31.8016 64.3508L30.1182 66.2215Z" fill="#303844"/>
<path d="M47.7024 62.2933L45.8317 60.4226C42.8387 63.4157 37.7881 63.4157 34.795 60.4226L32.9243 62.2933C34.9821 64.351 37.6008 65.2861 40.2197 65.2861C42.8387 65.2861 45.6447 64.351 47.7024 62.2933Z" fill="#303844"/>
</svg>
