<svg width="39" height="81" viewBox="0 0 39 81" fill="none" xmlns="http://www.w3.org/2000/svg">
<path d="M37.7315 7.17954C32.5377 2.59681 25.6635 0 18.4838 0C11.7625 0 5.34682 2.29114 0.305814 6.26284L0 6.56828V43.9939L0.305814 44.2997C5.34682 48.4242 11.7625 50.5626 18.4838 50.5626C25.8162 50.5626 32.5377 47.9658 37.7315 43.3831L38.0365 43.0776V7.48498L37.7315 7.17954ZM36.051 42.1609C31.3155 46.2854 25.0524 48.5767 18.4838 48.5767C12.3735 48.5767 6.56888 46.591 1.83339 43.0776V7.63789C6.41612 4.12446 12.3735 2.13846 18.4838 2.13846C25.0524 2.13846 31.3155 4.42975 36.051 8.55421V42.1609Z" fill="white"/>
<path d="M6.26333 21.9968L5.95752 22.3022V40.0223L6.26333 40.3277C9.624 43.0773 14.0541 44.605 18.6369 44.605C23.5251 44.605 28.26 42.9247 31.7734 39.7168L32.0792 39.411V22.9135L31.7734 22.6077C28.26 19.3997 23.6779 17.7195 18.6369 17.7195C14.0541 17.7195 9.77676 19.2471 6.26333 21.9968ZM29.9408 38.4947C26.8856 41.0916 22.7612 42.6191 18.484 42.6191C14.5123 42.6191 10.8461 41.3969 7.79091 39.1056V23.2189C10.8461 20.9275 14.5123 19.7054 18.484 19.7054C22.7612 19.7054 26.7329 21.0802 29.9408 23.8298V38.4947Z" fill="white"/>
<path d="M15.7338 5.34627L14.8179 5.4988V15.7335L15.7338 15.8864C16.4976 16.0392 17.1092 16.0393 17.873 16.0393C18.7896 16.0393 19.706 16.0392 20.7753 15.8864L21.692 15.7335V5.80424L20.7753 5.65171C18.9422 5.19343 17.4142 5.19351 15.7338 5.34627ZM19.7057 7.33182V13.7479C18.6364 13.9007 17.72 13.9007 16.8034 13.7479V7.17928C17.8727 7.17928 18.7891 7.33182 19.7057 7.33182Z" fill="white"/>
<path d="M34.5238 73.7815C25.3583 80.8083 12.5267 80.9612 3.20846 73.9344C2.75018 73.6289 2.1393 73.629 1.83378 74.0873C1.52827 74.5456 1.52767 75.1564 1.98595 75.462C11.9152 82.9471 25.6634 82.7942 35.5927 75.309C36.0509 75.0035 36.0511 74.3926 35.7456 73.9344C35.5928 73.4761 34.9821 73.476 34.5238 73.7815Z" fill="white"/>
<path d="M5.65159 69.199C5.34607 69.6572 5.49824 70.2685 5.80375 70.574C13.5944 76.3788 24.2876 76.2259 31.9255 70.4211C32.3837 70.1156 32.3839 69.5047 32.0784 69.0464C31.7729 68.5882 31.162 68.588 30.7037 68.8935C23.6769 74.24 14.053 74.393 6.87335 69.0464C6.56784 68.5882 6.10986 68.7407 5.65159 69.199Z" fill="white"/>
<path d="M9.47093 64.1581C9.16541 64.6164 9.31757 65.2272 9.62309 65.5328C15.1224 69.6572 22.7606 69.5043 28.2598 65.3798C28.7181 65.0743 28.7183 64.4634 28.4127 64.0052C28.1072 63.5469 27.4963 63.5468 27.0381 63.8523C22.3026 67.5185 15.5809 67.6714 10.6927 64.0052C10.3872 63.6997 9.77644 63.6998 9.47093 64.1581Z" fill="white"/>
<path d="M18.7893 62.3248C20.9279 62.3248 22.9142 61.5613 24.5945 60.3392C25.0528 60.0337 25.0529 59.4225 24.7474 58.9642C24.4419 58.5059 23.8303 58.5061 23.372 58.8117C20.7751 60.7975 17.1092 60.95 14.5123 58.9642C14.0541 58.6587 13.4432 58.6588 13.1377 59.1171C12.8322 59.5754 12.8323 60.1862 13.2906 60.4918C14.9709 61.7138 16.9562 62.3248 18.7893 62.3248Z" fill="white"/>
</svg>